G75*
%MOIN*%
%OFA0B0*%
%FSLAX25Y25*%
%IPPOS*%
%LPD*%
%AMOC8*
5,1,8,0,0,1.08239X$1,22.5*
%
%ADD10C,0.00800*%
%ADD11C,0.00600*%
%ADD12C,0.01600*%
%ADD13C,0.01000*%
%ADD14C,0.00400*%
%ADD15C,0.00500*%
%ADD16R,0.10000X0.02500*%
%ADD17C,0.00700*%
%ADD18C,0.00300*%
%ADD19R,0.01500X0.02000*%
%ADD20R,0.02000X0.10000*%
%ADD21C,0.00000*%
D10*
X0068333Y0048333D02*
X0333333Y0048333D01*
X0335833Y0053333D02*
X0330833Y0053333D01*
X0328333Y0055833D01*
X0325833Y0053333D01*
X0320833Y0053333D01*
X0318333Y0055833D01*
X0315833Y0053333D01*
X0310833Y0053333D01*
X0308333Y0055833D01*
X0305833Y0053333D01*
X0300833Y0053333D01*
X0298333Y0055833D01*
X0295833Y0053333D01*
X0290833Y0053333D01*
X0288333Y0055833D01*
X0285833Y0053333D01*
X0280833Y0053333D01*
X0278333Y0055833D01*
X0275833Y0053333D01*
X0270833Y0053333D01*
X0268333Y0055833D01*
X0265833Y0053333D01*
X0260833Y0053333D01*
X0258333Y0055833D01*
X0258333Y0060833D01*
X0260833Y0063333D01*
X0265833Y0063333D01*
X0268333Y0060833D01*
X0270833Y0063333D01*
X0275833Y0063333D01*
X0278333Y0060833D01*
X0280833Y0063333D01*
X0285833Y0063333D01*
X0288333Y0060833D01*
X0290833Y0063333D01*
X0295833Y0063333D01*
X0298333Y0060833D01*
X0300833Y0063333D01*
X0305833Y0063333D01*
X0308333Y0060833D01*
X0310833Y0063333D01*
X0315833Y0063333D01*
X0318333Y0060833D01*
X0320833Y0063333D01*
X0325833Y0063333D01*
X0328333Y0060833D01*
X0330833Y0063333D01*
X0335833Y0063333D01*
X0338333Y0060833D01*
X0338333Y0055833D01*
X0335833Y0053333D01*
X0333333Y0048333D02*
X0333575Y0048336D01*
X0333816Y0048345D01*
X0334057Y0048359D01*
X0334298Y0048380D01*
X0334538Y0048406D01*
X0334778Y0048438D01*
X0335017Y0048476D01*
X0335254Y0048519D01*
X0335491Y0048569D01*
X0335726Y0048624D01*
X0335960Y0048684D01*
X0336192Y0048751D01*
X0336423Y0048822D01*
X0336652Y0048900D01*
X0336879Y0048983D01*
X0337104Y0049071D01*
X0337327Y0049165D01*
X0337547Y0049264D01*
X0337765Y0049369D01*
X0337980Y0049478D01*
X0338193Y0049593D01*
X0338403Y0049713D01*
X0338609Y0049838D01*
X0338813Y0049968D01*
X0339014Y0050103D01*
X0339211Y0050243D01*
X0339405Y0050387D01*
X0339595Y0050536D01*
X0339781Y0050690D01*
X0339964Y0050848D01*
X0340143Y0051010D01*
X0340318Y0051177D01*
X0340489Y0051348D01*
X0340656Y0051523D01*
X0340818Y0051702D01*
X0340976Y0051885D01*
X0341130Y0052071D01*
X0341279Y0052261D01*
X0341423Y0052455D01*
X0341563Y0052652D01*
X0341698Y0052853D01*
X0341828Y0053057D01*
X0341953Y0053263D01*
X0342073Y0053473D01*
X0342188Y0053686D01*
X0342297Y0053901D01*
X0342402Y0054119D01*
X0342501Y0054339D01*
X0342595Y0054562D01*
X0342683Y0054787D01*
X0342766Y0055014D01*
X0342844Y0055243D01*
X0342915Y0055474D01*
X0342982Y0055706D01*
X0343042Y0055940D01*
X0343097Y0056175D01*
X0343147Y0056412D01*
X0343190Y0056649D01*
X0343228Y0056888D01*
X0343260Y0057128D01*
X0343286Y0057368D01*
X0343307Y0057609D01*
X0343321Y0057850D01*
X0343330Y0058091D01*
X0343333Y0058333D01*
X0343333Y0248333D01*
X0343330Y0248575D01*
X0343321Y0248816D01*
X0343307Y0249057D01*
X0343286Y0249298D01*
X0343260Y0249538D01*
X0343228Y0249778D01*
X0343190Y0250017D01*
X0343147Y0250254D01*
X0343097Y0250491D01*
X0343042Y0250726D01*
X0342982Y0250960D01*
X0342915Y0251192D01*
X0342844Y0251423D01*
X0342766Y0251652D01*
X0342683Y0251879D01*
X0342595Y0252104D01*
X0342501Y0252327D01*
X0342402Y0252547D01*
X0342297Y0252765D01*
X0342188Y0252980D01*
X0342073Y0253193D01*
X0341953Y0253403D01*
X0341828Y0253609D01*
X0341698Y0253813D01*
X0341563Y0254014D01*
X0341423Y0254211D01*
X0341279Y0254405D01*
X0341130Y0254595D01*
X0340976Y0254781D01*
X0340818Y0254964D01*
X0340656Y0255143D01*
X0340489Y0255318D01*
X0340318Y0255489D01*
X0340143Y0255656D01*
X0339964Y0255818D01*
X0339781Y0255976D01*
X0339595Y0256130D01*
X0339405Y0256279D01*
X0339211Y0256423D01*
X0339014Y0256563D01*
X0338813Y0256698D01*
X0338609Y0256828D01*
X0338403Y0256953D01*
X0338193Y0257073D01*
X0337980Y0257188D01*
X0337765Y0257297D01*
X0337547Y0257402D01*
X0337327Y0257501D01*
X0337104Y0257595D01*
X0336879Y0257683D01*
X0336652Y0257766D01*
X0336423Y0257844D01*
X0336192Y0257915D01*
X0335960Y0257982D01*
X0335726Y0258042D01*
X0335491Y0258097D01*
X0335254Y0258147D01*
X0335017Y0258190D01*
X0334778Y0258228D01*
X0334538Y0258260D01*
X0334298Y0258286D01*
X0334057Y0258307D01*
X0333816Y0258321D01*
X0333575Y0258330D01*
X0333333Y0258333D01*
X0068333Y0258333D01*
X0065833Y0253333D02*
X0070833Y0253333D01*
X0073333Y0250833D01*
X0075833Y0253333D01*
X0080833Y0253333D01*
X0083333Y0250833D01*
X0085833Y0253333D01*
X0090833Y0253333D01*
X0093333Y0250833D01*
X0095833Y0253333D01*
X0100833Y0253333D01*
X0103333Y0250833D01*
X0105833Y0253333D01*
X0110833Y0253333D01*
X0113333Y0250833D01*
X0115833Y0253333D01*
X0120833Y0253333D01*
X0123333Y0250833D01*
X0125833Y0253333D01*
X0130833Y0253333D01*
X0133333Y0250833D01*
X0135833Y0253333D01*
X0140833Y0253333D01*
X0143333Y0250833D01*
X0143333Y0245833D01*
X0140833Y0243333D01*
X0135833Y0243333D01*
X0133333Y0245833D01*
X0130833Y0243333D01*
X0125833Y0243333D01*
X0123333Y0245833D01*
X0120833Y0243333D01*
X0115833Y0243333D01*
X0113333Y0245833D01*
X0110833Y0243333D01*
X0105833Y0243333D01*
X0103333Y0245833D01*
X0100833Y0243333D01*
X0095833Y0243333D01*
X0093333Y0245833D01*
X0090833Y0243333D01*
X0085833Y0243333D01*
X0083333Y0245833D01*
X0080833Y0243333D01*
X0075833Y0243333D01*
X0073333Y0245833D01*
X0070833Y0243333D01*
X0065833Y0243333D01*
X0063333Y0245833D01*
X0063333Y0250833D01*
X0065833Y0253333D01*
X0068333Y0258333D02*
X0068091Y0258330D01*
X0067850Y0258321D01*
X0067609Y0258307D01*
X0067368Y0258286D01*
X0067128Y0258260D01*
X0066888Y0258228D01*
X0066649Y0258190D01*
X0066412Y0258147D01*
X0066175Y0258097D01*
X0065940Y0258042D01*
X0065706Y0257982D01*
X0065474Y0257915D01*
X0065243Y0257844D01*
X0065014Y0257766D01*
X0064787Y0257683D01*
X0064562Y0257595D01*
X0064339Y0257501D01*
X0064119Y0257402D01*
X0063901Y0257297D01*
X0063686Y0257188D01*
X0063473Y0257073D01*
X0063263Y0256953D01*
X0063057Y0256828D01*
X0062853Y0256698D01*
X0062652Y0256563D01*
X0062455Y0256423D01*
X0062261Y0256279D01*
X0062071Y0256130D01*
X0061885Y0255976D01*
X0061702Y0255818D01*
X0061523Y0255656D01*
X0061348Y0255489D01*
X0061177Y0255318D01*
X0061010Y0255143D01*
X0060848Y0254964D01*
X0060690Y0254781D01*
X0060536Y0254595D01*
X0060387Y0254405D01*
X0060243Y0254211D01*
X0060103Y0254014D01*
X0059968Y0253813D01*
X0059838Y0253609D01*
X0059713Y0253403D01*
X0059593Y0253193D01*
X0059478Y0252980D01*
X0059369Y0252765D01*
X0059264Y0252547D01*
X0059165Y0252327D01*
X0059071Y0252104D01*
X0058983Y0251879D01*
X0058900Y0251652D01*
X0058822Y0251423D01*
X0058751Y0251192D01*
X0058684Y0250960D01*
X0058624Y0250726D01*
X0058569Y0250491D01*
X0058519Y0250254D01*
X0058476Y0250017D01*
X0058438Y0249778D01*
X0058406Y0249538D01*
X0058380Y0249298D01*
X0058359Y0249057D01*
X0058345Y0248816D01*
X0058336Y0248575D01*
X0058333Y0248333D01*
X0058333Y0058333D01*
X0063333Y0055833D02*
X0063333Y0070833D01*
X0058333Y0058333D02*
X0058336Y0058091D01*
X0058345Y0057850D01*
X0058359Y0057609D01*
X0058380Y0057368D01*
X0058406Y0057128D01*
X0058438Y0056888D01*
X0058476Y0056649D01*
X0058519Y0056412D01*
X0058569Y0056175D01*
X0058624Y0055940D01*
X0058684Y0055706D01*
X0058751Y0055474D01*
X0058822Y0055243D01*
X0058900Y0055014D01*
X0058983Y0054787D01*
X0059071Y0054562D01*
X0059165Y0054339D01*
X0059264Y0054119D01*
X0059369Y0053901D01*
X0059478Y0053686D01*
X0059593Y0053473D01*
X0059713Y0053263D01*
X0059838Y0053057D01*
X0059968Y0052853D01*
X0060103Y0052652D01*
X0060243Y0052455D01*
X0060387Y0052261D01*
X0060536Y0052071D01*
X0060690Y0051885D01*
X0060848Y0051702D01*
X0061010Y0051523D01*
X0061177Y0051348D01*
X0061348Y0051177D01*
X0061523Y0051010D01*
X0061702Y0050848D01*
X0061885Y0050690D01*
X0062071Y0050536D01*
X0062261Y0050387D01*
X0062455Y0050243D01*
X0062652Y0050103D01*
X0062853Y0049968D01*
X0063057Y0049838D01*
X0063263Y0049713D01*
X0063473Y0049593D01*
X0063686Y0049478D01*
X0063901Y0049369D01*
X0064119Y0049264D01*
X0064339Y0049165D01*
X0064562Y0049071D01*
X0064787Y0048983D01*
X0065014Y0048900D01*
X0065243Y0048822D01*
X0065474Y0048751D01*
X0065706Y0048684D01*
X0065940Y0048624D01*
X0066175Y0048569D01*
X0066412Y0048519D01*
X0066649Y0048476D01*
X0066888Y0048438D01*
X0067128Y0048406D01*
X0067368Y0048380D01*
X0067609Y0048359D01*
X0067850Y0048345D01*
X0068091Y0048336D01*
X0068333Y0048333D01*
X0098333Y0055333D02*
X0100833Y0052833D01*
X0105833Y0052833D01*
X0108333Y0055333D01*
X0108333Y0060333D01*
X0110833Y0062833D01*
X0115833Y0062833D01*
X0118333Y0060333D01*
X0118333Y0055333D01*
X0115833Y0052833D01*
X0110833Y0052833D01*
X0108333Y0055333D01*
X0108333Y0060333D02*
X0105833Y0062833D01*
X0100833Y0062833D01*
X0098333Y0060333D01*
X0098333Y0055333D01*
X0118333Y0055333D02*
X0120833Y0052833D01*
X0125833Y0052833D01*
X0128333Y0055333D01*
X0128333Y0060333D01*
X0130833Y0062833D01*
X0135833Y0062833D01*
X0138333Y0060333D01*
X0138333Y0055333D01*
X0135833Y0052833D01*
X0130833Y0052833D01*
X0128333Y0055333D01*
X0128333Y0060333D02*
X0125833Y0062833D01*
X0120833Y0062833D01*
X0118333Y0060333D01*
X0138333Y0060333D02*
X0140833Y0062833D01*
X0145833Y0062833D01*
X0148333Y0060333D01*
X0148333Y0055333D01*
X0145833Y0052833D01*
X0140833Y0052833D01*
X0138333Y0055333D01*
X0148333Y0055333D02*
X0150833Y0052833D01*
X0155833Y0052833D01*
X0158333Y0055333D01*
X0158333Y0060333D01*
X0155833Y0062833D01*
X0150833Y0062833D01*
X0148333Y0060333D01*
X0168333Y0060833D02*
X0168333Y0055833D01*
X0170833Y0053333D01*
X0175833Y0053333D01*
X0178333Y0055833D01*
X0180833Y0053333D01*
X0185833Y0053333D01*
X0188333Y0055833D01*
X0190833Y0053333D01*
X0195833Y0053333D01*
X0198333Y0055833D01*
X0200833Y0053333D01*
X0205833Y0053333D01*
X0208333Y0055833D01*
X0210833Y0053333D01*
X0215833Y0053333D01*
X0218333Y0055833D01*
X0220833Y0053333D01*
X0225833Y0053333D01*
X0228333Y0055833D01*
X0230833Y0053333D01*
X0235833Y0053333D01*
X0238333Y0055833D01*
X0240833Y0053333D01*
X0245833Y0053333D01*
X0248333Y0055833D01*
X0248333Y0060833D01*
X0245833Y0063333D01*
X0240833Y0063333D01*
X0238333Y0060833D01*
X0235833Y0063333D01*
X0230833Y0063333D01*
X0228333Y0060833D01*
X0225833Y0063333D01*
X0220833Y0063333D01*
X0218333Y0060833D01*
X0215833Y0063333D01*
X0210833Y0063333D01*
X0208333Y0060833D01*
X0205833Y0063333D01*
X0200833Y0063333D01*
X0198333Y0060833D01*
X0195833Y0063333D01*
X0190833Y0063333D01*
X0188333Y0060833D01*
X0185833Y0063333D01*
X0180833Y0063333D01*
X0178333Y0060833D01*
X0175833Y0063333D01*
X0170833Y0063333D01*
X0168333Y0060833D01*
X0167543Y0097233D02*
X0165441Y0097233D01*
X0165441Y0101437D01*
X0167543Y0101437D01*
X0168244Y0100736D01*
X0168244Y0097934D01*
X0167543Y0097233D01*
X0163640Y0097233D02*
X0163640Y0101437D01*
X0160837Y0101437D02*
X0163640Y0097233D01*
X0160837Y0097233D02*
X0160837Y0101437D01*
X0159036Y0100736D02*
X0158335Y0101437D01*
X0156934Y0101437D01*
X0156233Y0100736D01*
X0156233Y0097934D01*
X0156934Y0097233D01*
X0158335Y0097233D01*
X0159036Y0097934D01*
X0159036Y0099335D01*
X0157635Y0099335D01*
X0160726Y0155233D02*
X0160025Y0155934D01*
X0160726Y0155233D02*
X0162127Y0155233D01*
X0162828Y0155934D01*
X0162828Y0157335D01*
X0162127Y0158036D01*
X0161427Y0158036D01*
X0160025Y0157335D01*
X0160025Y0159437D01*
X0162828Y0159437D01*
X0164629Y0159437D02*
X0164629Y0156635D01*
X0166031Y0155233D01*
X0167432Y0156635D01*
X0167432Y0159437D01*
X0158224Y0157335D02*
X0155422Y0157335D01*
X0156823Y0158736D02*
X0156823Y0155934D01*
X0193333Y0195833D02*
X0198333Y0200833D01*
X0193333Y0205833D01*
X0193333Y0203333D01*
X0188333Y0203333D01*
X0188333Y0198333D01*
X0193333Y0198333D01*
X0193333Y0195833D01*
X0193333Y0196058D02*
X0193558Y0196058D01*
X0193333Y0196856D02*
X0194356Y0196856D01*
X0195155Y0197655D02*
X0193333Y0197655D01*
X0195953Y0198453D02*
X0188333Y0198453D01*
X0188333Y0199252D02*
X0196752Y0199252D01*
X0197550Y0200050D02*
X0188333Y0200050D01*
X0188333Y0200849D02*
X0198318Y0200849D01*
X0197519Y0201648D02*
X0188333Y0201648D01*
X0188333Y0202446D02*
X0196721Y0202446D01*
X0195922Y0203245D02*
X0188333Y0203245D01*
X0187775Y0206233D02*
X0187075Y0206934D01*
X0187075Y0208335D01*
X0187775Y0209036D01*
X0189176Y0209036D01*
X0189877Y0208335D01*
X0189877Y0206934D01*
X0189176Y0206233D01*
X0187775Y0206233D01*
X0185273Y0206233D02*
X0185273Y0208335D01*
X0184572Y0209036D01*
X0182471Y0209036D01*
X0182471Y0206233D01*
X0180669Y0206233D02*
X0178567Y0206233D01*
X0177867Y0206934D01*
X0178567Y0207635D01*
X0180669Y0207635D01*
X0180669Y0208335D02*
X0180669Y0206233D01*
X0180669Y0208335D02*
X0179968Y0209036D01*
X0178567Y0209036D01*
X0176065Y0210437D02*
X0176065Y0206233D01*
X0173263Y0210437D01*
X0173263Y0206233D01*
X0166857Y0206934D02*
X0166857Y0208335D01*
X0166157Y0209036D01*
X0164755Y0209036D01*
X0164055Y0208335D01*
X0164055Y0206934D01*
X0164755Y0206233D01*
X0166157Y0206233D01*
X0166857Y0206934D01*
X0162253Y0206233D02*
X0162253Y0208335D01*
X0161553Y0209036D01*
X0159451Y0209036D01*
X0159451Y0206233D01*
X0157783Y0206233D02*
X0156382Y0206233D01*
X0157082Y0206233D02*
X0157082Y0209036D01*
X0156382Y0209036D01*
X0157082Y0210437D02*
X0157082Y0211138D01*
X0154580Y0209036D02*
X0154580Y0206233D01*
X0152478Y0206233D01*
X0151778Y0206934D01*
X0151778Y0209036D01*
X0149976Y0209036D02*
X0147874Y0209036D01*
X0147174Y0208335D01*
X0147174Y0206934D01*
X0147874Y0206233D01*
X0149976Y0206233D01*
X0149976Y0210437D01*
X0145439Y0209036D02*
X0144738Y0209036D01*
X0143337Y0207635D01*
X0143337Y0209036D02*
X0143337Y0206233D01*
X0141536Y0206233D02*
X0141536Y0209036D01*
X0140135Y0210437D01*
X0138733Y0209036D01*
X0138733Y0206233D01*
X0138733Y0208335D02*
X0141536Y0208335D01*
X0150833Y0243333D02*
X0148333Y0245833D01*
X0148333Y0250833D01*
X0150833Y0253333D01*
X0155833Y0253333D01*
X0158333Y0250833D01*
X0160833Y0253333D01*
X0165833Y0253333D01*
X0168333Y0250833D01*
X0170833Y0253333D01*
X0175833Y0253333D01*
X0178333Y0250833D01*
X0180833Y0253333D01*
X0185833Y0253333D01*
X0188333Y0250833D01*
X0190833Y0253333D01*
X0195833Y0253333D01*
X0198333Y0250833D01*
X0200833Y0253333D01*
X0205833Y0253333D01*
X0208333Y0250833D01*
X0210833Y0253333D01*
X0215833Y0253333D01*
X0218333Y0250833D01*
X0220833Y0253333D01*
X0225833Y0253333D01*
X0228333Y0250833D01*
X0228333Y0245833D01*
X0225833Y0243333D01*
X0220833Y0243333D01*
X0218333Y0245833D01*
X0215833Y0243333D01*
X0210833Y0243333D01*
X0208333Y0245833D01*
X0205833Y0243333D01*
X0200833Y0243333D01*
X0198333Y0245833D01*
X0195833Y0243333D01*
X0190833Y0243333D01*
X0188333Y0245833D01*
X0185833Y0243333D01*
X0180833Y0243333D01*
X0178333Y0245833D01*
X0175833Y0243333D01*
X0170833Y0243333D01*
X0168333Y0245833D01*
X0165833Y0243333D01*
X0160833Y0243333D01*
X0158333Y0245833D01*
X0155833Y0243333D01*
X0150833Y0243333D01*
X0193333Y0205640D02*
X0193527Y0205640D01*
X0193333Y0204842D02*
X0194325Y0204842D01*
X0195124Y0204043D02*
X0193333Y0204043D01*
X0245733Y0204389D02*
X0248536Y0204389D01*
X0248536Y0202287D01*
X0247835Y0201586D01*
X0245733Y0201586D01*
X0246434Y0199084D02*
X0245733Y0198384D01*
X0246434Y0199084D02*
X0249236Y0199084D01*
X0248536Y0198384D02*
X0248536Y0199785D01*
X0253233Y0199785D02*
X0253233Y0198384D01*
X0253233Y0199084D02*
X0256036Y0199084D01*
X0256036Y0199785D01*
X0257437Y0199084D02*
X0258138Y0199084D01*
X0256036Y0196716D02*
X0256036Y0194614D01*
X0255335Y0193913D01*
X0253233Y0193913D01*
X0253934Y0192112D02*
X0253233Y0191411D01*
X0253233Y0190010D01*
X0253934Y0189309D01*
X0255335Y0189309D01*
X0256036Y0190010D01*
X0256036Y0191411D01*
X0255335Y0192112D01*
X0253934Y0192112D01*
X0249937Y0191411D02*
X0249236Y0192112D01*
X0248536Y0192112D01*
X0247835Y0191411D01*
X0247835Y0190010D01*
X0247135Y0189309D01*
X0246434Y0189309D01*
X0245733Y0190010D01*
X0245733Y0191411D01*
X0246434Y0192112D01*
X0249937Y0191411D02*
X0249937Y0190010D01*
X0249236Y0189309D01*
X0248536Y0187508D02*
X0248536Y0186807D01*
X0245733Y0186807D01*
X0245733Y0186107D02*
X0245733Y0187508D01*
X0246434Y0184439D02*
X0247835Y0184439D01*
X0248536Y0183738D01*
X0248536Y0181636D01*
X0249937Y0181636D02*
X0245733Y0181636D01*
X0245733Y0183738D01*
X0246434Y0184439D01*
X0249937Y0186807D02*
X0250638Y0186807D01*
X0253233Y0182904D02*
X0257437Y0182904D01*
X0256036Y0181503D01*
X0257437Y0180102D01*
X0253233Y0180102D01*
X0253934Y0178300D02*
X0255335Y0178300D01*
X0256036Y0177599D01*
X0256036Y0176198D01*
X0255335Y0175498D01*
X0254635Y0175498D01*
X0254635Y0178300D01*
X0253934Y0178300D02*
X0253233Y0177599D01*
X0253233Y0176198D01*
X0253934Y0173696D02*
X0253233Y0172995D01*
X0253233Y0170894D01*
X0252533Y0170894D02*
X0256036Y0170894D01*
X0256036Y0172995D01*
X0255335Y0173696D01*
X0253934Y0173696D01*
X0251832Y0172295D02*
X0251832Y0171594D01*
X0252533Y0170894D01*
X0253934Y0169092D02*
X0254635Y0168392D01*
X0254635Y0166290D01*
X0255335Y0166290D02*
X0253233Y0166290D01*
X0253233Y0168392D01*
X0253934Y0169092D01*
X0256036Y0168392D02*
X0256036Y0166990D01*
X0255335Y0166290D01*
X0247835Y0177032D02*
X0247135Y0177032D01*
X0247135Y0179835D01*
X0247835Y0179835D02*
X0248536Y0179134D01*
X0248536Y0177733D01*
X0247835Y0177032D01*
X0245733Y0177733D02*
X0245733Y0179134D01*
X0246434Y0179835D01*
X0247835Y0179835D01*
X0263333Y0188333D02*
X0268333Y0188333D01*
X0268333Y0185833D01*
X0273333Y0190833D01*
X0268333Y0195833D01*
X0268333Y0193333D01*
X0263333Y0193333D01*
X0263333Y0188333D01*
X0263333Y0188871D02*
X0271371Y0188871D01*
X0270573Y0188073D02*
X0268333Y0188073D01*
X0268333Y0187274D02*
X0269774Y0187274D01*
X0268976Y0186476D02*
X0268333Y0186476D01*
X0272170Y0189670D02*
X0263333Y0189670D01*
X0263333Y0190468D02*
X0272968Y0190468D01*
X0272900Y0191267D02*
X0263333Y0191267D01*
X0263333Y0192065D02*
X0272101Y0192065D01*
X0271303Y0192864D02*
X0263333Y0192864D01*
X0268333Y0193662D02*
X0270504Y0193662D01*
X0269706Y0194461D02*
X0268333Y0194461D01*
X0268333Y0195259D02*
X0268907Y0195259D01*
X0256036Y0196716D02*
X0253233Y0196716D01*
X0253233Y0201586D02*
X0256036Y0201586D01*
X0253233Y0201586D02*
X0253233Y0203688D01*
X0253934Y0204389D01*
X0256036Y0204389D01*
X0256036Y0206190D02*
X0256036Y0208292D01*
X0255335Y0208993D01*
X0253934Y0208993D01*
X0253233Y0208292D01*
X0253233Y0206190D01*
X0257437Y0206190D01*
X0256036Y0210728D02*
X0256036Y0211428D01*
X0254635Y0212829D01*
X0256036Y0212829D02*
X0253233Y0212829D01*
X0253233Y0214631D02*
X0256036Y0214631D01*
X0257437Y0216032D01*
X0256036Y0217433D01*
X0253233Y0217433D01*
X0255335Y0217433D02*
X0255335Y0214631D01*
X0249937Y0214631D02*
X0249937Y0217433D01*
X0245733Y0217433D01*
X0247835Y0217433D02*
X0247835Y0216032D01*
X0247135Y0212829D02*
X0248536Y0211428D01*
X0248536Y0210728D01*
X0247835Y0208993D02*
X0246434Y0208993D01*
X0245733Y0208292D01*
X0245733Y0206891D01*
X0246434Y0206190D01*
X0247835Y0206190D01*
X0248536Y0206891D01*
X0248536Y0208292D01*
X0247835Y0208993D01*
X0248536Y0212829D02*
X0245733Y0212829D01*
X0245833Y0243333D02*
X0240833Y0243333D01*
X0238333Y0245833D01*
X0238333Y0250833D01*
X0240833Y0253333D01*
X0245833Y0253333D01*
X0248333Y0250833D01*
X0250833Y0253333D01*
X0255833Y0253333D01*
X0258333Y0250833D01*
X0260833Y0253333D01*
X0265833Y0253333D01*
X0268333Y0250833D01*
X0270833Y0253333D01*
X0275833Y0253333D01*
X0278333Y0250833D01*
X0280833Y0253333D01*
X0285833Y0253333D01*
X0288333Y0250833D01*
X0290833Y0253333D01*
X0295833Y0253333D01*
X0298333Y0250833D01*
X0300833Y0253333D01*
X0305833Y0253333D01*
X0308333Y0250833D01*
X0310833Y0253333D01*
X0315833Y0253333D01*
X0318333Y0250833D01*
X0318333Y0245833D01*
X0315833Y0243333D01*
X0310833Y0243333D01*
X0308333Y0245833D01*
X0305833Y0243333D01*
X0300833Y0243333D01*
X0298333Y0245833D01*
X0295833Y0243333D01*
X0290833Y0243333D01*
X0288333Y0245833D01*
X0285833Y0243333D01*
X0280833Y0243333D01*
X0278333Y0245833D01*
X0275833Y0243333D01*
X0270833Y0243333D01*
X0268333Y0245833D01*
X0265833Y0243333D01*
X0260833Y0243333D01*
X0258333Y0245833D01*
X0255833Y0243333D01*
X0250833Y0243333D01*
X0248333Y0245833D01*
X0245833Y0243333D01*
X0290233Y0215437D02*
X0290233Y0211233D01*
X0293036Y0211233D01*
X0294837Y0211233D02*
X0297640Y0211233D01*
X0299441Y0211233D02*
X0299441Y0215437D01*
X0301543Y0215437D01*
X0302244Y0214736D01*
X0302244Y0211934D01*
X0301543Y0211233D01*
X0299441Y0211233D01*
X0296238Y0213335D02*
X0294837Y0213335D01*
X0294837Y0215437D02*
X0294837Y0211233D01*
X0294837Y0215437D02*
X0297640Y0215437D01*
X0304045Y0210533D02*
X0306847Y0210533D01*
X0308649Y0211934D02*
X0309350Y0211233D01*
X0310751Y0211233D01*
X0311451Y0211934D01*
X0311451Y0212635D01*
X0310751Y0213335D01*
X0309350Y0213335D01*
X0308649Y0214036D01*
X0308649Y0214736D01*
X0309350Y0215437D01*
X0310751Y0215437D01*
X0311451Y0214736D01*
X0313253Y0215437D02*
X0316055Y0215437D01*
X0314654Y0215437D02*
X0314654Y0211233D01*
X0317857Y0211233D02*
X0317857Y0215437D01*
X0319959Y0215437D01*
X0320659Y0214736D01*
X0320659Y0213335D01*
X0319959Y0212635D01*
X0317857Y0212635D01*
X0319258Y0212635D02*
X0320659Y0211233D01*
X0322461Y0211233D02*
X0323862Y0211233D01*
X0323161Y0211233D02*
X0323161Y0215437D01*
X0322461Y0215437D02*
X0323862Y0215437D01*
X0325530Y0215437D02*
X0327632Y0215437D01*
X0328332Y0214736D01*
X0328332Y0213335D01*
X0327632Y0212635D01*
X0325530Y0212635D01*
X0325530Y0211233D02*
X0325530Y0215437D01*
X0325407Y0220733D02*
X0325407Y0224937D01*
X0327508Y0224937D01*
X0328209Y0224236D01*
X0328209Y0222835D01*
X0327508Y0222135D01*
X0325407Y0222135D01*
X0326808Y0222135D02*
X0328209Y0220733D01*
X0323738Y0220733D02*
X0322337Y0220733D01*
X0323038Y0220733D02*
X0323038Y0224937D01*
X0323738Y0224937D02*
X0322337Y0224937D01*
X0320536Y0224236D02*
X0319835Y0224937D01*
X0317733Y0224937D01*
X0317733Y0220733D01*
X0317733Y0222135D02*
X0319835Y0222135D01*
X0320536Y0222835D01*
X0320536Y0224236D01*
X0320837Y0230733D02*
X0320837Y0234937D01*
X0323640Y0230733D01*
X0323640Y0234937D01*
X0325441Y0234937D02*
X0327543Y0234937D01*
X0328244Y0234236D01*
X0328244Y0231434D01*
X0327543Y0230733D01*
X0325441Y0230733D01*
X0325441Y0234937D01*
X0319036Y0234236D02*
X0318335Y0234937D01*
X0316934Y0234937D01*
X0316233Y0234236D01*
X0316233Y0231434D01*
X0316934Y0230733D01*
X0318335Y0230733D01*
X0319036Y0231434D01*
X0319036Y0232835D01*
X0317635Y0232835D01*
X0321434Y0240733D02*
X0320733Y0241434D01*
X0321434Y0240733D02*
X0322835Y0240733D01*
X0323536Y0241434D01*
X0323536Y0242835D01*
X0322835Y0243536D01*
X0322135Y0243536D01*
X0320733Y0242835D01*
X0320733Y0244937D01*
X0323536Y0244937D01*
X0325337Y0244937D02*
X0325337Y0242135D01*
X0326738Y0240733D01*
X0328140Y0242135D01*
X0328140Y0244937D01*
X0328417Y0205437D02*
X0325614Y0201233D01*
X0323813Y0201233D02*
X0322412Y0202635D01*
X0323112Y0202635D02*
X0321010Y0202635D01*
X0321010Y0201233D02*
X0321010Y0205437D01*
X0323112Y0205437D01*
X0323813Y0204736D01*
X0323813Y0203335D01*
X0323112Y0202635D01*
X0325614Y0205437D02*
X0328417Y0201233D01*
X0328417Y0195437D02*
X0325614Y0191233D01*
X0328417Y0191233D02*
X0325614Y0195437D01*
X0323813Y0195437D02*
X0321010Y0195437D01*
X0322412Y0195437D02*
X0322412Y0191233D01*
X0319209Y0190533D02*
X0316407Y0190533D01*
X0314605Y0191233D02*
X0313204Y0192635D01*
X0313904Y0192635D02*
X0311803Y0192635D01*
X0311803Y0191233D02*
X0311803Y0195437D01*
X0313904Y0195437D01*
X0314605Y0194736D01*
X0314605Y0193335D01*
X0313904Y0192635D01*
X0310135Y0191233D02*
X0308733Y0191233D01*
X0309434Y0191233D02*
X0309434Y0195437D01*
X0308733Y0195437D02*
X0310135Y0195437D01*
X0310135Y0201233D02*
X0308733Y0201233D01*
X0309434Y0201233D02*
X0309434Y0205437D01*
X0308733Y0205437D02*
X0310135Y0205437D01*
X0311803Y0205437D02*
X0313904Y0205437D01*
X0314605Y0204736D01*
X0314605Y0203335D01*
X0313904Y0202635D01*
X0311803Y0202635D01*
X0313204Y0202635D02*
X0314605Y0201233D01*
X0316407Y0200533D02*
X0319209Y0200533D01*
X0311803Y0201233D02*
X0311803Y0205437D01*
X0309043Y0185437D02*
X0306941Y0185437D01*
X0306941Y0181233D01*
X0309043Y0181233D01*
X0309744Y0181934D01*
X0309744Y0184736D01*
X0309043Y0185437D01*
X0305140Y0185437D02*
X0302337Y0185437D01*
X0302337Y0181233D01*
X0305140Y0181233D01*
X0303738Y0183335D02*
X0302337Y0183335D01*
X0300536Y0183335D02*
X0299835Y0182635D01*
X0297733Y0182635D01*
X0299135Y0182635D02*
X0300536Y0181233D01*
X0300536Y0183335D02*
X0300536Y0184736D01*
X0299835Y0185437D01*
X0297733Y0185437D01*
X0297733Y0181233D01*
X0297934Y0175437D02*
X0297934Y0171233D01*
X0297233Y0171233D02*
X0298635Y0171233D01*
X0300303Y0171233D02*
X0300303Y0175437D01*
X0302404Y0175437D01*
X0303105Y0174736D01*
X0303105Y0173335D01*
X0302404Y0172635D01*
X0300303Y0172635D01*
X0301704Y0172635D02*
X0303105Y0171233D01*
X0304907Y0170533D02*
X0307709Y0170533D01*
X0309510Y0171233D02*
X0310912Y0171233D01*
X0310211Y0171233D02*
X0310211Y0175437D01*
X0309510Y0175437D02*
X0310912Y0175437D01*
X0312580Y0175437D02*
X0315382Y0171233D01*
X0315382Y0175437D01*
X0317184Y0175437D02*
X0319285Y0175437D01*
X0319986Y0174736D01*
X0319986Y0173335D01*
X0319285Y0172635D01*
X0317184Y0172635D01*
X0317184Y0171233D02*
X0317184Y0175437D01*
X0321788Y0175437D02*
X0321788Y0171934D01*
X0322488Y0171233D01*
X0323889Y0171233D01*
X0324590Y0171934D01*
X0324590Y0175437D01*
X0326392Y0175437D02*
X0329194Y0175437D01*
X0327793Y0175437D02*
X0327793Y0171233D01*
X0327459Y0181233D02*
X0325357Y0181233D01*
X0325357Y0185437D01*
X0327459Y0185437D01*
X0328159Y0184736D01*
X0328159Y0181934D01*
X0327459Y0181233D01*
X0323555Y0181233D02*
X0320753Y0181233D01*
X0320753Y0185437D01*
X0323555Y0185437D01*
X0322154Y0183335D02*
X0320753Y0183335D01*
X0318951Y0181233D02*
X0316149Y0181233D01*
X0316149Y0185437D01*
X0314347Y0180533D02*
X0311545Y0180533D01*
X0312580Y0175437D02*
X0312580Y0171233D01*
X0298635Y0175437D02*
X0297233Y0175437D01*
X0298333Y0153333D02*
X0293333Y0153333D01*
X0293333Y0148333D01*
X0290833Y0148333D01*
X0295833Y0143333D01*
X0300833Y0148333D01*
X0298333Y0148333D01*
X0298333Y0153333D01*
X0298333Y0152938D02*
X0293333Y0152938D01*
X0293333Y0152140D02*
X0298333Y0152140D01*
X0298333Y0151341D02*
X0293333Y0151341D01*
X0293333Y0150543D02*
X0298333Y0150543D01*
X0298333Y0149744D02*
X0293333Y0149744D01*
X0293333Y0148946D02*
X0298333Y0148946D01*
X0299849Y0147349D02*
X0291818Y0147349D01*
X0291019Y0148147D02*
X0300647Y0148147D01*
X0299050Y0146550D02*
X0292616Y0146550D01*
X0293415Y0145752D02*
X0298252Y0145752D01*
X0297453Y0144953D02*
X0294213Y0144953D01*
X0295012Y0144155D02*
X0296655Y0144155D01*
X0295856Y0143356D02*
X0295810Y0143356D01*
X0250833Y0143356D02*
X0245833Y0143356D01*
X0245833Y0143333D02*
X0250833Y0143333D01*
X0250833Y0148333D01*
X0248333Y0150833D01*
X0238333Y0150833D01*
X0238333Y0153333D01*
X0233333Y0148333D01*
X0238333Y0143333D01*
X0238333Y0145833D01*
X0245833Y0145833D01*
X0245833Y0143333D01*
X0245833Y0144155D02*
X0250833Y0144155D01*
X0250833Y0144953D02*
X0245833Y0144953D01*
X0245833Y0145752D02*
X0250833Y0145752D01*
X0250833Y0146550D02*
X0235116Y0146550D01*
X0234318Y0147349D02*
X0250833Y0147349D01*
X0250833Y0148147D02*
X0233519Y0148147D01*
X0233946Y0148946D02*
X0250221Y0148946D01*
X0249422Y0149744D02*
X0234744Y0149744D01*
X0235543Y0150543D02*
X0248624Y0150543D01*
X0238333Y0151341D02*
X0236341Y0151341D01*
X0237140Y0152140D02*
X0238333Y0152140D01*
X0238333Y0152938D02*
X0237938Y0152938D01*
X0238333Y0145752D02*
X0235915Y0145752D01*
X0236713Y0144953D02*
X0238333Y0144953D01*
X0238333Y0144155D02*
X0237512Y0144155D01*
X0238310Y0143356D02*
X0238333Y0143356D01*
X0317733Y0102236D02*
X0317733Y0101536D01*
X0318434Y0100835D01*
X0319835Y0100835D01*
X0320536Y0100135D01*
X0320536Y0099434D01*
X0319835Y0098733D01*
X0318434Y0098733D01*
X0317733Y0099434D01*
X0317733Y0102236D02*
X0318434Y0102937D01*
X0319835Y0102937D01*
X0320536Y0102236D01*
X0322337Y0102937D02*
X0322337Y0098733D01*
X0323738Y0100135D01*
X0325140Y0098733D01*
X0325140Y0102937D01*
X0326941Y0101536D02*
X0328342Y0102937D01*
X0328342Y0098733D01*
X0326941Y0098733D02*
X0329744Y0098733D01*
X0328543Y0092937D02*
X0327142Y0092937D01*
X0326441Y0092236D01*
X0324640Y0092937D02*
X0324640Y0088733D01*
X0323238Y0090135D01*
X0321837Y0088733D01*
X0321837Y0092937D01*
X0320036Y0092236D02*
X0319335Y0092937D01*
X0317934Y0092937D01*
X0317233Y0092236D01*
X0317233Y0091536D01*
X0317934Y0090835D01*
X0319335Y0090835D01*
X0320036Y0090135D01*
X0320036Y0089434D01*
X0319335Y0088733D01*
X0317934Y0088733D01*
X0317233Y0089434D01*
X0317934Y0082937D02*
X0317233Y0082236D01*
X0317233Y0081536D01*
X0317934Y0080835D01*
X0319335Y0080835D01*
X0320036Y0080135D01*
X0320036Y0079434D01*
X0319335Y0078733D01*
X0317934Y0078733D01*
X0317233Y0079434D01*
X0317934Y0082937D02*
X0319335Y0082937D01*
X0320036Y0082236D01*
X0321837Y0082937D02*
X0321837Y0078733D01*
X0323238Y0080135D01*
X0324640Y0078733D01*
X0324640Y0082937D01*
X0326441Y0080835D02*
X0329244Y0080835D01*
X0328543Y0078733D02*
X0328543Y0082937D01*
X0326441Y0080835D01*
X0326441Y0088733D02*
X0329244Y0091536D01*
X0329244Y0092236D01*
X0328543Y0092937D01*
X0329244Y0088733D02*
X0326441Y0088733D01*
X0327142Y0072937D02*
X0326441Y0072236D01*
X0326441Y0071536D01*
X0327142Y0070835D01*
X0328543Y0070835D01*
X0329244Y0070135D01*
X0329244Y0069434D01*
X0328543Y0068733D01*
X0327142Y0068733D01*
X0326441Y0069434D01*
X0326441Y0070135D01*
X0327142Y0070835D01*
X0328543Y0070835D02*
X0329244Y0071536D01*
X0329244Y0072236D01*
X0328543Y0072937D01*
X0327142Y0072937D01*
X0324640Y0072937D02*
X0324640Y0068733D01*
X0323238Y0070135D01*
X0321837Y0068733D01*
X0321837Y0072937D01*
X0320036Y0072236D02*
X0319335Y0072937D01*
X0317934Y0072937D01*
X0317233Y0072236D01*
X0317233Y0071536D01*
X0317934Y0070835D01*
X0319335Y0070835D01*
X0320036Y0070135D01*
X0320036Y0069434D01*
X0319335Y0068733D01*
X0317934Y0068733D01*
X0317233Y0069434D01*
D11*
X0260773Y0079633D02*
X0260773Y0081902D01*
X0259639Y0083036D01*
X0258504Y0081902D01*
X0258504Y0079633D01*
X0258504Y0081335D02*
X0260773Y0081335D01*
X0257090Y0083036D02*
X0254821Y0083036D01*
X0255956Y0083036D02*
X0255956Y0079633D01*
X0253407Y0079633D02*
X0253407Y0081902D01*
X0252272Y0083036D01*
X0251138Y0081902D01*
X0251138Y0079633D01*
X0249724Y0080200D02*
X0249724Y0082469D01*
X0249156Y0083036D01*
X0247455Y0083036D01*
X0247455Y0079633D01*
X0249156Y0079633D01*
X0249724Y0080200D01*
X0251138Y0081335D02*
X0253407Y0081335D01*
X0246041Y0079066D02*
X0243772Y0079066D01*
X0242357Y0079633D02*
X0241223Y0080768D01*
X0241790Y0080768D02*
X0240089Y0080768D01*
X0240089Y0079633D02*
X0240089Y0083036D01*
X0241790Y0083036D01*
X0242357Y0082469D01*
X0242357Y0081335D01*
X0241790Y0080768D01*
X0238768Y0079633D02*
X0237633Y0079633D01*
X0238200Y0079633D02*
X0238200Y0083036D01*
X0237633Y0083036D02*
X0238768Y0083036D01*
X0242700Y0092225D02*
X0243268Y0092793D01*
X0243268Y0093927D01*
X0243835Y0094494D01*
X0244402Y0093927D01*
X0244402Y0092225D01*
X0242700Y0092225D02*
X0242133Y0092793D01*
X0242133Y0094494D01*
X0242133Y0095909D02*
X0242133Y0097610D01*
X0242700Y0098177D01*
X0243835Y0098177D01*
X0244402Y0097610D01*
X0244402Y0095909D01*
X0245536Y0095909D02*
X0242133Y0095909D01*
X0238402Y0095295D02*
X0238402Y0096996D01*
X0237835Y0097563D01*
X0237268Y0096996D01*
X0237268Y0095862D01*
X0236700Y0095295D01*
X0236133Y0095862D01*
X0236133Y0097563D01*
X0236133Y0098884D02*
X0236700Y0099452D01*
X0238969Y0099452D01*
X0238402Y0100019D02*
X0238402Y0098884D01*
X0238402Y0101907D02*
X0236133Y0101907D01*
X0236133Y0102474D02*
X0236133Y0101340D01*
X0238402Y0101907D02*
X0238402Y0102474D01*
X0239536Y0101907D02*
X0240103Y0101907D01*
X0242133Y0101293D02*
X0242133Y0100159D01*
X0242133Y0101293D02*
X0242700Y0101860D01*
X0243835Y0101860D01*
X0244402Y0101293D01*
X0244402Y0100159D01*
X0243835Y0099592D01*
X0243268Y0099592D01*
X0243268Y0101860D01*
X0242133Y0103275D02*
X0242133Y0105543D01*
X0245536Y0105543D01*
X0248133Y0109367D02*
X0248133Y0110501D01*
X0248700Y0111068D01*
X0249835Y0111068D01*
X0250402Y0110501D01*
X0250402Y0109367D01*
X0249835Y0108800D01*
X0249268Y0108800D01*
X0249268Y0111068D01*
X0249835Y0112483D02*
X0248133Y0112483D01*
X0249835Y0112483D02*
X0250402Y0113050D01*
X0250402Y0114184D01*
X0249835Y0114751D01*
X0250402Y0116072D02*
X0250402Y0117207D01*
X0250969Y0116640D02*
X0248700Y0116640D01*
X0248133Y0116072D01*
X0248133Y0114751D02*
X0251536Y0114751D01*
X0245536Y0110548D02*
X0244969Y0111115D01*
X0242133Y0111115D01*
X0243835Y0111682D02*
X0243835Y0110548D01*
X0243835Y0113097D02*
X0244402Y0113664D01*
X0244402Y0114798D01*
X0243835Y0115365D01*
X0242700Y0115365D01*
X0242133Y0114798D01*
X0242133Y0113664D01*
X0242700Y0113097D01*
X0243835Y0113097D01*
X0238402Y0114938D02*
X0238402Y0116640D01*
X0237835Y0117207D01*
X0237268Y0116640D01*
X0237268Y0115505D01*
X0236700Y0114938D01*
X0236133Y0115505D01*
X0236133Y0117207D01*
X0237268Y0118621D02*
X0237268Y0120890D01*
X0237835Y0120890D02*
X0238402Y0120323D01*
X0238402Y0119188D01*
X0237835Y0118621D01*
X0237268Y0118621D01*
X0236133Y0119188D02*
X0236133Y0120323D01*
X0236700Y0120890D01*
X0237835Y0120890D01*
X0238402Y0122778D02*
X0236133Y0122778D01*
X0236133Y0123345D02*
X0236133Y0122211D01*
X0238402Y0122778D02*
X0238402Y0123345D01*
X0239536Y0122778D02*
X0240103Y0122778D01*
X0242133Y0122118D02*
X0244402Y0122118D01*
X0243268Y0122118D02*
X0244402Y0120983D01*
X0244402Y0120416D01*
X0243835Y0123532D02*
X0243268Y0123532D01*
X0243268Y0125801D01*
X0243835Y0125801D02*
X0244402Y0125234D01*
X0244402Y0124099D01*
X0243835Y0123532D01*
X0242133Y0124099D02*
X0242133Y0125234D01*
X0242700Y0125801D01*
X0243835Y0125801D01*
X0243835Y0127215D02*
X0244402Y0127782D01*
X0244402Y0129484D01*
X0245536Y0129484D02*
X0242133Y0129484D01*
X0242133Y0127782D01*
X0242700Y0127215D01*
X0243835Y0127215D01*
X0243835Y0130898D02*
X0242133Y0130898D01*
X0242133Y0132033D02*
X0243835Y0132033D01*
X0244402Y0131466D01*
X0243835Y0130898D01*
X0243835Y0132033D02*
X0244402Y0132600D01*
X0244402Y0133167D01*
X0242133Y0133167D01*
X0242133Y0134582D02*
X0244402Y0134582D01*
X0244402Y0136850D02*
X0242700Y0136850D01*
X0242133Y0136283D01*
X0242133Y0134582D01*
X0242133Y0138265D02*
X0243835Y0138265D01*
X0244402Y0138832D01*
X0244402Y0140533D01*
X0242133Y0140533D01*
X0240103Y0139966D02*
X0239536Y0139966D01*
X0238402Y0139966D02*
X0236133Y0139966D01*
X0236133Y0140533D02*
X0236133Y0139399D01*
X0236133Y0138078D02*
X0238402Y0138078D01*
X0238402Y0136376D01*
X0237835Y0135809D01*
X0236133Y0135809D01*
X0238402Y0139966D02*
X0238402Y0140533D01*
X0248133Y0139966D02*
X0248133Y0138832D01*
X0248700Y0138265D01*
X0249268Y0138265D01*
X0249835Y0138832D01*
X0249835Y0139966D01*
X0250402Y0140533D01*
X0250969Y0140533D01*
X0251536Y0139966D01*
X0251536Y0138832D01*
X0250969Y0138265D01*
X0249835Y0136850D02*
X0250402Y0136283D01*
X0250402Y0135149D01*
X0249835Y0134582D01*
X0249268Y0134582D01*
X0249268Y0136850D01*
X0249835Y0136850D02*
X0248700Y0136850D01*
X0248133Y0136283D01*
X0248133Y0135149D01*
X0248133Y0133167D02*
X0248133Y0132033D01*
X0248133Y0132600D02*
X0251536Y0132600D01*
X0251536Y0133167D01*
X0249835Y0130712D02*
X0248700Y0130712D01*
X0248133Y0130144D01*
X0248133Y0129010D01*
X0249268Y0128443D02*
X0249268Y0130712D01*
X0249835Y0130712D02*
X0250402Y0130144D01*
X0250402Y0129010D01*
X0249835Y0128443D01*
X0249268Y0128443D01*
X0249835Y0127028D02*
X0248700Y0127028D01*
X0248133Y0126461D01*
X0248133Y0124760D01*
X0248700Y0122778D02*
X0248133Y0122211D01*
X0248700Y0122778D02*
X0250969Y0122778D01*
X0250402Y0123345D02*
X0250402Y0122211D01*
X0250402Y0124760D02*
X0250402Y0126461D01*
X0249835Y0127028D01*
X0239536Y0126461D02*
X0239536Y0125327D01*
X0238969Y0124760D01*
X0236700Y0127028D01*
X0236133Y0126461D01*
X0236133Y0125327D01*
X0236700Y0124760D01*
X0238969Y0124760D01*
X0239536Y0126461D02*
X0238969Y0127028D01*
X0236700Y0127028D01*
X0236700Y0128443D02*
X0236133Y0129010D01*
X0236133Y0130144D01*
X0236700Y0130712D01*
X0237835Y0130712D02*
X0238402Y0129577D01*
X0238402Y0129010D01*
X0237835Y0128443D01*
X0236700Y0128443D01*
X0237835Y0130712D02*
X0239536Y0130712D01*
X0239536Y0128443D01*
X0228333Y0115333D02*
X0228333Y0151333D01*
X0228331Y0151420D01*
X0228325Y0151507D01*
X0228316Y0151594D01*
X0228303Y0151680D01*
X0228286Y0151766D01*
X0228265Y0151851D01*
X0228240Y0151934D01*
X0228212Y0152017D01*
X0228181Y0152098D01*
X0228146Y0152178D01*
X0228107Y0152256D01*
X0228065Y0152333D01*
X0228020Y0152408D01*
X0227971Y0152480D01*
X0227920Y0152551D01*
X0227865Y0152619D01*
X0227808Y0152684D01*
X0227747Y0152747D01*
X0227684Y0152808D01*
X0227619Y0152865D01*
X0227551Y0152920D01*
X0227480Y0152971D01*
X0227408Y0153020D01*
X0227333Y0153065D01*
X0227256Y0153107D01*
X0227178Y0153146D01*
X0227098Y0153181D01*
X0227017Y0153212D01*
X0226934Y0153240D01*
X0226851Y0153265D01*
X0226766Y0153286D01*
X0226680Y0153303D01*
X0226594Y0153316D01*
X0226507Y0153325D01*
X0226420Y0153331D01*
X0226333Y0153333D01*
X0194333Y0153333D01*
X0188333Y0147333D01*
X0188333Y0115333D01*
X0188335Y0115246D01*
X0188341Y0115159D01*
X0188350Y0115072D01*
X0188363Y0114986D01*
X0188380Y0114900D01*
X0188401Y0114815D01*
X0188426Y0114732D01*
X0188454Y0114649D01*
X0188485Y0114568D01*
X0188520Y0114488D01*
X0188559Y0114410D01*
X0188601Y0114333D01*
X0188646Y0114258D01*
X0188695Y0114186D01*
X0188746Y0114115D01*
X0188801Y0114047D01*
X0188858Y0113982D01*
X0188919Y0113919D01*
X0188982Y0113858D01*
X0189047Y0113801D01*
X0189115Y0113746D01*
X0189186Y0113695D01*
X0189258Y0113646D01*
X0189333Y0113601D01*
X0189410Y0113559D01*
X0189488Y0113520D01*
X0189568Y0113485D01*
X0189649Y0113454D01*
X0189732Y0113426D01*
X0189815Y0113401D01*
X0189900Y0113380D01*
X0189986Y0113363D01*
X0190072Y0113350D01*
X0190159Y0113341D01*
X0190246Y0113335D01*
X0190333Y0113333D01*
X0226333Y0113333D01*
X0226420Y0113335D01*
X0226507Y0113341D01*
X0226594Y0113350D01*
X0226680Y0113363D01*
X0226766Y0113380D01*
X0226851Y0113401D01*
X0226934Y0113426D01*
X0227017Y0113454D01*
X0227098Y0113485D01*
X0227178Y0113520D01*
X0227256Y0113559D01*
X0227333Y0113601D01*
X0227408Y0113646D01*
X0227480Y0113695D01*
X0227551Y0113746D01*
X0227619Y0113801D01*
X0227684Y0113858D01*
X0227747Y0113919D01*
X0227808Y0113982D01*
X0227865Y0114047D01*
X0227920Y0114115D01*
X0227971Y0114186D01*
X0228020Y0114258D01*
X0228065Y0114333D01*
X0228107Y0114410D01*
X0228146Y0114488D01*
X0228181Y0114568D01*
X0228212Y0114649D01*
X0228240Y0114732D01*
X0228265Y0114815D01*
X0228286Y0114900D01*
X0228303Y0114986D01*
X0228316Y0115072D01*
X0228325Y0115159D01*
X0228331Y0115246D01*
X0228333Y0115333D01*
X0236133Y0109273D02*
X0236700Y0109840D01*
X0238402Y0109840D01*
X0238402Y0107572D02*
X0236133Y0107572D01*
X0236133Y0109273D01*
X0236133Y0106157D02*
X0238402Y0106157D01*
X0238402Y0104456D01*
X0237835Y0103889D01*
X0236133Y0103889D01*
X0228483Y0092036D02*
X0229050Y0091469D01*
X0229050Y0090902D01*
X0228483Y0090335D01*
X0227349Y0090335D01*
X0226782Y0090902D01*
X0226782Y0091469D01*
X0227349Y0092036D01*
X0228483Y0092036D01*
X0228483Y0090335D02*
X0229050Y0089768D01*
X0229050Y0089200D01*
X0228483Y0088633D01*
X0227349Y0088633D01*
X0226782Y0089200D01*
X0226782Y0089768D01*
X0227349Y0090335D01*
X0225367Y0090902D02*
X0224800Y0090335D01*
X0225367Y0089768D01*
X0225367Y0089200D01*
X0224800Y0088633D01*
X0223666Y0088633D01*
X0223098Y0089200D01*
X0221684Y0088633D02*
X0219415Y0088633D01*
X0221684Y0090902D01*
X0221684Y0091469D01*
X0221117Y0092036D01*
X0219982Y0092036D01*
X0219415Y0091469D01*
X0216866Y0092036D02*
X0216866Y0088633D01*
X0215732Y0088633D02*
X0218001Y0088633D01*
X0215732Y0090902D02*
X0216866Y0092036D01*
X0214318Y0091469D02*
X0214318Y0090902D01*
X0213751Y0090335D01*
X0214318Y0089768D01*
X0214318Y0089200D01*
X0213751Y0088633D01*
X0212616Y0088633D01*
X0212049Y0089200D01*
X0213183Y0090335D02*
X0213751Y0090335D01*
X0214318Y0091469D02*
X0213751Y0092036D01*
X0212616Y0092036D01*
X0212049Y0091469D01*
X0206951Y0091469D02*
X0206951Y0090335D01*
X0206384Y0089768D01*
X0204683Y0089768D01*
X0204683Y0088633D02*
X0204683Y0092036D01*
X0206384Y0092036D01*
X0206951Y0091469D01*
X0203268Y0091469D02*
X0203268Y0089200D01*
X0202701Y0088633D01*
X0201567Y0088633D01*
X0201000Y0089200D01*
X0201000Y0091469D01*
X0201567Y0092036D01*
X0202701Y0092036D01*
X0203268Y0091469D01*
X0199585Y0091469D02*
X0199018Y0092036D01*
X0197884Y0092036D01*
X0197316Y0091469D01*
X0197316Y0090902D01*
X0197884Y0090335D01*
X0199018Y0090335D01*
X0199585Y0089768D01*
X0199585Y0089200D01*
X0199018Y0088633D01*
X0197884Y0088633D01*
X0197316Y0089200D01*
X0194768Y0088633D02*
X0194768Y0092036D01*
X0195902Y0092036D02*
X0193633Y0092036D01*
X0223098Y0091469D02*
X0223666Y0092036D01*
X0224800Y0092036D01*
X0225367Y0091469D01*
X0225367Y0090902D01*
X0224800Y0090335D02*
X0224233Y0090335D01*
X0212333Y0120133D02*
X0212133Y0120733D01*
X0212933Y0123733D01*
X0212733Y0124333D01*
X0211533Y0125133D02*
X0210933Y0126633D01*
X0208333Y0126233D02*
X0208333Y0124733D01*
X0208833Y0123233D02*
X0209433Y0122633D01*
X0209433Y0122033D01*
X0208833Y0121433D01*
X0207633Y0121433D01*
X0207033Y0120833D01*
X0207033Y0120233D01*
X0207633Y0119533D01*
X0208833Y0119533D01*
X0209433Y0120233D01*
X0209433Y0120833D01*
X0208833Y0121433D01*
X0207633Y0121433D02*
X0207033Y0122033D01*
X0207033Y0122633D01*
X0207633Y0123233D01*
X0208833Y0123233D01*
X0205333Y0123733D02*
X0203533Y0123933D01*
X0202333Y0123133D01*
X0201733Y0122133D01*
X0201933Y0120933D01*
X0203133Y0120333D01*
X0204133Y0120533D01*
X0204533Y0121333D01*
X0204133Y0122333D01*
X0202333Y0123133D01*
X0201133Y0124133D02*
X0200333Y0123333D01*
X0198533Y0123533D01*
X0198333Y0125333D01*
X0199133Y0126133D01*
X0200333Y0127333D01*
X0199133Y0126133D02*
X0201133Y0124133D01*
X0202333Y0125333D01*
X0202233Y0127233D02*
X0203233Y0128233D01*
X0205333Y0126833D02*
X0204733Y0125533D01*
X0201833Y0130733D02*
X0200233Y0130033D01*
X0199333Y0128733D02*
X0198533Y0130733D01*
X0197833Y0130833D01*
X0197133Y0130533D01*
X0196733Y0129733D01*
X0197533Y0127933D01*
X0195933Y0127133D01*
X0195133Y0128933D01*
X0195333Y0129533D01*
X0196133Y0129933D01*
X0196733Y0129733D01*
X0197533Y0127933D02*
X0199333Y0128733D01*
X0199633Y0133333D02*
X0201133Y0133333D01*
X0201733Y0136133D02*
X0200433Y0136633D01*
X0199433Y0137933D02*
X0198733Y0136333D01*
X0195133Y0137933D01*
X0195933Y0139633D01*
X0196633Y0139933D01*
X0199133Y0138733D01*
X0199433Y0137933D01*
X0200433Y0139533D02*
X0199033Y0140933D01*
X0197633Y0142333D01*
X0199333Y0144033D01*
X0199933Y0141833D02*
X0199033Y0140933D01*
X0200433Y0139533D02*
X0202033Y0141033D01*
X0202233Y0139433D02*
X0203233Y0138433D01*
X0205533Y0139933D02*
X0204933Y0141333D01*
X0203633Y0142133D02*
X0202833Y0143833D01*
X0204233Y0144433D01*
X0202833Y0143833D02*
X0202033Y0145533D01*
X0203933Y0146433D01*
X0207133Y0146533D02*
X0207133Y0144133D01*
X0207733Y0143433D01*
X0208933Y0143433D01*
X0209533Y0144133D01*
X0209533Y0146533D01*
X0208933Y0147133D01*
X0207733Y0147133D01*
X0207133Y0146533D01*
X0212833Y0145533D02*
X0214033Y0145733D01*
X0212533Y0142433D01*
X0213033Y0142133D02*
X0211933Y0142633D01*
X0211933Y0141133D02*
X0211333Y0139833D01*
X0213433Y0138333D02*
X0214433Y0139333D01*
X0214733Y0141133D02*
X0216333Y0139433D01*
X0217533Y0138733D02*
X0217133Y0138033D01*
X0217833Y0136333D01*
X0218733Y0136133D01*
X0219533Y0136533D01*
X0219733Y0137033D01*
X0220333Y0136933D01*
X0221133Y0137333D01*
X0221433Y0137833D01*
X0220733Y0139533D01*
X0219733Y0139733D01*
X0219433Y0137833D02*
X0219733Y0137033D01*
X0216333Y0136733D02*
X0214833Y0136133D01*
X0215433Y0133333D02*
X0216933Y0133333D01*
X0216333Y0129833D02*
X0214833Y0130433D01*
X0213333Y0128333D02*
X0214333Y0127333D01*
X0215733Y0126533D02*
X0216733Y0126533D01*
X0217533Y0125733D01*
X0217933Y0123933D01*
X0217133Y0122533D01*
X0216133Y0124133D02*
X0217533Y0125733D01*
X0215733Y0126533D02*
X0214733Y0125533D01*
X0214733Y0124533D01*
X0215133Y0124133D01*
X0216133Y0124133D01*
X0214533Y0121133D02*
X0212333Y0120133D01*
X0217633Y0128033D02*
X0218633Y0127533D01*
X0219433Y0127833D01*
X0219833Y0128733D01*
X0219733Y0129633D01*
X0221333Y0128833D01*
X0220333Y0126633D01*
X0217633Y0128033D02*
X0217333Y0128833D01*
X0217833Y0129833D01*
X0218633Y0130133D01*
X0201233Y0133333D02*
X0201235Y0133507D01*
X0201242Y0133681D01*
X0201252Y0133855D01*
X0201267Y0134029D01*
X0201286Y0134202D01*
X0201310Y0134375D01*
X0201338Y0134547D01*
X0201369Y0134718D01*
X0201406Y0134889D01*
X0201446Y0135058D01*
X0201490Y0135227D01*
X0201539Y0135394D01*
X0201591Y0135560D01*
X0201648Y0135725D01*
X0201709Y0135888D01*
X0201773Y0136050D01*
X0201842Y0136210D01*
X0201915Y0136369D01*
X0201991Y0136525D01*
X0202071Y0136680D01*
X0202155Y0136833D01*
X0202243Y0136983D01*
X0202335Y0137131D01*
X0202430Y0137278D01*
X0202528Y0137421D01*
X0202630Y0137562D01*
X0202736Y0137701D01*
X0202845Y0137837D01*
X0202957Y0137971D01*
X0203072Y0138101D01*
X0203191Y0138229D01*
X0203313Y0138353D01*
X0203437Y0138475D01*
X0203565Y0138594D01*
X0203695Y0138709D01*
X0203829Y0138821D01*
X0203965Y0138930D01*
X0204104Y0139036D01*
X0204245Y0139138D01*
X0204388Y0139236D01*
X0204535Y0139331D01*
X0204683Y0139423D01*
X0204833Y0139511D01*
X0204986Y0139595D01*
X0205141Y0139675D01*
X0205297Y0139751D01*
X0205456Y0139824D01*
X0205616Y0139893D01*
X0205778Y0139957D01*
X0205941Y0140018D01*
X0206106Y0140075D01*
X0206272Y0140127D01*
X0206439Y0140176D01*
X0206608Y0140220D01*
X0206777Y0140260D01*
X0206948Y0140297D01*
X0207119Y0140328D01*
X0207291Y0140356D01*
X0207464Y0140380D01*
X0207637Y0140399D01*
X0207811Y0140414D01*
X0207985Y0140424D01*
X0208159Y0140431D01*
X0208333Y0140433D01*
X0208507Y0140431D01*
X0208681Y0140424D01*
X0208855Y0140414D01*
X0209029Y0140399D01*
X0209202Y0140380D01*
X0209375Y0140356D01*
X0209547Y0140328D01*
X0209718Y0140297D01*
X0209889Y0140260D01*
X0210058Y0140220D01*
X0210227Y0140176D01*
X0210394Y0140127D01*
X0210560Y0140075D01*
X0210725Y0140018D01*
X0210888Y0139957D01*
X0211050Y0139893D01*
X0211210Y0139824D01*
X0211369Y0139751D01*
X0211525Y0139675D01*
X0211680Y0139595D01*
X0211833Y0139511D01*
X0211983Y0139423D01*
X0212131Y0139331D01*
X0212278Y0139236D01*
X0212421Y0139138D01*
X0212562Y0139036D01*
X0212701Y0138930D01*
X0212837Y0138821D01*
X0212971Y0138709D01*
X0213101Y0138594D01*
X0213229Y0138475D01*
X0213353Y0138353D01*
X0213475Y0138229D01*
X0213594Y0138101D01*
X0213709Y0137971D01*
X0213821Y0137837D01*
X0213930Y0137701D01*
X0214036Y0137562D01*
X0214138Y0137421D01*
X0214236Y0137278D01*
X0214331Y0137131D01*
X0214423Y0136983D01*
X0214511Y0136833D01*
X0214595Y0136680D01*
X0214675Y0136525D01*
X0214751Y0136369D01*
X0214824Y0136210D01*
X0214893Y0136050D01*
X0214957Y0135888D01*
X0215018Y0135725D01*
X0215075Y0135560D01*
X0215127Y0135394D01*
X0215176Y0135227D01*
X0215220Y0135058D01*
X0215260Y0134889D01*
X0215297Y0134718D01*
X0215328Y0134547D01*
X0215356Y0134375D01*
X0215380Y0134202D01*
X0215399Y0134029D01*
X0215414Y0133855D01*
X0215424Y0133681D01*
X0215431Y0133507D01*
X0215433Y0133333D01*
X0215431Y0133159D01*
X0215424Y0132985D01*
X0215414Y0132811D01*
X0215399Y0132637D01*
X0215380Y0132464D01*
X0215356Y0132291D01*
X0215328Y0132119D01*
X0215297Y0131948D01*
X0215260Y0131777D01*
X0215220Y0131608D01*
X0215176Y0131439D01*
X0215127Y0131272D01*
X0215075Y0131106D01*
X0215018Y0130941D01*
X0214957Y0130778D01*
X0214893Y0130616D01*
X0214824Y0130456D01*
X0214751Y0130297D01*
X0214675Y0130141D01*
X0214595Y0129986D01*
X0214511Y0129833D01*
X0214423Y0129683D01*
X0214331Y0129535D01*
X0214236Y0129388D01*
X0214138Y0129245D01*
X0214036Y0129104D01*
X0213930Y0128965D01*
X0213821Y0128829D01*
X0213709Y0128695D01*
X0213594Y0128565D01*
X0213475Y0128437D01*
X0213353Y0128313D01*
X0213229Y0128191D01*
X0213101Y0128072D01*
X0212971Y0127957D01*
X0212837Y0127845D01*
X0212701Y0127736D01*
X0212562Y0127630D01*
X0212421Y0127528D01*
X0212278Y0127430D01*
X0212131Y0127335D01*
X0211983Y0127243D01*
X0211833Y0127155D01*
X0211680Y0127071D01*
X0211525Y0126991D01*
X0211369Y0126915D01*
X0211210Y0126842D01*
X0211050Y0126773D01*
X0210888Y0126709D01*
X0210725Y0126648D01*
X0210560Y0126591D01*
X0210394Y0126539D01*
X0210227Y0126490D01*
X0210058Y0126446D01*
X0209889Y0126406D01*
X0209718Y0126369D01*
X0209547Y0126338D01*
X0209375Y0126310D01*
X0209202Y0126286D01*
X0209029Y0126267D01*
X0208855Y0126252D01*
X0208681Y0126242D01*
X0208507Y0126235D01*
X0208333Y0126233D01*
X0208159Y0126235D01*
X0207985Y0126242D01*
X0207811Y0126252D01*
X0207637Y0126267D01*
X0207464Y0126286D01*
X0207291Y0126310D01*
X0207119Y0126338D01*
X0206948Y0126369D01*
X0206777Y0126406D01*
X0206608Y0126446D01*
X0206439Y0126490D01*
X0206272Y0126539D01*
X0206106Y0126591D01*
X0205941Y0126648D01*
X0205778Y0126709D01*
X0205616Y0126773D01*
X0205456Y0126842D01*
X0205297Y0126915D01*
X0205141Y0126991D01*
X0204986Y0127071D01*
X0204833Y0127155D01*
X0204683Y0127243D01*
X0204535Y0127335D01*
X0204388Y0127430D01*
X0204245Y0127528D01*
X0204104Y0127630D01*
X0203965Y0127736D01*
X0203829Y0127845D01*
X0203695Y0127957D01*
X0203565Y0128072D01*
X0203437Y0128191D01*
X0203313Y0128313D01*
X0203191Y0128437D01*
X0203072Y0128565D01*
X0202957Y0128695D01*
X0202845Y0128829D01*
X0202736Y0128965D01*
X0202630Y0129104D01*
X0202528Y0129245D01*
X0202430Y0129388D01*
X0202335Y0129535D01*
X0202243Y0129683D01*
X0202155Y0129833D01*
X0202071Y0129986D01*
X0201991Y0130141D01*
X0201915Y0130297D01*
X0201842Y0130456D01*
X0201773Y0130616D01*
X0201709Y0130778D01*
X0201648Y0130941D01*
X0201591Y0131106D01*
X0201539Y0131272D01*
X0201490Y0131439D01*
X0201446Y0131608D01*
X0201406Y0131777D01*
X0201369Y0131948D01*
X0201338Y0132119D01*
X0201310Y0132291D01*
X0201286Y0132464D01*
X0201267Y0132637D01*
X0201252Y0132811D01*
X0201242Y0132985D01*
X0201235Y0133159D01*
X0201233Y0133333D01*
X0208333Y0140533D02*
X0208333Y0142033D01*
X0214733Y0141133D02*
X0218133Y0140933D01*
X0218733Y0141433D01*
X0218733Y0142333D01*
X0217733Y0143433D01*
X0216633Y0143433D01*
X0248133Y0139966D02*
X0248700Y0140533D01*
X0308333Y0145833D02*
X0310833Y0143333D01*
X0315833Y0143333D01*
X0318333Y0145833D01*
X0320833Y0143333D01*
X0325833Y0143333D01*
X0328333Y0145833D01*
X0330833Y0143333D01*
X0335833Y0143333D01*
X0338333Y0145833D01*
X0338333Y0150833D01*
X0335833Y0153333D01*
X0330833Y0153333D01*
X0328333Y0150833D01*
X0325833Y0153333D01*
X0320833Y0153333D01*
X0318333Y0150833D01*
X0315833Y0153333D01*
X0310833Y0153333D01*
X0308333Y0150833D01*
X0308333Y0145833D01*
X0312698Y0140768D02*
X0312130Y0140201D01*
X0312130Y0138500D01*
X0315533Y0138500D01*
X0315533Y0140201D01*
X0314966Y0140768D01*
X0312698Y0140768D01*
X0312130Y0137085D02*
X0315533Y0137085D01*
X0312130Y0134816D01*
X0315533Y0134816D01*
X0314966Y0133402D02*
X0313832Y0133402D01*
X0313832Y0132268D01*
X0314966Y0133402D02*
X0315533Y0132835D01*
X0315533Y0131700D01*
X0314966Y0131133D01*
X0312698Y0131133D01*
X0312130Y0131700D01*
X0312130Y0132835D01*
X0312698Y0133402D01*
X0322130Y0132835D02*
X0322698Y0133402D01*
X0324966Y0133402D01*
X0325533Y0132835D01*
X0325533Y0131700D01*
X0324966Y0131133D01*
X0322698Y0131133D01*
X0322130Y0131700D01*
X0322130Y0132835D01*
X0322130Y0134816D02*
X0324966Y0134816D01*
X0325533Y0135384D01*
X0325533Y0136518D01*
X0324966Y0137085D01*
X0322130Y0137085D01*
X0322130Y0138500D02*
X0322130Y0140768D01*
X0322130Y0139634D02*
X0325533Y0139634D01*
X0332130Y0140768D02*
X0334399Y0140768D01*
X0335533Y0139634D01*
X0334399Y0138500D01*
X0332130Y0138500D01*
X0332130Y0137085D02*
X0332130Y0134816D01*
X0333832Y0134816D01*
X0333265Y0135951D01*
X0333265Y0136518D01*
X0333832Y0137085D01*
X0334966Y0137085D01*
X0335533Y0136518D01*
X0335533Y0135384D01*
X0334966Y0134816D01*
X0333832Y0133402D02*
X0333832Y0131133D01*
X0332698Y0132268D02*
X0334966Y0132268D01*
X0218085Y0230133D02*
X0215816Y0233536D01*
X0214402Y0233536D02*
X0212133Y0233536D01*
X0213268Y0233536D02*
X0213268Y0230133D01*
X0215816Y0230133D02*
X0218085Y0233536D01*
X0204585Y0237633D02*
X0202316Y0241036D01*
X0200902Y0240469D02*
X0200902Y0239335D01*
X0200335Y0238768D01*
X0198633Y0238768D01*
X0199768Y0238768D02*
X0200902Y0237633D01*
X0202316Y0237633D02*
X0204585Y0241036D01*
X0200902Y0240469D02*
X0200335Y0241036D01*
X0198633Y0241036D01*
X0198633Y0237633D01*
X0140223Y0191469D02*
X0139656Y0192036D01*
X0137955Y0192036D01*
X0137955Y0188633D01*
X0139656Y0188633D01*
X0140223Y0189200D01*
X0140223Y0189768D01*
X0139656Y0190335D01*
X0137955Y0190335D01*
X0139656Y0190335D02*
X0140223Y0190902D01*
X0140223Y0191469D01*
X0141638Y0189200D02*
X0142205Y0189200D01*
X0142205Y0188633D01*
X0141638Y0188633D01*
X0141638Y0189200D01*
X0132857Y0190902D02*
X0131723Y0188633D01*
X0130588Y0190902D01*
X0129174Y0190335D02*
X0129174Y0189768D01*
X0126905Y0189768D01*
X0126905Y0190335D02*
X0127472Y0190902D01*
X0128607Y0190902D01*
X0129174Y0190335D01*
X0128607Y0188633D02*
X0127472Y0188633D01*
X0126905Y0189200D01*
X0126905Y0190335D01*
X0125491Y0190335D02*
X0124923Y0189768D01*
X0123222Y0189768D01*
X0124356Y0189768D02*
X0125491Y0188633D01*
X0125491Y0190335D02*
X0125491Y0191469D01*
X0124923Y0192036D01*
X0123222Y0192036D01*
X0123222Y0188633D01*
X0118124Y0189200D02*
X0117557Y0189768D01*
X0116423Y0189768D01*
X0115856Y0190335D01*
X0116423Y0190902D01*
X0118124Y0190902D01*
X0118124Y0189200D02*
X0117557Y0188633D01*
X0115856Y0188633D01*
X0114535Y0188633D02*
X0113967Y0189200D01*
X0113967Y0191469D01*
X0113400Y0190902D02*
X0114535Y0190902D01*
X0111986Y0190335D02*
X0111986Y0188633D01*
X0111986Y0190335D02*
X0111419Y0190902D01*
X0110284Y0190902D01*
X0109717Y0190335D01*
X0108303Y0190902D02*
X0108303Y0188066D01*
X0107735Y0187499D01*
X0107168Y0187499D01*
X0106601Y0188633D02*
X0108303Y0188633D01*
X0109717Y0188633D02*
X0109717Y0192036D01*
X0108303Y0190902D02*
X0106601Y0190902D01*
X0106034Y0190335D01*
X0106034Y0189200D01*
X0106601Y0188633D01*
X0104713Y0188633D02*
X0103579Y0188633D01*
X0104146Y0188633D02*
X0104146Y0190902D01*
X0103579Y0190902D01*
X0104146Y0192036D02*
X0104146Y0192603D01*
X0099895Y0192036D02*
X0099895Y0188633D01*
X0102164Y0188633D01*
X0100983Y0184536D02*
X0099282Y0182835D01*
X0101550Y0182835D01*
X0100983Y0181133D02*
X0100983Y0184536D01*
X0097867Y0183969D02*
X0095598Y0181700D01*
X0096166Y0181133D01*
X0097300Y0181133D01*
X0097867Y0181700D01*
X0097867Y0183969D01*
X0097300Y0184536D01*
X0096166Y0184536D01*
X0095598Y0183969D01*
X0095598Y0181700D01*
X0094184Y0184536D02*
X0091915Y0181133D01*
X0090501Y0181133D02*
X0088232Y0181133D01*
X0090501Y0183402D01*
X0090501Y0183969D01*
X0089934Y0184536D01*
X0088799Y0184536D01*
X0088232Y0183969D01*
X0085683Y0184536D02*
X0085683Y0181133D01*
X0084549Y0181133D02*
X0086818Y0181133D01*
X0084549Y0183402D02*
X0085683Y0184536D01*
X0083135Y0184536D02*
X0080866Y0181133D01*
X0079451Y0181700D02*
X0079451Y0182268D01*
X0078884Y0182835D01*
X0077183Y0182835D01*
X0077183Y0181700D01*
X0077750Y0181133D01*
X0078884Y0181133D01*
X0079451Y0181700D01*
X0078317Y0183969D02*
X0077183Y0182835D01*
X0078317Y0183969D02*
X0079451Y0184536D01*
X0079024Y0188633D02*
X0080726Y0188633D01*
X0081293Y0189200D01*
X0080726Y0189768D01*
X0079591Y0189768D01*
X0079024Y0190335D01*
X0079591Y0190902D01*
X0081293Y0190902D01*
X0082707Y0190902D02*
X0083842Y0190902D01*
X0083275Y0191469D02*
X0083275Y0189200D01*
X0083842Y0188633D01*
X0085163Y0188633D02*
X0085163Y0190902D01*
X0085730Y0190902D01*
X0086297Y0190335D01*
X0086864Y0190902D01*
X0087431Y0190335D01*
X0087431Y0188633D01*
X0086297Y0188633D02*
X0086297Y0190335D01*
X0088846Y0189200D02*
X0089413Y0189768D01*
X0091115Y0189768D01*
X0091115Y0190335D02*
X0091115Y0188633D01*
X0089413Y0188633D01*
X0088846Y0189200D01*
X0089413Y0190902D02*
X0090547Y0190902D01*
X0091115Y0190335D01*
X0092529Y0190335D02*
X0093096Y0190902D01*
X0094798Y0190902D01*
X0094231Y0189768D02*
X0093096Y0189768D01*
X0092529Y0190335D01*
X0092529Y0188633D02*
X0094231Y0188633D01*
X0094798Y0189200D01*
X0094231Y0189768D01*
X0077656Y0190902D02*
X0077089Y0190902D01*
X0075955Y0189768D01*
X0075955Y0190902D02*
X0075955Y0188633D01*
X0074634Y0188633D02*
X0073500Y0188633D01*
X0074067Y0188633D02*
X0074067Y0190902D01*
X0073500Y0190902D01*
X0074067Y0192036D02*
X0074067Y0192603D01*
X0072085Y0190335D02*
X0072085Y0188633D01*
X0072085Y0190335D02*
X0071518Y0190902D01*
X0070384Y0190902D01*
X0069816Y0190335D01*
X0069816Y0192036D02*
X0069816Y0188633D01*
X0068402Y0189200D02*
X0067835Y0188633D01*
X0066700Y0188633D01*
X0066133Y0189200D01*
X0066133Y0191469D01*
X0066700Y0192036D01*
X0067835Y0192036D01*
X0068402Y0191469D01*
X0067835Y0184536D02*
X0066700Y0184536D01*
X0066133Y0183969D01*
X0067835Y0184536D02*
X0068402Y0183969D01*
X0068402Y0183402D01*
X0066133Y0181133D01*
X0068402Y0181133D01*
X0069816Y0181700D02*
X0072085Y0183969D01*
X0072085Y0181700D01*
X0071518Y0181133D01*
X0070384Y0181133D01*
X0069816Y0181700D01*
X0069816Y0183969D01*
X0070384Y0184536D01*
X0071518Y0184536D01*
X0072085Y0183969D01*
X0073500Y0183402D02*
X0074634Y0184536D01*
X0074634Y0181133D01*
X0073500Y0181133D02*
X0075768Y0181133D01*
X0080133Y0215133D02*
X0081268Y0215133D01*
X0080700Y0215133D02*
X0080700Y0218536D01*
X0080133Y0218536D02*
X0081268Y0218536D01*
X0082589Y0218536D02*
X0082589Y0215133D01*
X0082589Y0216268D02*
X0084290Y0216268D01*
X0084857Y0216835D01*
X0084857Y0217969D01*
X0084290Y0218536D01*
X0082589Y0218536D01*
X0083723Y0216268D02*
X0084857Y0215133D01*
X0086272Y0214566D02*
X0088541Y0214566D01*
X0089955Y0215133D02*
X0089955Y0218536D01*
X0091656Y0218536D01*
X0092224Y0217969D01*
X0092224Y0215700D01*
X0091656Y0215133D01*
X0089955Y0215133D01*
X0093638Y0215133D02*
X0093638Y0217402D01*
X0094772Y0218536D01*
X0095907Y0217402D01*
X0095907Y0215133D01*
X0095907Y0216835D02*
X0093638Y0216835D01*
X0097321Y0218536D02*
X0099590Y0218536D01*
X0098456Y0218536D02*
X0098456Y0215133D01*
X0101004Y0215133D02*
X0101004Y0217402D01*
X0102139Y0218536D01*
X0103273Y0217402D01*
X0103273Y0215133D01*
X0103273Y0216835D02*
X0101004Y0216835D01*
X0148333Y0150833D02*
X0148333Y0145833D01*
X0145833Y0148333D02*
X0150833Y0148333D01*
X0148333Y0132833D02*
X0148333Y0131833D01*
X0153333Y0131833D01*
X0153333Y0129333D01*
X0143333Y0129333D01*
X0143333Y0131833D01*
X0148333Y0131833D01*
X0120833Y0128333D02*
X0120841Y0129008D01*
X0120866Y0129682D01*
X0120908Y0130356D01*
X0120965Y0131028D01*
X0121040Y0131699D01*
X0121131Y0132368D01*
X0121238Y0133034D01*
X0121361Y0133698D01*
X0121501Y0134358D01*
X0121657Y0135015D01*
X0121829Y0135668D01*
X0122017Y0136316D01*
X0122221Y0136959D01*
X0122441Y0137597D01*
X0122676Y0138230D01*
X0122926Y0138857D01*
X0123192Y0139477D01*
X0123473Y0140091D01*
X0123769Y0140697D01*
X0124080Y0141296D01*
X0124406Y0141888D01*
X0124745Y0142471D01*
X0125100Y0143045D01*
X0125468Y0143611D01*
X0125849Y0144168D01*
X0126245Y0144715D01*
X0126653Y0145252D01*
X0127075Y0145779D01*
X0127510Y0146295D01*
X0127957Y0146801D01*
X0128416Y0147295D01*
X0128888Y0147778D01*
X0129371Y0148250D01*
X0129865Y0148709D01*
X0130371Y0149156D01*
X0130887Y0149591D01*
X0131414Y0150013D01*
X0131951Y0150421D01*
X0132498Y0150817D01*
X0133055Y0151198D01*
X0133621Y0151566D01*
X0134195Y0151921D01*
X0134778Y0152260D01*
X0135370Y0152586D01*
X0135969Y0152897D01*
X0136575Y0153193D01*
X0137189Y0153474D01*
X0137809Y0153740D01*
X0138436Y0153990D01*
X0139069Y0154225D01*
X0139707Y0154445D01*
X0140350Y0154649D01*
X0140998Y0154837D01*
X0141651Y0155009D01*
X0142308Y0155165D01*
X0142968Y0155305D01*
X0143632Y0155428D01*
X0144298Y0155535D01*
X0144967Y0155626D01*
X0145638Y0155701D01*
X0146310Y0155758D01*
X0146984Y0155800D01*
X0147658Y0155825D01*
X0148333Y0155833D01*
X0149008Y0155825D01*
X0149682Y0155800D01*
X0150356Y0155758D01*
X0151028Y0155701D01*
X0151699Y0155626D01*
X0152368Y0155535D01*
X0153034Y0155428D01*
X0153698Y0155305D01*
X0154358Y0155165D01*
X0155015Y0155009D01*
X0155668Y0154837D01*
X0156316Y0154649D01*
X0156959Y0154445D01*
X0157597Y0154225D01*
X0158230Y0153990D01*
X0158857Y0153740D01*
X0159477Y0153474D01*
X0160091Y0153193D01*
X0160697Y0152897D01*
X0161296Y0152586D01*
X0161888Y0152260D01*
X0162471Y0151921D01*
X0163045Y0151566D01*
X0163611Y0151198D01*
X0164168Y0150817D01*
X0164715Y0150421D01*
X0165252Y0150013D01*
X0165779Y0149591D01*
X0166295Y0149156D01*
X0166801Y0148709D01*
X0167295Y0148250D01*
X0167778Y0147778D01*
X0168250Y0147295D01*
X0168709Y0146801D01*
X0169156Y0146295D01*
X0169591Y0145779D01*
X0170013Y0145252D01*
X0170421Y0144715D01*
X0170817Y0144168D01*
X0171198Y0143611D01*
X0171566Y0143045D01*
X0171921Y0142471D01*
X0172260Y0141888D01*
X0172586Y0141296D01*
X0172897Y0140697D01*
X0173193Y0140091D01*
X0173474Y0139477D01*
X0173740Y0138857D01*
X0173990Y0138230D01*
X0174225Y0137597D01*
X0174445Y0136959D01*
X0174649Y0136316D01*
X0174837Y0135668D01*
X0175009Y0135015D01*
X0175165Y0134358D01*
X0175305Y0133698D01*
X0175428Y0133034D01*
X0175535Y0132368D01*
X0175626Y0131699D01*
X0175701Y0131028D01*
X0175758Y0130356D01*
X0175800Y0129682D01*
X0175825Y0129008D01*
X0175833Y0128333D01*
X0175825Y0127658D01*
X0175800Y0126984D01*
X0175758Y0126310D01*
X0175701Y0125638D01*
X0175626Y0124967D01*
X0175535Y0124298D01*
X0175428Y0123632D01*
X0175305Y0122968D01*
X0175165Y0122308D01*
X0175009Y0121651D01*
X0174837Y0120998D01*
X0174649Y0120350D01*
X0174445Y0119707D01*
X0174225Y0119069D01*
X0173990Y0118436D01*
X0173740Y0117809D01*
X0173474Y0117189D01*
X0173193Y0116575D01*
X0172897Y0115969D01*
X0172586Y0115370D01*
X0172260Y0114778D01*
X0171921Y0114195D01*
X0171566Y0113621D01*
X0171198Y0113055D01*
X0170817Y0112498D01*
X0170421Y0111951D01*
X0170013Y0111414D01*
X0169591Y0110887D01*
X0169156Y0110371D01*
X0168709Y0109865D01*
X0168250Y0109371D01*
X0167778Y0108888D01*
X0167295Y0108416D01*
X0166801Y0107957D01*
X0166295Y0107510D01*
X0165779Y0107075D01*
X0165252Y0106653D01*
X0164715Y0106245D01*
X0164168Y0105849D01*
X0163611Y0105468D01*
X0163045Y0105100D01*
X0162471Y0104745D01*
X0161888Y0104406D01*
X0161296Y0104080D01*
X0160697Y0103769D01*
X0160091Y0103473D01*
X0159477Y0103192D01*
X0158857Y0102926D01*
X0158230Y0102676D01*
X0157597Y0102441D01*
X0156959Y0102221D01*
X0156316Y0102017D01*
X0155668Y0101829D01*
X0155015Y0101657D01*
X0154358Y0101501D01*
X0153698Y0101361D01*
X0153034Y0101238D01*
X0152368Y0101131D01*
X0151699Y0101040D01*
X0151028Y0100965D01*
X0150356Y0100908D01*
X0149682Y0100866D01*
X0149008Y0100841D01*
X0148333Y0100833D01*
X0147658Y0100841D01*
X0146984Y0100866D01*
X0146310Y0100908D01*
X0145638Y0100965D01*
X0144967Y0101040D01*
X0144298Y0101131D01*
X0143632Y0101238D01*
X0142968Y0101361D01*
X0142308Y0101501D01*
X0141651Y0101657D01*
X0140998Y0101829D01*
X0140350Y0102017D01*
X0139707Y0102221D01*
X0139069Y0102441D01*
X0138436Y0102676D01*
X0137809Y0102926D01*
X0137189Y0103192D01*
X0136575Y0103473D01*
X0135969Y0103769D01*
X0135370Y0104080D01*
X0134778Y0104406D01*
X0134195Y0104745D01*
X0133621Y0105100D01*
X0133055Y0105468D01*
X0132498Y0105849D01*
X0131951Y0106245D01*
X0131414Y0106653D01*
X0130887Y0107075D01*
X0130371Y0107510D01*
X0129865Y0107957D01*
X0129371Y0108416D01*
X0128888Y0108888D01*
X0128416Y0109371D01*
X0127957Y0109865D01*
X0127510Y0110371D01*
X0127075Y0110887D01*
X0126653Y0111414D01*
X0126245Y0111951D01*
X0125849Y0112498D01*
X0125468Y0113055D01*
X0125100Y0113621D01*
X0124745Y0114195D01*
X0124406Y0114778D01*
X0124080Y0115370D01*
X0123769Y0115969D01*
X0123473Y0116575D01*
X0123192Y0117189D01*
X0122926Y0117809D01*
X0122676Y0118436D01*
X0122441Y0119069D01*
X0122221Y0119707D01*
X0122017Y0120350D01*
X0121829Y0120998D01*
X0121657Y0121651D01*
X0121501Y0122308D01*
X0121361Y0122968D01*
X0121238Y0123632D01*
X0121131Y0124298D01*
X0121040Y0124967D01*
X0120965Y0125638D01*
X0120908Y0126310D01*
X0120866Y0126984D01*
X0120841Y0127658D01*
X0120833Y0128333D01*
X0148333Y0125833D02*
X0148333Y0123833D01*
X0150833Y0084833D02*
X0152333Y0084833D01*
X0152393Y0084831D01*
X0152454Y0084826D01*
X0152513Y0084817D01*
X0152572Y0084804D01*
X0152631Y0084788D01*
X0152688Y0084768D01*
X0152743Y0084745D01*
X0152798Y0084718D01*
X0152850Y0084689D01*
X0152901Y0084656D01*
X0152950Y0084620D01*
X0152996Y0084582D01*
X0153040Y0084540D01*
X0153082Y0084496D01*
X0153120Y0084450D01*
X0153156Y0084401D01*
X0153189Y0084350D01*
X0153218Y0084298D01*
X0153245Y0084243D01*
X0153268Y0084188D01*
X0153288Y0084131D01*
X0153304Y0084072D01*
X0153317Y0084013D01*
X0153326Y0083954D01*
X0153331Y0083893D01*
X0153333Y0083833D01*
X0153333Y0077833D01*
X0153331Y0077773D01*
X0153326Y0077712D01*
X0153317Y0077653D01*
X0153304Y0077594D01*
X0153288Y0077535D01*
X0153268Y0077478D01*
X0153245Y0077423D01*
X0153218Y0077368D01*
X0153189Y0077316D01*
X0153156Y0077265D01*
X0153120Y0077216D01*
X0153082Y0077170D01*
X0153040Y0077126D01*
X0152996Y0077084D01*
X0152950Y0077046D01*
X0152901Y0077010D01*
X0152850Y0076977D01*
X0152798Y0076948D01*
X0152743Y0076921D01*
X0152688Y0076898D01*
X0152631Y0076878D01*
X0152572Y0076862D01*
X0152513Y0076849D01*
X0152454Y0076840D01*
X0152393Y0076835D01*
X0152333Y0076833D01*
X0150833Y0076833D01*
X0150333Y0077333D01*
X0136333Y0077333D01*
X0135833Y0076833D01*
X0134333Y0076833D01*
X0134273Y0076835D01*
X0134212Y0076840D01*
X0134153Y0076849D01*
X0134094Y0076862D01*
X0134035Y0076878D01*
X0133978Y0076898D01*
X0133923Y0076921D01*
X0133868Y0076948D01*
X0133816Y0076977D01*
X0133765Y0077010D01*
X0133716Y0077046D01*
X0133670Y0077084D01*
X0133626Y0077126D01*
X0133584Y0077170D01*
X0133546Y0077216D01*
X0133510Y0077265D01*
X0133477Y0077316D01*
X0133448Y0077368D01*
X0133421Y0077423D01*
X0133398Y0077478D01*
X0133378Y0077535D01*
X0133362Y0077594D01*
X0133349Y0077653D01*
X0133340Y0077712D01*
X0133335Y0077773D01*
X0133333Y0077833D01*
X0133333Y0083833D01*
X0133335Y0083893D01*
X0133340Y0083954D01*
X0133349Y0084013D01*
X0133362Y0084072D01*
X0133378Y0084131D01*
X0133398Y0084188D01*
X0133421Y0084243D01*
X0133448Y0084298D01*
X0133477Y0084350D01*
X0133510Y0084401D01*
X0133546Y0084450D01*
X0133584Y0084496D01*
X0133626Y0084540D01*
X0133670Y0084582D01*
X0133716Y0084620D01*
X0133765Y0084656D01*
X0133816Y0084689D01*
X0133868Y0084718D01*
X0133923Y0084745D01*
X0133978Y0084768D01*
X0134035Y0084788D01*
X0134094Y0084804D01*
X0134153Y0084817D01*
X0134212Y0084826D01*
X0134273Y0084831D01*
X0134333Y0084833D01*
X0135833Y0084833D01*
X0136333Y0084333D01*
X0150333Y0084333D01*
X0150833Y0084833D01*
X0150567Y0083336D02*
X0151701Y0083336D01*
X0152268Y0082769D01*
X0150000Y0080500D01*
X0150567Y0079933D01*
X0151701Y0079933D01*
X0152268Y0080500D01*
X0152268Y0082769D01*
X0150567Y0083336D02*
X0150000Y0082769D01*
X0150000Y0080500D01*
X0148585Y0079933D02*
X0146316Y0079933D01*
X0148585Y0082202D01*
X0148585Y0082769D01*
X0148018Y0083336D01*
X0146884Y0083336D01*
X0146316Y0082769D01*
X0144902Y0082769D02*
X0144335Y0083336D01*
X0143200Y0083336D01*
X0142633Y0082769D01*
X0144902Y0082769D02*
X0144902Y0082202D01*
X0142633Y0079933D01*
X0144902Y0079933D01*
X0140085Y0078133D02*
X0137816Y0078133D01*
X0138951Y0078133D02*
X0138951Y0081536D01*
X0137816Y0080402D01*
X0136402Y0080969D02*
X0136402Y0079835D01*
X0135835Y0079268D01*
X0134133Y0079268D01*
X0135268Y0079268D02*
X0136402Y0078133D01*
X0134133Y0078133D02*
X0134133Y0081536D01*
X0135835Y0081536D01*
X0136402Y0080969D01*
X0113333Y0083833D02*
X0113333Y0077833D01*
X0113331Y0077773D01*
X0113326Y0077712D01*
X0113317Y0077653D01*
X0113304Y0077594D01*
X0113288Y0077535D01*
X0113268Y0077478D01*
X0113245Y0077423D01*
X0113218Y0077368D01*
X0113189Y0077316D01*
X0113156Y0077265D01*
X0113120Y0077216D01*
X0113082Y0077170D01*
X0113040Y0077126D01*
X0112996Y0077084D01*
X0112950Y0077046D01*
X0112901Y0077010D01*
X0112850Y0076977D01*
X0112798Y0076948D01*
X0112743Y0076921D01*
X0112688Y0076898D01*
X0112631Y0076878D01*
X0112572Y0076862D01*
X0112513Y0076849D01*
X0112454Y0076840D01*
X0112393Y0076835D01*
X0112333Y0076833D01*
X0110833Y0076833D01*
X0110333Y0077333D01*
X0096333Y0077333D01*
X0095833Y0076833D01*
X0094333Y0076833D01*
X0094273Y0076835D01*
X0094212Y0076840D01*
X0094153Y0076849D01*
X0094094Y0076862D01*
X0094035Y0076878D01*
X0093978Y0076898D01*
X0093923Y0076921D01*
X0093868Y0076948D01*
X0093816Y0076977D01*
X0093765Y0077010D01*
X0093716Y0077046D01*
X0093670Y0077084D01*
X0093626Y0077126D01*
X0093584Y0077170D01*
X0093546Y0077216D01*
X0093510Y0077265D01*
X0093477Y0077316D01*
X0093448Y0077368D01*
X0093421Y0077423D01*
X0093398Y0077478D01*
X0093378Y0077535D01*
X0093362Y0077594D01*
X0093349Y0077653D01*
X0093340Y0077712D01*
X0093335Y0077773D01*
X0093333Y0077833D01*
X0093333Y0083833D01*
X0093335Y0083893D01*
X0093340Y0083954D01*
X0093349Y0084013D01*
X0093362Y0084072D01*
X0093378Y0084131D01*
X0093398Y0084188D01*
X0093421Y0084243D01*
X0093448Y0084298D01*
X0093477Y0084350D01*
X0093510Y0084401D01*
X0093546Y0084450D01*
X0093584Y0084496D01*
X0093626Y0084540D01*
X0093670Y0084582D01*
X0093716Y0084620D01*
X0093765Y0084656D01*
X0093816Y0084689D01*
X0093868Y0084718D01*
X0093923Y0084745D01*
X0093978Y0084768D01*
X0094035Y0084788D01*
X0094094Y0084804D01*
X0094153Y0084817D01*
X0094212Y0084826D01*
X0094273Y0084831D01*
X0094333Y0084833D01*
X0095833Y0084833D01*
X0096333Y0084333D01*
X0110333Y0084333D01*
X0110833Y0084833D01*
X0112333Y0084833D01*
X0112393Y0084831D01*
X0112454Y0084826D01*
X0112513Y0084817D01*
X0112572Y0084804D01*
X0112631Y0084788D01*
X0112688Y0084768D01*
X0112743Y0084745D01*
X0112798Y0084718D01*
X0112850Y0084689D01*
X0112901Y0084656D01*
X0112950Y0084620D01*
X0112996Y0084582D01*
X0113040Y0084540D01*
X0113082Y0084496D01*
X0113120Y0084450D01*
X0113156Y0084401D01*
X0113189Y0084350D01*
X0113218Y0084298D01*
X0113245Y0084243D01*
X0113268Y0084188D01*
X0113288Y0084131D01*
X0113304Y0084072D01*
X0113317Y0084013D01*
X0113326Y0083954D01*
X0113331Y0083893D01*
X0113333Y0083833D01*
X0112219Y0082669D02*
X0109950Y0080400D01*
X0110517Y0079833D01*
X0111652Y0079833D01*
X0112219Y0080400D01*
X0112219Y0082669D01*
X0111652Y0083236D01*
X0110517Y0083236D01*
X0109950Y0082669D01*
X0109950Y0080400D01*
X0108536Y0079833D02*
X0106267Y0079833D01*
X0108536Y0082102D01*
X0108536Y0082669D01*
X0107968Y0083236D01*
X0106834Y0083236D01*
X0106267Y0082669D01*
X0104852Y0082669D02*
X0104285Y0083236D01*
X0103151Y0083236D01*
X0102584Y0082669D01*
X0104852Y0082669D02*
X0104852Y0082102D01*
X0102584Y0079833D01*
X0104852Y0079833D01*
X0100219Y0080402D02*
X0097950Y0078133D01*
X0100219Y0078133D01*
X0100219Y0080402D02*
X0100219Y0080969D01*
X0099652Y0081536D01*
X0098517Y0081536D01*
X0097950Y0080969D01*
X0096536Y0080969D02*
X0096536Y0079835D01*
X0095968Y0079268D01*
X0094267Y0079268D01*
X0095401Y0079268D02*
X0096536Y0078133D01*
X0094267Y0078133D02*
X0094267Y0081536D01*
X0095968Y0081536D01*
X0096536Y0080969D01*
X0063333Y0063333D02*
X0063336Y0063578D01*
X0063345Y0063824D01*
X0063360Y0064069D01*
X0063381Y0064313D01*
X0063408Y0064557D01*
X0063441Y0064800D01*
X0063480Y0065043D01*
X0063525Y0065284D01*
X0063576Y0065524D01*
X0063633Y0065763D01*
X0063695Y0066000D01*
X0063764Y0066236D01*
X0063838Y0066470D01*
X0063918Y0066702D01*
X0064003Y0066932D01*
X0064094Y0067160D01*
X0064191Y0067385D01*
X0064293Y0067609D01*
X0064401Y0067829D01*
X0064514Y0068047D01*
X0064632Y0068262D01*
X0064756Y0068474D01*
X0064884Y0068683D01*
X0065018Y0068889D01*
X0065157Y0069091D01*
X0065301Y0069290D01*
X0065450Y0069485D01*
X0065603Y0069677D01*
X0065761Y0069865D01*
X0065923Y0070049D01*
X0066091Y0070228D01*
X0066262Y0070404D01*
X0066438Y0070575D01*
X0066617Y0070743D01*
X0066801Y0070905D01*
X0066989Y0071063D01*
X0067181Y0071216D01*
X0067376Y0071365D01*
X0067575Y0071509D01*
X0067777Y0071648D01*
X0067983Y0071782D01*
X0068192Y0071910D01*
X0068404Y0072034D01*
X0068619Y0072152D01*
X0068837Y0072265D01*
X0069057Y0072373D01*
X0069281Y0072475D01*
X0069506Y0072572D01*
X0069734Y0072663D01*
X0069964Y0072748D01*
X0070196Y0072828D01*
X0070430Y0072902D01*
X0070666Y0072971D01*
X0070903Y0073033D01*
X0071142Y0073090D01*
X0071382Y0073141D01*
X0071623Y0073186D01*
X0071866Y0073225D01*
X0072109Y0073258D01*
X0072353Y0073285D01*
X0072597Y0073306D01*
X0072842Y0073321D01*
X0073088Y0073330D01*
X0073333Y0073333D01*
X0073578Y0073330D01*
X0073824Y0073321D01*
X0074069Y0073306D01*
X0074313Y0073285D01*
X0074557Y0073258D01*
X0074800Y0073225D01*
X0075043Y0073186D01*
X0075284Y0073141D01*
X0075524Y0073090D01*
X0075763Y0073033D01*
X0076000Y0072971D01*
X0076236Y0072902D01*
X0076470Y0072828D01*
X0076702Y0072748D01*
X0076932Y0072663D01*
X0077160Y0072572D01*
X0077385Y0072475D01*
X0077609Y0072373D01*
X0077829Y0072265D01*
X0078047Y0072152D01*
X0078262Y0072034D01*
X0078474Y0071910D01*
X0078683Y0071782D01*
X0078889Y0071648D01*
X0079091Y0071509D01*
X0079290Y0071365D01*
X0079485Y0071216D01*
X0079677Y0071063D01*
X0079865Y0070905D01*
X0080049Y0070743D01*
X0080228Y0070575D01*
X0080404Y0070404D01*
X0080575Y0070228D01*
X0080743Y0070049D01*
X0080905Y0069865D01*
X0081063Y0069677D01*
X0081216Y0069485D01*
X0081365Y0069290D01*
X0081509Y0069091D01*
X0081648Y0068889D01*
X0081782Y0068683D01*
X0081910Y0068474D01*
X0082034Y0068262D01*
X0082152Y0068047D01*
X0082265Y0067829D01*
X0082373Y0067609D01*
X0082475Y0067385D01*
X0082572Y0067160D01*
X0082663Y0066932D01*
X0082748Y0066702D01*
X0082828Y0066470D01*
X0082902Y0066236D01*
X0082971Y0066000D01*
X0083033Y0065763D01*
X0083090Y0065524D01*
X0083141Y0065284D01*
X0083186Y0065043D01*
X0083225Y0064800D01*
X0083258Y0064557D01*
X0083285Y0064313D01*
X0083306Y0064069D01*
X0083321Y0063824D01*
X0083330Y0063578D01*
X0083333Y0063333D01*
X0083330Y0063088D01*
X0083321Y0062842D01*
X0083306Y0062597D01*
X0083285Y0062353D01*
X0083258Y0062109D01*
X0083225Y0061866D01*
X0083186Y0061623D01*
X0083141Y0061382D01*
X0083090Y0061142D01*
X0083033Y0060903D01*
X0082971Y0060666D01*
X0082902Y0060430D01*
X0082828Y0060196D01*
X0082748Y0059964D01*
X0082663Y0059734D01*
X0082572Y0059506D01*
X0082475Y0059281D01*
X0082373Y0059057D01*
X0082265Y0058837D01*
X0082152Y0058619D01*
X0082034Y0058404D01*
X0081910Y0058192D01*
X0081782Y0057983D01*
X0081648Y0057777D01*
X0081509Y0057575D01*
X0081365Y0057376D01*
X0081216Y0057181D01*
X0081063Y0056989D01*
X0080905Y0056801D01*
X0080743Y0056617D01*
X0080575Y0056438D01*
X0080404Y0056262D01*
X0080228Y0056091D01*
X0080049Y0055923D01*
X0079865Y0055761D01*
X0079677Y0055603D01*
X0079485Y0055450D01*
X0079290Y0055301D01*
X0079091Y0055157D01*
X0078889Y0055018D01*
X0078683Y0054884D01*
X0078474Y0054756D01*
X0078262Y0054632D01*
X0078047Y0054514D01*
X0077829Y0054401D01*
X0077609Y0054293D01*
X0077385Y0054191D01*
X0077160Y0054094D01*
X0076932Y0054003D01*
X0076702Y0053918D01*
X0076470Y0053838D01*
X0076236Y0053764D01*
X0076000Y0053695D01*
X0075763Y0053633D01*
X0075524Y0053576D01*
X0075284Y0053525D01*
X0075043Y0053480D01*
X0074800Y0053441D01*
X0074557Y0053408D01*
X0074313Y0053381D01*
X0074069Y0053360D01*
X0073824Y0053345D01*
X0073578Y0053336D01*
X0073333Y0053333D01*
X0073088Y0053336D01*
X0072842Y0053345D01*
X0072597Y0053360D01*
X0072353Y0053381D01*
X0072109Y0053408D01*
X0071866Y0053441D01*
X0071623Y0053480D01*
X0071382Y0053525D01*
X0071142Y0053576D01*
X0070903Y0053633D01*
X0070666Y0053695D01*
X0070430Y0053764D01*
X0070196Y0053838D01*
X0069964Y0053918D01*
X0069734Y0054003D01*
X0069506Y0054094D01*
X0069281Y0054191D01*
X0069057Y0054293D01*
X0068837Y0054401D01*
X0068619Y0054514D01*
X0068404Y0054632D01*
X0068192Y0054756D01*
X0067983Y0054884D01*
X0067777Y0055018D01*
X0067575Y0055157D01*
X0067376Y0055301D01*
X0067181Y0055450D01*
X0066989Y0055603D01*
X0066801Y0055761D01*
X0066617Y0055923D01*
X0066438Y0056091D01*
X0066262Y0056262D01*
X0066091Y0056438D01*
X0065923Y0056617D01*
X0065761Y0056801D01*
X0065603Y0056989D01*
X0065450Y0057181D01*
X0065301Y0057376D01*
X0065157Y0057575D01*
X0065018Y0057777D01*
X0064884Y0057983D01*
X0064756Y0058192D01*
X0064632Y0058404D01*
X0064514Y0058619D01*
X0064401Y0058837D01*
X0064293Y0059057D01*
X0064191Y0059281D01*
X0064094Y0059506D01*
X0064003Y0059734D01*
X0063918Y0059964D01*
X0063838Y0060196D01*
X0063764Y0060430D01*
X0063695Y0060666D01*
X0063633Y0060903D01*
X0063576Y0061142D01*
X0063525Y0061382D01*
X0063480Y0061623D01*
X0063441Y0061866D01*
X0063408Y0062109D01*
X0063381Y0062353D01*
X0063360Y0062597D01*
X0063345Y0062842D01*
X0063336Y0063088D01*
X0063333Y0063333D01*
D12*
X0060833Y0095833D02*
X0168333Y0095833D01*
X0168333Y0160833D02*
X0060833Y0160833D01*
X0060833Y0140833D01*
X0060833Y0115833D02*
X0060833Y0095833D01*
D13*
X0060833Y0118333D02*
X0060833Y0138333D01*
X0078333Y0138333D01*
X0078333Y0118333D01*
X0060833Y0118333D01*
X0078333Y0118333D02*
X0085833Y0118333D01*
X0085833Y0138333D01*
X0078333Y0138333D01*
X0090833Y0143333D02*
X0108333Y0143333D01*
X0108333Y0113333D01*
X0090833Y0113333D01*
X0090833Y0143333D01*
X0108333Y0143333D02*
X0115833Y0143333D01*
X0115833Y0113333D01*
X0108333Y0113333D01*
X0063333Y0070833D02*
X0063520Y0071076D01*
X0063712Y0071314D01*
X0063911Y0071547D01*
X0064115Y0071775D01*
X0064324Y0071998D01*
X0064539Y0072216D01*
X0064759Y0072429D01*
X0064984Y0072636D01*
X0065215Y0072838D01*
X0065450Y0073034D01*
X0065690Y0073224D01*
X0065934Y0073408D01*
X0066183Y0073586D01*
X0066437Y0073758D01*
X0066694Y0073924D01*
X0066955Y0074084D01*
X0067220Y0074237D01*
X0067489Y0074383D01*
X0067762Y0074523D01*
X0068037Y0074656D01*
X0068316Y0074782D01*
X0068598Y0074902D01*
X0068883Y0075014D01*
X0069170Y0075119D01*
X0069460Y0075218D01*
X0069752Y0075309D01*
X0070047Y0075393D01*
X0070343Y0075470D01*
X0070641Y0075540D01*
X0070941Y0075602D01*
X0071242Y0075657D01*
X0071544Y0075704D01*
X0071848Y0075744D01*
X0072152Y0075777D01*
X0072457Y0075802D01*
X0072763Y0075820D01*
X0073069Y0075830D01*
X0073375Y0075833D01*
X0073681Y0075828D01*
X0073987Y0075816D01*
X0074293Y0075796D01*
X0074597Y0075769D01*
X0074902Y0075734D01*
X0075205Y0075692D01*
X0075507Y0075643D01*
X0075808Y0075586D01*
X0076107Y0075521D01*
X0076405Y0075450D01*
X0076700Y0075371D01*
X0076994Y0075285D01*
X0077286Y0075192D01*
X0077575Y0075091D01*
X0077862Y0074984D01*
X0078146Y0074869D01*
X0078427Y0074748D01*
X0078705Y0074620D01*
X0078980Y0074485D01*
X0079251Y0074343D01*
X0079519Y0074195D01*
X0079783Y0074040D01*
X0080043Y0073879D01*
X0080299Y0073712D01*
X0080552Y0073538D01*
X0080799Y0073358D01*
X0081043Y0073172D01*
X0081281Y0072981D01*
X0081515Y0072783D01*
X0081744Y0072580D01*
X0081968Y0072371D01*
X0082187Y0072157D01*
X0082400Y0071937D01*
X0082608Y0071713D01*
X0082811Y0071483D01*
X0083007Y0071249D01*
X0083198Y0071009D01*
X0083383Y0070766D01*
X0083562Y0070517D01*
X0083735Y0070265D01*
X0083902Y0070008D01*
X0084062Y0069747D01*
X0084216Y0069482D01*
X0084363Y0069214D01*
X0084504Y0068942D01*
X0084638Y0068667D01*
X0084765Y0068388D01*
X0084886Y0068107D01*
X0084999Y0067822D01*
X0085105Y0067535D01*
X0085205Y0067246D01*
X0085297Y0066954D01*
X0085382Y0066660D01*
X0085460Y0066364D01*
X0085531Y0066066D01*
X0085594Y0065766D01*
X0085650Y0065465D01*
X0085698Y0065163D01*
X0085739Y0064860D01*
X0085773Y0064556D01*
X0085799Y0064251D01*
X0085818Y0063945D01*
X0085829Y0063639D01*
X0085833Y0063333D01*
X0085829Y0063027D01*
X0085818Y0062721D01*
X0085799Y0062415D01*
X0085773Y0062110D01*
X0085739Y0061806D01*
X0085698Y0061503D01*
X0085650Y0061201D01*
X0085594Y0060900D01*
X0085531Y0060600D01*
X0085460Y0060302D01*
X0085382Y0060006D01*
X0085297Y0059712D01*
X0085205Y0059420D01*
X0085105Y0059131D01*
X0084999Y0058844D01*
X0084886Y0058559D01*
X0084765Y0058278D01*
X0084638Y0057999D01*
X0084504Y0057724D01*
X0084363Y0057452D01*
X0084216Y0057184D01*
X0084062Y0056919D01*
X0083902Y0056658D01*
X0083735Y0056401D01*
X0083562Y0056149D01*
X0083383Y0055900D01*
X0083198Y0055657D01*
X0083007Y0055417D01*
X0082811Y0055183D01*
X0082608Y0054953D01*
X0082400Y0054729D01*
X0082187Y0054509D01*
X0081968Y0054295D01*
X0081744Y0054086D01*
X0081515Y0053883D01*
X0081281Y0053685D01*
X0081043Y0053494D01*
X0080799Y0053308D01*
X0080552Y0053128D01*
X0080299Y0052954D01*
X0080043Y0052787D01*
X0079783Y0052626D01*
X0079519Y0052471D01*
X0079251Y0052323D01*
X0078980Y0052181D01*
X0078705Y0052046D01*
X0078427Y0051918D01*
X0078146Y0051797D01*
X0077862Y0051682D01*
X0077575Y0051575D01*
X0077286Y0051474D01*
X0076994Y0051381D01*
X0076700Y0051295D01*
X0076405Y0051216D01*
X0076107Y0051145D01*
X0075808Y0051080D01*
X0075507Y0051023D01*
X0075205Y0050974D01*
X0074902Y0050932D01*
X0074597Y0050897D01*
X0074293Y0050870D01*
X0073987Y0050850D01*
X0073681Y0050838D01*
X0073375Y0050833D01*
X0073069Y0050836D01*
X0072763Y0050846D01*
X0072457Y0050864D01*
X0072152Y0050889D01*
X0071848Y0050922D01*
X0071544Y0050962D01*
X0071242Y0051009D01*
X0070941Y0051064D01*
X0070641Y0051126D01*
X0070343Y0051196D01*
X0070047Y0051273D01*
X0069752Y0051357D01*
X0069460Y0051448D01*
X0069170Y0051547D01*
X0068883Y0051652D01*
X0068598Y0051764D01*
X0068316Y0051884D01*
X0068037Y0052010D01*
X0067762Y0052143D01*
X0067489Y0052283D01*
X0067220Y0052429D01*
X0066955Y0052582D01*
X0066694Y0052742D01*
X0066437Y0052908D01*
X0066183Y0053080D01*
X0065934Y0053258D01*
X0065690Y0053442D01*
X0065450Y0053632D01*
X0065215Y0053828D01*
X0064984Y0054030D01*
X0064759Y0054237D01*
X0064539Y0054450D01*
X0064324Y0054668D01*
X0064115Y0054891D01*
X0063911Y0055119D01*
X0063712Y0055352D01*
X0063520Y0055590D01*
X0063333Y0055833D01*
X0206333Y0137633D02*
X0210333Y0137633D01*
X0208333Y0139633D01*
X0206333Y0137633D01*
X0207333Y0138133D02*
X0209333Y0138133D01*
X0208333Y0138633D02*
X0208333Y0139133D01*
X0228333Y0078333D02*
X0260833Y0078333D01*
X0103333Y0213333D02*
X0078333Y0213333D01*
X0078333Y0228333D01*
X0143333Y0235833D02*
X0160833Y0235833D01*
X0163333Y0235833D02*
X0170833Y0235833D01*
X0173333Y0235833D02*
X0193333Y0235833D01*
X0198333Y0235833D02*
X0263333Y0235833D01*
X0263333Y0248333D01*
X0273333Y0248333D02*
X0273333Y0228333D01*
X0208333Y0228333D01*
X0198333Y0228333D02*
X0198333Y0235833D01*
X0173333Y0235833D02*
X0173333Y0248333D01*
X0163333Y0248333D02*
X0163333Y0235833D01*
X0153333Y0248333D02*
X0143333Y0240833D01*
X0143333Y0235833D01*
D14*
X0146033Y0238533D02*
X0146033Y0240535D01*
X0147034Y0240535D01*
X0147368Y0240201D01*
X0147368Y0239534D01*
X0147034Y0239201D01*
X0146033Y0239201D01*
X0146701Y0239201D02*
X0147368Y0238533D01*
X0148243Y0238533D02*
X0149578Y0238533D01*
X0150453Y0238533D02*
X0151454Y0238533D01*
X0151788Y0238867D01*
X0151788Y0240201D01*
X0151454Y0240535D01*
X0150453Y0240535D01*
X0150453Y0238533D01*
X0148910Y0239534D02*
X0148243Y0239534D01*
X0148243Y0240535D02*
X0148243Y0238533D01*
X0148243Y0240535D02*
X0149578Y0240535D01*
X0154873Y0240535D02*
X0154873Y0238533D01*
X0156207Y0238533D01*
X0157083Y0238533D02*
X0158417Y0238533D01*
X0159293Y0238533D02*
X0160293Y0238533D01*
X0160627Y0238867D01*
X0160627Y0240201D01*
X0160293Y0240535D01*
X0159293Y0240535D01*
X0159293Y0238533D01*
X0157750Y0239534D02*
X0157083Y0239534D01*
X0157083Y0240535D02*
X0157083Y0238533D01*
X0157083Y0240535D02*
X0158417Y0240535D01*
X0165033Y0240535D02*
X0166034Y0240535D01*
X0166368Y0240201D01*
X0166368Y0239534D01*
X0166034Y0239201D01*
X0165033Y0239201D01*
X0165033Y0238533D02*
X0165033Y0240535D01*
X0167243Y0240535D02*
X0167910Y0240535D01*
X0167577Y0240535D02*
X0167577Y0238533D01*
X0167910Y0238533D02*
X0167243Y0238533D01*
X0168716Y0238533D02*
X0168716Y0240535D01*
X0169717Y0240535D01*
X0170051Y0240201D01*
X0170051Y0239534D01*
X0169717Y0239201D01*
X0168716Y0239201D01*
X0169384Y0239201D02*
X0170051Y0238533D01*
X0175033Y0238867D02*
X0175367Y0238533D01*
X0176034Y0238533D01*
X0176368Y0238867D01*
X0176368Y0239201D01*
X0176034Y0239534D01*
X0175367Y0239534D01*
X0175033Y0239868D01*
X0175033Y0240201D01*
X0175367Y0240535D01*
X0176034Y0240535D01*
X0176368Y0240201D01*
X0177243Y0240535D02*
X0178578Y0240535D01*
X0177910Y0240535D02*
X0177910Y0238533D01*
X0179453Y0238533D02*
X0179453Y0240535D01*
X0180454Y0240535D01*
X0180788Y0240201D01*
X0180788Y0239534D01*
X0180454Y0239201D01*
X0179453Y0239201D01*
X0180120Y0239201D02*
X0180788Y0238533D01*
X0181663Y0238533D02*
X0182330Y0238533D01*
X0181997Y0238533D02*
X0181997Y0240535D01*
X0182330Y0240535D02*
X0181663Y0240535D01*
X0183136Y0240535D02*
X0184137Y0240535D01*
X0184471Y0240201D01*
X0184471Y0239534D01*
X0184137Y0239201D01*
X0183136Y0239201D01*
X0183136Y0238533D02*
X0183136Y0240535D01*
X0185346Y0238200D02*
X0186681Y0238200D01*
X0187556Y0238867D02*
X0187890Y0238533D01*
X0188557Y0238533D01*
X0188890Y0238867D01*
X0188890Y0240201D01*
X0188557Y0240535D01*
X0187890Y0240535D01*
X0187556Y0240201D01*
X0187556Y0238867D01*
X0189766Y0238867D02*
X0190099Y0238533D01*
X0190767Y0238533D01*
X0191100Y0238867D01*
X0191100Y0240535D01*
X0191976Y0240535D02*
X0193310Y0240535D01*
X0192643Y0240535D02*
X0192643Y0238533D01*
X0189766Y0238867D02*
X0189766Y0240535D01*
X0065133Y0134181D02*
X0063132Y0134181D01*
X0063132Y0132846D02*
X0065133Y0134181D01*
X0065133Y0132846D02*
X0063132Y0132846D01*
X0063132Y0132040D02*
X0063132Y0131373D01*
X0063132Y0131706D02*
X0065133Y0131706D01*
X0065133Y0131373D02*
X0065133Y0132040D01*
X0065467Y0130497D02*
X0065467Y0129163D01*
X0065133Y0128288D02*
X0064466Y0127620D01*
X0064466Y0127954D02*
X0064466Y0126953D01*
X0065133Y0126953D02*
X0063132Y0126953D01*
X0063132Y0127954D01*
X0063465Y0128288D01*
X0064132Y0128288D01*
X0064466Y0127954D01*
X0065133Y0126078D02*
X0063132Y0126078D01*
X0063132Y0124743D02*
X0065133Y0124743D01*
X0064466Y0125410D01*
X0065133Y0126078D01*
X0064132Y0123868D02*
X0064466Y0123534D01*
X0064466Y0122533D01*
X0065133Y0122533D02*
X0063132Y0122533D01*
X0063132Y0123534D01*
X0063465Y0123868D01*
X0064132Y0123868D01*
X0094632Y0124033D02*
X0094632Y0125034D01*
X0094965Y0125368D01*
X0096300Y0125368D01*
X0096633Y0125034D01*
X0096633Y0124033D01*
X0094632Y0124033D01*
X0095299Y0126243D02*
X0094632Y0126910D01*
X0095299Y0127578D01*
X0096633Y0127578D01*
X0095632Y0127578D02*
X0095632Y0126243D01*
X0095299Y0126243D02*
X0096633Y0126243D01*
X0096633Y0129120D02*
X0094632Y0129120D01*
X0094632Y0128453D02*
X0094632Y0129788D01*
X0095299Y0130663D02*
X0094632Y0131330D01*
X0095299Y0131997D01*
X0096633Y0131997D01*
X0095632Y0131997D02*
X0095632Y0130663D01*
X0095299Y0130663D02*
X0096633Y0130663D01*
X0078652Y0073236D02*
X0078652Y0069633D01*
X0076851Y0069633D01*
X0076250Y0070234D01*
X0076250Y0071435D01*
X0076851Y0072035D01*
X0078652Y0072035D01*
X0074969Y0071435D02*
X0074969Y0070834D01*
X0072567Y0070834D01*
X0072567Y0070234D02*
X0072567Y0071435D01*
X0073168Y0072035D01*
X0074369Y0072035D01*
X0074969Y0071435D01*
X0074369Y0069633D02*
X0073168Y0069633D01*
X0072567Y0070234D01*
X0071286Y0069633D02*
X0070085Y0070834D01*
X0070685Y0070834D02*
X0068884Y0070834D01*
X0068884Y0069633D02*
X0068884Y0073236D01*
X0070685Y0073236D01*
X0071286Y0072636D01*
X0071286Y0071435D01*
X0070685Y0070834D01*
X0069984Y0058036D02*
X0069984Y0054433D01*
X0072386Y0054433D01*
X0073667Y0054433D02*
X0075469Y0054433D01*
X0076069Y0055034D01*
X0076069Y0057436D01*
X0075469Y0058036D01*
X0073667Y0058036D01*
X0073667Y0054433D01*
X0071185Y0056235D02*
X0069984Y0056235D01*
X0069984Y0058036D02*
X0072386Y0058036D01*
X0077350Y0056835D02*
X0078551Y0058036D01*
X0078551Y0054433D01*
X0077350Y0054433D02*
X0079752Y0054433D01*
X0068703Y0054433D02*
X0066301Y0054433D01*
X0066301Y0058036D01*
D15*
X0193333Y0070085D02*
X0203176Y0070085D01*
X0222861Y0070085D01*
X0232703Y0070085D01*
X0232703Y0085833D01*
X0222861Y0085833D01*
X0203176Y0085833D01*
X0193333Y0085833D01*
X0193333Y0070085D01*
X0203175Y0070085D02*
X0203275Y0069845D01*
X0203380Y0069607D01*
X0203491Y0069372D01*
X0203608Y0069139D01*
X0203731Y0068910D01*
X0203859Y0068683D01*
X0203993Y0068460D01*
X0204132Y0068240D01*
X0204277Y0068024D01*
X0204427Y0067811D01*
X0204582Y0067602D01*
X0204742Y0067397D01*
X0204907Y0067196D01*
X0205077Y0066999D01*
X0205252Y0066807D01*
X0205431Y0066618D01*
X0205615Y0066434D01*
X0205803Y0066255D01*
X0205996Y0066080D01*
X0206193Y0065910D01*
X0206394Y0065745D01*
X0206599Y0065585D01*
X0206808Y0065430D01*
X0207021Y0065280D01*
X0207237Y0065136D01*
X0207457Y0064997D01*
X0207680Y0064863D01*
X0207907Y0064735D01*
X0208136Y0064612D01*
X0208369Y0064495D01*
X0208604Y0064384D01*
X0208842Y0064278D01*
X0209082Y0064179D01*
X0209325Y0064085D01*
X0209570Y0063998D01*
X0209817Y0063916D01*
X0210066Y0063840D01*
X0210316Y0063771D01*
X0210569Y0063708D01*
X0210823Y0063651D01*
X0211078Y0063600D01*
X0211334Y0063556D01*
X0211591Y0063517D01*
X0211850Y0063486D01*
X0212109Y0063460D01*
X0212368Y0063441D01*
X0212628Y0063428D01*
X0212888Y0063422D01*
X0213148Y0063422D01*
X0213408Y0063428D01*
X0213668Y0063441D01*
X0213927Y0063460D01*
X0214186Y0063486D01*
X0214445Y0063517D01*
X0214702Y0063556D01*
X0214958Y0063600D01*
X0215213Y0063651D01*
X0215467Y0063708D01*
X0215720Y0063771D01*
X0215970Y0063840D01*
X0216219Y0063916D01*
X0216466Y0063998D01*
X0216711Y0064085D01*
X0216954Y0064179D01*
X0217194Y0064278D01*
X0217432Y0064384D01*
X0217667Y0064495D01*
X0217900Y0064612D01*
X0218129Y0064735D01*
X0218356Y0064863D01*
X0218579Y0064997D01*
X0218799Y0065136D01*
X0219015Y0065280D01*
X0219228Y0065430D01*
X0219437Y0065585D01*
X0219642Y0065745D01*
X0219843Y0065910D01*
X0220040Y0066080D01*
X0220233Y0066255D01*
X0220421Y0066434D01*
X0220605Y0066618D01*
X0220784Y0066807D01*
X0220959Y0066999D01*
X0221129Y0067196D01*
X0221294Y0067397D01*
X0221454Y0067602D01*
X0221609Y0067811D01*
X0221759Y0068024D01*
X0221904Y0068240D01*
X0222043Y0068460D01*
X0222177Y0068683D01*
X0222305Y0068910D01*
X0222428Y0069139D01*
X0222545Y0069372D01*
X0222656Y0069607D01*
X0222761Y0069845D01*
X0222861Y0070085D01*
X0223979Y0107583D02*
X0226982Y0107583D01*
X0225481Y0107583D02*
X0225481Y0112087D01*
X0223979Y0110586D01*
X0222378Y0111337D02*
X0221627Y0112087D01*
X0220126Y0112087D01*
X0219375Y0111337D01*
X0219375Y0110586D01*
X0220126Y0109835D01*
X0221627Y0109835D01*
X0222378Y0109085D01*
X0222378Y0108334D01*
X0221627Y0107583D01*
X0220126Y0107583D01*
X0219375Y0108334D01*
X0293583Y0157083D02*
X0295835Y0157083D01*
X0296586Y0157834D01*
X0296586Y0160837D01*
X0295835Y0161587D01*
X0293583Y0161587D01*
X0293583Y0157083D01*
X0298187Y0157834D02*
X0298938Y0157083D01*
X0300439Y0157083D01*
X0301190Y0157834D01*
X0301190Y0158585D01*
X0300439Y0159335D01*
X0298938Y0159335D01*
X0298187Y0160086D01*
X0298187Y0160837D01*
X0298938Y0161587D01*
X0300439Y0161587D01*
X0301190Y0160837D01*
X0302791Y0161587D02*
X0302791Y0157083D01*
X0305794Y0157083D02*
X0305794Y0161587D01*
X0307395Y0159335D02*
X0310398Y0159335D01*
X0311999Y0159335D02*
X0313500Y0159335D01*
X0311999Y0157083D02*
X0311999Y0161587D01*
X0315002Y0161587D01*
X0316603Y0161587D02*
X0318104Y0161587D01*
X0317354Y0161587D02*
X0317354Y0157083D01*
X0318104Y0157083D02*
X0316603Y0157083D01*
X0319672Y0157083D02*
X0319672Y0161587D01*
X0321924Y0161587D01*
X0322675Y0160837D01*
X0322675Y0159335D01*
X0321924Y0158585D01*
X0319672Y0158585D01*
X0321174Y0158585D02*
X0322675Y0157083D01*
X0324276Y0157834D02*
X0324276Y0158585D01*
X0325027Y0159335D01*
X0326528Y0159335D01*
X0327279Y0158585D01*
X0327279Y0157834D01*
X0326528Y0157083D01*
X0325027Y0157083D01*
X0324276Y0157834D01*
X0325027Y0159335D02*
X0324276Y0160086D01*
X0324276Y0160837D01*
X0325027Y0161587D01*
X0326528Y0161587D01*
X0327279Y0160837D01*
X0327279Y0160086D01*
X0326528Y0159335D01*
X0328880Y0157834D02*
X0328880Y0160837D01*
X0329631Y0161587D01*
X0331132Y0161587D01*
X0331883Y0160837D01*
X0328880Y0157834D01*
X0329631Y0157083D01*
X0331132Y0157083D01*
X0331883Y0157834D01*
X0331883Y0160837D01*
X0333484Y0160837D02*
X0334235Y0161587D01*
X0335736Y0161587D01*
X0336487Y0160837D01*
X0333484Y0157834D01*
X0334235Y0157083D01*
X0335736Y0157083D01*
X0336487Y0157834D01*
X0336487Y0160837D01*
X0333484Y0160837D02*
X0333484Y0157834D01*
X0305794Y0157083D02*
X0302791Y0161587D01*
X0305085Y0150587D02*
X0305085Y0146083D01*
X0306586Y0146083D02*
X0303583Y0146083D01*
X0303583Y0149086D02*
X0305085Y0150587D01*
D16*
X0148333Y0126083D03*
D17*
X0155678Y0126054D02*
X0155678Y0123952D01*
X0156729Y0122901D01*
X0160932Y0122901D01*
X0156729Y0127105D01*
X0160932Y0127105D01*
X0161983Y0126054D01*
X0161983Y0123952D01*
X0160932Y0122901D01*
X0161983Y0120659D02*
X0161983Y0116456D01*
X0157780Y0120659D01*
X0156729Y0120659D01*
X0155678Y0119608D01*
X0155678Y0117507D01*
X0156729Y0116456D01*
X0156729Y0114214D02*
X0155678Y0113163D01*
X0155678Y0111061D01*
X0156729Y0110010D01*
X0156729Y0114214D02*
X0157780Y0114214D01*
X0161983Y0110010D01*
X0161983Y0114214D01*
X0164929Y0121692D02*
X0169132Y0121692D01*
X0170183Y0122743D01*
X0170183Y0124845D01*
X0169132Y0125896D01*
X0170183Y0128138D02*
X0170183Y0132341D01*
X0170183Y0130240D02*
X0163878Y0130240D01*
X0165980Y0128138D01*
X0164929Y0125896D02*
X0163878Y0124845D01*
X0163878Y0122743D01*
X0164929Y0121692D01*
X0156729Y0127105D02*
X0155678Y0126054D01*
X0156729Y0129347D02*
X0155678Y0130398D01*
X0155678Y0132499D01*
X0156729Y0133550D01*
X0160932Y0129347D01*
X0161983Y0130398D01*
X0161983Y0132499D01*
X0160932Y0133550D01*
X0156729Y0133550D01*
X0157780Y0135792D02*
X0160932Y0135792D01*
X0161983Y0136843D01*
X0161983Y0139996D01*
X0157780Y0139996D01*
X0158831Y0142238D02*
X0158831Y0144340D01*
X0161983Y0142238D02*
X0155678Y0142238D01*
X0155678Y0146441D01*
X0156729Y0129347D02*
X0160932Y0129347D01*
D18*
X0112467Y0132117D02*
X0112467Y0133251D01*
X0111900Y0133959D02*
X0112183Y0134242D01*
X0112183Y0134809D01*
X0111900Y0135093D01*
X0110765Y0135093D01*
X0110482Y0134809D01*
X0110482Y0134242D01*
X0110765Y0133959D01*
X0111900Y0133959D01*
X0111900Y0135800D02*
X0112183Y0136084D01*
X0112183Y0136651D01*
X0111900Y0136934D01*
X0110482Y0136934D01*
X0110482Y0137642D02*
X0110482Y0138776D01*
X0110482Y0138209D02*
X0112183Y0138209D01*
X0111900Y0135800D02*
X0110482Y0135800D01*
X0110765Y0131410D02*
X0111333Y0131410D01*
X0111616Y0131126D01*
X0111616Y0130275D01*
X0112183Y0130275D02*
X0110482Y0130275D01*
X0110482Y0131126D01*
X0110765Y0131410D01*
X0110482Y0129615D02*
X0110482Y0129048D01*
X0110482Y0129331D02*
X0112183Y0129331D01*
X0112183Y0129048D02*
X0112183Y0129615D01*
X0112183Y0128340D02*
X0111616Y0127773D01*
X0111616Y0128057D02*
X0111616Y0127206D01*
X0112183Y0127206D02*
X0110482Y0127206D01*
X0110482Y0128057D01*
X0110765Y0128340D01*
X0111333Y0128340D01*
X0111616Y0128057D01*
X0110482Y0126499D02*
X0110482Y0125365D01*
X0110482Y0125932D02*
X0112183Y0125932D01*
X0111900Y0124657D02*
X0112183Y0124374D01*
X0112183Y0123807D01*
X0111900Y0123523D01*
X0111333Y0123807D02*
X0111333Y0124374D01*
X0111616Y0124657D01*
X0111900Y0124657D01*
X0111333Y0123807D02*
X0111049Y0123523D01*
X0110765Y0123523D01*
X0110482Y0123807D01*
X0110482Y0124374D01*
X0110765Y0124657D01*
X0112467Y0122816D02*
X0112467Y0121681D01*
X0111900Y0120974D02*
X0110765Y0120974D01*
X0110482Y0120691D01*
X0110482Y0119840D01*
X0112183Y0119840D01*
X0112183Y0120691D01*
X0111900Y0120974D01*
X0112183Y0119133D02*
X0112183Y0117998D01*
X0110482Y0117998D01*
X0110482Y0119133D01*
X0111333Y0118565D02*
X0111333Y0117998D01*
X0112183Y0117291D02*
X0112183Y0116157D01*
X0110482Y0116157D01*
D19*
X0114083Y0080833D03*
X0132583Y0080833D03*
X0154083Y0080833D03*
X0092583Y0080833D03*
D20*
X0208333Y0132333D03*
D21*
X0300833Y0198333D02*
X0300833Y0198433D01*
X0300883Y0198433D01*
X0300900Y0198417D01*
X0300900Y0198383D01*
X0300883Y0198367D01*
X0300833Y0198367D01*
X0300925Y0198433D02*
X0300992Y0198433D01*
X0301017Y0198433D02*
X0301068Y0198433D01*
X0301084Y0198417D01*
X0301084Y0198383D01*
X0301068Y0198367D01*
X0301017Y0198367D01*
X0301017Y0198333D02*
X0301017Y0198433D01*
X0300959Y0198433D02*
X0300959Y0198333D01*
X0301051Y0198367D02*
X0301084Y0198333D01*
X0301110Y0198333D02*
X0301176Y0198333D01*
X0301202Y0198333D02*
X0301202Y0198433D01*
X0301252Y0198433D01*
X0301268Y0198417D01*
X0301268Y0198383D01*
X0301252Y0198367D01*
X0301202Y0198367D01*
X0301143Y0198333D02*
X0301143Y0198433D01*
X0301110Y0198400D01*
X0301294Y0198400D02*
X0301327Y0198433D01*
X0301360Y0198400D01*
X0301360Y0198333D01*
X0301386Y0198333D02*
X0301436Y0198333D01*
X0301453Y0198350D01*
X0301453Y0198417D01*
X0301436Y0198433D01*
X0301386Y0198433D01*
X0301386Y0198333D01*
X0301360Y0198383D02*
X0301294Y0198383D01*
X0301294Y0198400D02*
X0301294Y0198333D01*
X0301478Y0198333D02*
X0301545Y0198333D01*
X0301511Y0198333D02*
X0301511Y0198433D01*
X0301478Y0198400D01*
X0301570Y0198383D02*
X0301637Y0198383D01*
X0301662Y0198400D02*
X0301695Y0198433D01*
X0301695Y0198333D01*
X0301662Y0198333D02*
X0301729Y0198333D01*
X0301754Y0198350D02*
X0301771Y0198333D01*
X0301804Y0198333D01*
X0301821Y0198350D01*
X0301821Y0198367D01*
X0301804Y0198383D01*
X0301787Y0198383D01*
X0301804Y0198383D02*
X0301821Y0198400D01*
X0301821Y0198417D01*
X0301804Y0198433D01*
X0301771Y0198433D01*
X0301754Y0198417D01*
X0325833Y0178433D02*
X0325883Y0178433D01*
X0325900Y0178417D01*
X0325900Y0178383D01*
X0325883Y0178367D01*
X0325833Y0178367D01*
X0325833Y0178333D02*
X0325833Y0178433D01*
X0325925Y0178433D02*
X0325992Y0178433D01*
X0326017Y0178433D02*
X0326068Y0178433D01*
X0326084Y0178417D01*
X0326084Y0178383D01*
X0326068Y0178367D01*
X0326017Y0178367D01*
X0326017Y0178333D02*
X0326017Y0178433D01*
X0325959Y0178433D02*
X0325959Y0178333D01*
X0326051Y0178367D02*
X0326084Y0178333D01*
X0326110Y0178333D02*
X0326176Y0178333D01*
X0326202Y0178333D02*
X0326202Y0178433D01*
X0326252Y0178433D01*
X0326268Y0178417D01*
X0326268Y0178383D01*
X0326252Y0178367D01*
X0326202Y0178367D01*
X0326143Y0178333D02*
X0326143Y0178433D01*
X0326110Y0178400D01*
X0326294Y0178400D02*
X0326327Y0178433D01*
X0326360Y0178400D01*
X0326360Y0178333D01*
X0326386Y0178333D02*
X0326436Y0178333D01*
X0326453Y0178350D01*
X0326453Y0178417D01*
X0326436Y0178433D01*
X0326386Y0178433D01*
X0326386Y0178333D01*
X0326360Y0178383D02*
X0326294Y0178383D01*
X0326294Y0178400D02*
X0326294Y0178333D01*
X0326478Y0178333D02*
X0326545Y0178333D01*
X0326511Y0178333D02*
X0326511Y0178433D01*
X0326478Y0178400D01*
X0326570Y0178383D02*
X0326637Y0178383D01*
X0326662Y0178400D02*
X0326695Y0178433D01*
X0326695Y0178333D01*
X0326662Y0178333D02*
X0326729Y0178333D01*
X0326754Y0178350D02*
X0326771Y0178333D01*
X0326804Y0178333D01*
X0326821Y0178350D01*
X0326821Y0178367D01*
X0326804Y0178383D01*
X0326787Y0178383D01*
X0326804Y0178383D02*
X0326821Y0178400D01*
X0326821Y0178417D01*
X0326804Y0178433D01*
X0326771Y0178433D01*
X0326754Y0178417D01*
X0335833Y0173433D02*
X0335883Y0173433D01*
X0335900Y0173417D01*
X0335900Y0173383D01*
X0335883Y0173367D01*
X0335833Y0173367D01*
X0335833Y0173333D02*
X0335833Y0173433D01*
X0335925Y0173433D02*
X0335992Y0173433D01*
X0336017Y0173433D02*
X0336068Y0173433D01*
X0336084Y0173417D01*
X0336084Y0173383D01*
X0336068Y0173367D01*
X0336017Y0173367D01*
X0336017Y0173333D02*
X0336017Y0173433D01*
X0335959Y0173433D02*
X0335959Y0173333D01*
X0336051Y0173367D02*
X0336084Y0173333D01*
X0336110Y0173333D02*
X0336176Y0173333D01*
X0336202Y0173333D02*
X0336202Y0173433D01*
X0336252Y0173433D01*
X0336268Y0173417D01*
X0336268Y0173383D01*
X0336252Y0173367D01*
X0336202Y0173367D01*
X0336143Y0173333D02*
X0336143Y0173433D01*
X0336110Y0173400D01*
X0336294Y0173400D02*
X0336327Y0173433D01*
X0336360Y0173400D01*
X0336360Y0173333D01*
X0336386Y0173333D02*
X0336436Y0173333D01*
X0336453Y0173350D01*
X0336453Y0173417D01*
X0336436Y0173433D01*
X0336386Y0173433D01*
X0336386Y0173333D01*
X0336360Y0173383D02*
X0336294Y0173383D01*
X0336294Y0173400D02*
X0336294Y0173333D01*
X0336478Y0173333D02*
X0336545Y0173333D01*
X0336511Y0173333D02*
X0336511Y0173433D01*
X0336478Y0173400D01*
X0336570Y0173383D02*
X0336637Y0173383D01*
X0336662Y0173400D02*
X0336695Y0173433D01*
X0336695Y0173333D01*
X0336662Y0173333D02*
X0336729Y0173333D01*
X0336754Y0173350D02*
X0336771Y0173333D01*
X0336804Y0173333D01*
X0336821Y0173350D01*
X0336821Y0173367D01*
X0336804Y0173383D01*
X0336787Y0173383D01*
X0336804Y0173383D02*
X0336821Y0173400D01*
X0336821Y0173417D01*
X0336804Y0173433D01*
X0336771Y0173433D01*
X0336754Y0173417D01*
X0338333Y0213333D02*
X0338333Y0213433D01*
X0338383Y0213433D01*
X0338400Y0213417D01*
X0338400Y0213383D01*
X0338383Y0213367D01*
X0338333Y0213367D01*
X0338425Y0213433D02*
X0338492Y0213433D01*
X0338517Y0213433D02*
X0338568Y0213433D01*
X0338584Y0213417D01*
X0338584Y0213383D01*
X0338568Y0213367D01*
X0338517Y0213367D01*
X0338517Y0213333D02*
X0338517Y0213433D01*
X0338459Y0213433D02*
X0338459Y0213333D01*
X0338551Y0213367D02*
X0338584Y0213333D01*
X0338610Y0213333D02*
X0338676Y0213333D01*
X0338702Y0213333D02*
X0338702Y0213433D01*
X0338752Y0213433D01*
X0338768Y0213417D01*
X0338768Y0213383D01*
X0338752Y0213367D01*
X0338702Y0213367D01*
X0338643Y0213333D02*
X0338643Y0213433D01*
X0338610Y0213400D01*
X0338794Y0213400D02*
X0338827Y0213433D01*
X0338860Y0213400D01*
X0338860Y0213333D01*
X0338886Y0213333D02*
X0338936Y0213333D01*
X0338953Y0213350D01*
X0338953Y0213417D01*
X0338936Y0213433D01*
X0338886Y0213433D01*
X0338886Y0213333D01*
X0338860Y0213383D02*
X0338794Y0213383D01*
X0338794Y0213400D02*
X0338794Y0213333D01*
X0338978Y0213333D02*
X0339045Y0213333D01*
X0339011Y0213333D02*
X0339011Y0213433D01*
X0338978Y0213400D01*
X0339070Y0213383D02*
X0339137Y0213383D01*
X0339162Y0213400D02*
X0339195Y0213433D01*
X0339195Y0213333D01*
X0339162Y0213333D02*
X0339229Y0213333D01*
X0339254Y0213350D02*
X0339271Y0213333D01*
X0339304Y0213333D01*
X0339321Y0213350D01*
X0339321Y0213367D01*
X0339304Y0213383D01*
X0339287Y0213383D01*
X0339304Y0213383D02*
X0339321Y0213400D01*
X0339321Y0213417D01*
X0339304Y0213433D01*
X0339271Y0213433D01*
X0339254Y0213417D01*
X0339271Y0223333D02*
X0339254Y0223350D01*
X0339271Y0223333D02*
X0339304Y0223333D01*
X0339321Y0223350D01*
X0339321Y0223367D01*
X0339304Y0223383D01*
X0339287Y0223383D01*
X0339304Y0223383D02*
X0339321Y0223400D01*
X0339321Y0223417D01*
X0339304Y0223433D01*
X0339271Y0223433D01*
X0339254Y0223417D01*
X0339195Y0223433D02*
X0339195Y0223333D01*
X0339162Y0223333D02*
X0339229Y0223333D01*
X0339162Y0223400D02*
X0339195Y0223433D01*
X0339137Y0223383D02*
X0339070Y0223383D01*
X0339045Y0223333D02*
X0338978Y0223333D01*
X0338953Y0223350D02*
X0338953Y0223417D01*
X0338936Y0223433D01*
X0338886Y0223433D01*
X0338886Y0223333D01*
X0338936Y0223333D01*
X0338953Y0223350D01*
X0338978Y0223400D02*
X0339011Y0223433D01*
X0339011Y0223333D01*
X0338860Y0223333D02*
X0338860Y0223400D01*
X0338827Y0223433D01*
X0338794Y0223400D01*
X0338794Y0223333D01*
X0338794Y0223383D02*
X0338860Y0223383D01*
X0338768Y0223383D02*
X0338752Y0223367D01*
X0338702Y0223367D01*
X0338702Y0223333D02*
X0338702Y0223433D01*
X0338752Y0223433D01*
X0338768Y0223417D01*
X0338768Y0223383D01*
X0338676Y0223333D02*
X0338610Y0223333D01*
X0338584Y0223333D02*
X0338551Y0223367D01*
X0338568Y0223367D02*
X0338517Y0223367D01*
X0338517Y0223333D02*
X0338517Y0223433D01*
X0338568Y0223433D01*
X0338584Y0223417D01*
X0338584Y0223383D01*
X0338568Y0223367D01*
X0338610Y0223400D02*
X0338643Y0223433D01*
X0338643Y0223333D01*
X0338492Y0223433D02*
X0338425Y0223433D01*
X0338400Y0223417D02*
X0338400Y0223383D01*
X0338383Y0223367D01*
X0338333Y0223367D01*
X0338333Y0223333D02*
X0338333Y0223433D01*
X0338383Y0223433D01*
X0338400Y0223417D01*
X0338459Y0223433D02*
X0338459Y0223333D01*
X0331804Y0080933D02*
X0331821Y0080917D01*
X0331821Y0080900D01*
X0331804Y0080883D01*
X0331821Y0080867D01*
X0331821Y0080850D01*
X0331804Y0080833D01*
X0331771Y0080833D01*
X0331754Y0080850D01*
X0331729Y0080833D02*
X0331662Y0080833D01*
X0331695Y0080833D02*
X0331695Y0080933D01*
X0331662Y0080900D01*
X0331637Y0080883D02*
X0331570Y0080883D01*
X0331545Y0080833D02*
X0331478Y0080833D01*
X0331453Y0080850D02*
X0331453Y0080917D01*
X0331436Y0080933D01*
X0331386Y0080933D01*
X0331386Y0080833D01*
X0331436Y0080833D01*
X0331453Y0080850D01*
X0331478Y0080900D02*
X0331511Y0080933D01*
X0331511Y0080833D01*
X0331360Y0080833D02*
X0331360Y0080900D01*
X0331327Y0080933D01*
X0331294Y0080900D01*
X0331294Y0080833D01*
X0331294Y0080883D02*
X0331360Y0080883D01*
X0331268Y0080883D02*
X0331252Y0080867D01*
X0331202Y0080867D01*
X0331202Y0080833D02*
X0331202Y0080933D01*
X0331252Y0080933D01*
X0331268Y0080917D01*
X0331268Y0080883D01*
X0331176Y0080833D02*
X0331110Y0080833D01*
X0331084Y0080833D02*
X0331051Y0080867D01*
X0331068Y0080867D02*
X0331017Y0080867D01*
X0331017Y0080833D02*
X0331017Y0080933D01*
X0331068Y0080933D01*
X0331084Y0080917D01*
X0331084Y0080883D01*
X0331068Y0080867D01*
X0331110Y0080900D02*
X0331143Y0080933D01*
X0331143Y0080833D01*
X0330992Y0080933D02*
X0330925Y0080933D01*
X0330900Y0080917D02*
X0330900Y0080883D01*
X0330883Y0080867D01*
X0330833Y0080867D01*
X0330833Y0080833D02*
X0330833Y0080933D01*
X0330883Y0080933D01*
X0330900Y0080917D01*
X0330959Y0080933D02*
X0330959Y0080833D01*
X0331754Y0080917D02*
X0331771Y0080933D01*
X0331804Y0080933D01*
X0331804Y0080883D02*
X0331787Y0080883D01*
X0335833Y0055933D02*
X0335883Y0055933D01*
X0335900Y0055917D01*
X0335900Y0055883D01*
X0335883Y0055867D01*
X0335833Y0055867D01*
X0335833Y0055833D02*
X0335833Y0055933D01*
X0335925Y0055933D02*
X0335992Y0055933D01*
X0336017Y0055933D02*
X0336068Y0055933D01*
X0336084Y0055917D01*
X0336084Y0055883D01*
X0336068Y0055867D01*
X0336017Y0055867D01*
X0336017Y0055833D02*
X0336017Y0055933D01*
X0335959Y0055933D02*
X0335959Y0055833D01*
X0336051Y0055867D02*
X0336084Y0055833D01*
X0336110Y0055833D02*
X0336176Y0055833D01*
X0336202Y0055833D02*
X0336202Y0055933D01*
X0336252Y0055933D01*
X0336268Y0055917D01*
X0336268Y0055883D01*
X0336252Y0055867D01*
X0336202Y0055867D01*
X0336143Y0055833D02*
X0336143Y0055933D01*
X0336110Y0055900D01*
X0336294Y0055900D02*
X0336327Y0055933D01*
X0336360Y0055900D01*
X0336360Y0055833D01*
X0336386Y0055833D02*
X0336436Y0055833D01*
X0336453Y0055850D01*
X0336453Y0055917D01*
X0336436Y0055933D01*
X0336386Y0055933D01*
X0336386Y0055833D01*
X0336360Y0055883D02*
X0336294Y0055883D01*
X0336294Y0055900D02*
X0336294Y0055833D01*
X0336478Y0055833D02*
X0336545Y0055833D01*
X0336511Y0055833D02*
X0336511Y0055933D01*
X0336478Y0055900D01*
X0336570Y0055883D02*
X0336637Y0055883D01*
X0336662Y0055900D02*
X0336695Y0055933D01*
X0336695Y0055833D01*
X0336662Y0055833D02*
X0336729Y0055833D01*
X0336754Y0055850D02*
X0336771Y0055833D01*
X0336804Y0055833D01*
X0336821Y0055850D01*
X0336821Y0055867D01*
X0336804Y0055883D01*
X0336787Y0055883D01*
X0336804Y0055883D02*
X0336821Y0055900D01*
X0336821Y0055917D01*
X0336804Y0055933D01*
X0336771Y0055933D01*
X0336754Y0055917D01*
X0321804Y0020933D02*
X0321821Y0020917D01*
X0321821Y0020900D01*
X0321804Y0020883D01*
X0321821Y0020867D01*
X0321821Y0020850D01*
X0321804Y0020833D01*
X0321771Y0020833D01*
X0321754Y0020850D01*
X0321729Y0020833D02*
X0321662Y0020833D01*
X0321695Y0020833D02*
X0321695Y0020933D01*
X0321662Y0020900D01*
X0321637Y0020883D02*
X0321570Y0020883D01*
X0321545Y0020833D02*
X0321478Y0020833D01*
X0321453Y0020850D02*
X0321453Y0020917D01*
X0321436Y0020933D01*
X0321386Y0020933D01*
X0321386Y0020833D01*
X0321436Y0020833D01*
X0321453Y0020850D01*
X0321478Y0020900D02*
X0321511Y0020933D01*
X0321511Y0020833D01*
X0321360Y0020833D02*
X0321360Y0020900D01*
X0321327Y0020933D01*
X0321294Y0020900D01*
X0321294Y0020833D01*
X0321294Y0020883D02*
X0321360Y0020883D01*
X0321268Y0020883D02*
X0321252Y0020867D01*
X0321202Y0020867D01*
X0321202Y0020833D02*
X0321202Y0020933D01*
X0321252Y0020933D01*
X0321268Y0020917D01*
X0321268Y0020883D01*
X0321176Y0020833D02*
X0321110Y0020833D01*
X0321084Y0020833D02*
X0321051Y0020867D01*
X0321068Y0020867D02*
X0321017Y0020867D01*
X0321017Y0020833D02*
X0321017Y0020933D01*
X0321068Y0020933D01*
X0321084Y0020917D01*
X0321084Y0020883D01*
X0321068Y0020867D01*
X0321110Y0020900D02*
X0321143Y0020933D01*
X0321143Y0020833D01*
X0320992Y0020933D02*
X0320925Y0020933D01*
X0320900Y0020917D02*
X0320900Y0020883D01*
X0320883Y0020867D01*
X0320833Y0020867D01*
X0320833Y0020833D02*
X0320833Y0020933D01*
X0320883Y0020933D01*
X0320900Y0020917D01*
X0320959Y0020933D02*
X0320959Y0020833D01*
X0321754Y0020917D02*
X0321771Y0020933D01*
X0321804Y0020933D01*
X0321804Y0020883D02*
X0321787Y0020883D01*
M02*
