%
M48
M72
T01C0.0120
T02C0.0200
T03C0.0236
T04C0.0315
T05C0.0320
T06C0.0360
T07C0.0394
T08C0.0400
T09C0.0520
%
T01
X16208Y10333
X16333Y18083
X17458Y18583
X17458Y19958
X19208Y18583
X19958Y18333
X17333Y21583
X30583Y20333
X31833Y20083
X32083Y21083
X31083Y9333
T02
X19833Y21146
X21521Y22333
X15833Y22021
X9208Y24333
X7458Y22021
T03
X7583Y15833
X7583Y15333
X7083Y15333
X7083Y15833
X6583Y15833
X6583Y15333
X6583Y14833
X6583Y14333
X6583Y13833
X7083Y14333
X7583Y14333
X8083Y14333
X8083Y14833
X7583Y14833
X7083Y14833
X8083Y15333
X8083Y15833
X8583Y15833
X8583Y15333
X9083Y15333
X9083Y15833
X9583Y15833
X9583Y15333
X10083Y15333
X10083Y15833
X10583Y15833
X10583Y15333
X11083Y15333
X11083Y15833
X11583Y15833
X11583Y15333
X11583Y14833
X11083Y14833
X10583Y14833
X10083Y14833
X9583Y14833
X9083Y14833
X8583Y14833
X8583Y14333
X9083Y14333
X9583Y14333
X9333Y13833
X8833Y13833
X8333Y13833
X8333Y13333
X8833Y13333
X8333Y12333
X8333Y11833
X8833Y11833
X9333Y11833
X9083Y11333
X8583Y11333
X8583Y10833
X9083Y10833
X9583Y10833
X10083Y10833
X10083Y10333
X9583Y10333
X9083Y10333
X8583Y10333
X8583Y9833
X9083Y9833
X9583Y9833
X10083Y9833
X10583Y9833
X11083Y9833
X11583Y9833
X11583Y10333
X11083Y10333
X10583Y10333
X10583Y10833
X11083Y10833
X11583Y10833
X11583Y11333
X11083Y11333
X11583Y11833
X12083Y11833
X12583Y11833
X13083Y11833
X13583Y11833
X13583Y11333
X13083Y11333
X12583Y11333
X12083Y11333
X12083Y10833
X12583Y10833
X13083Y10833
X13583Y10833
X13583Y10333
X13083Y10333
X12583Y10333
X12083Y10333
X12083Y9833
X12583Y9833
X13083Y9833
X13583Y9833
X14083Y9833
X14583Y9833
X15083Y9833
X15083Y10333
X14583Y10333
X14083Y10333
X14083Y10833
X14583Y10833
X15083Y10833
X14083Y11333
X13583Y13833
X13083Y13833
X12583Y13833
X12083Y13833
X11583Y13833
X11583Y14333
X11083Y14333
X12083Y14333
X12583Y14333
X13083Y14333
X13583Y14333
X13583Y14833
X13083Y14833
X12583Y14833
X12083Y14833
X12083Y15333
X12083Y15833
X12583Y15833
X12583Y15333
X13083Y15333
X13083Y15833
X13583Y15833
X13583Y15333
X14083Y15333
X14083Y15833
X14583Y15833
X14583Y15333
X15083Y15333
X15083Y15833
X15083Y14833
X14583Y14833
X14083Y14833
X14083Y14333
X9583Y11333
X8083Y11333
X7583Y11333
X7083Y11333
X7083Y10833
X7583Y10833
X8083Y10833
X8083Y10333
X7583Y10333
X7083Y10333
X7083Y9833
X7583Y9833
X8083Y9833
X6583Y9833
X6583Y10333
X6583Y10833
X6583Y11333
X6583Y11833
T04
X6833Y16833
X7833Y16833
X8833Y16833
X9833Y16833
X10833Y16833
X11833Y16833
X12833Y16833
X13833Y16833
X14833Y16833
X15833Y16833
X16833Y16833
X17833Y16833
X18833Y16833
X19833Y16833
X20833Y16833
X20333Y18833
X21333Y18833
X21333Y19833
X20333Y19833
X20333Y20833
X21333Y20833
X20833Y22833
X19833Y22833
X18833Y22833
X17833Y22833
X16833Y22833
X15833Y22833
X14833Y22833
X13833Y22833
X12833Y22833
X11833Y22833
X10833Y22833
X9833Y22833
X8833Y22833
X7833Y22833
X6833Y22833
T05
X6833Y6333
X7833Y6333
X8833Y8083
X11833Y8083
X12833Y8083
X15833Y8083
X19833Y7833
X20833Y7833
X22833Y7833
T06
X22333Y12333
X22333Y13333
X22333Y14333
X19333Y14333
X19333Y13333
X19333Y12333
T07
X10333Y11833
X10333Y12833
X10333Y13833
X7333Y13333
X7333Y12333
T08
X14833Y11833
X14833Y13833
X14333Y5833
X13333Y5733
X12333Y5833
X11333Y5733
X10333Y5833
X15333Y5733
X17333Y5883
X18333Y5783
X19333Y5883
X20333Y5783
X21333Y5883
X22333Y5783
X23333Y5883
X24333Y5783
X26333Y5883
X27333Y5783
X28333Y5883
X29333Y5783
X30333Y5883
X31333Y5783
X32333Y5883
X33333Y5783
X33333Y14833
X32333Y14833
X31333Y14833
X31333Y24783
X30333Y24883
X29333Y24783
X28333Y24883
X27333Y24783
X26333Y24883
X25333Y24783
X24333Y24883
X22333Y24783
X21333Y24883
X20333Y24783
X19333Y24883
X18333Y24783
X17333Y24883
X16333Y24783
X15333Y24883
X13833Y24783
X12833Y24883
X11833Y24783
X10833Y24883
X9833Y24783
X8833Y24883
X7833Y24783
X6833Y24883
T09
X33583Y24333
X33583Y23333
X33583Y22333
X33583Y21333
X33583Y20333
X33583Y19333
X33583Y18333
X33583Y17333
X33583Y10083
X33583Y9083
X33583Y8083
X33583Y7083
M30
