G75*
%MOIN*%
%OFA0B0*%
%FSLAX25Y25*%
%IPPOS*%
%LPD*%
%AMOC8*
5,1,8,0,0,1.08239X$1,22.5*
%
%ADD10C,0.00800*%
%ADD11C,0.01100*%
%ADD12R,0.07400X0.07400*%
%ADD13C,0.07400*%
%ADD14C,0.05150*%
%ADD15C,0.05150*%
%ADD16C,0.05200*%
%ADD17C,0.10000*%
%ADD18OC8,0.10000*%
%ADD19C,0.05937*%
%ADD20C,0.06000*%
%ADD21OC8,0.05200*%
%ADD22C,0.05600*%
%ADD23OC8,0.08500*%
%ADD24R,0.03962X0.03962*%
%ADD25C,0.03000*%
%ADD26C,0.03600*%
%ADD27C,0.01000*%
%ADD28C,0.02800*%
D10*
X0068333Y0048333D02*
X0333333Y0048333D01*
X0333575Y0048336D01*
X0333816Y0048345D01*
X0334057Y0048359D01*
X0334298Y0048380D01*
X0334538Y0048406D01*
X0334778Y0048438D01*
X0335017Y0048476D01*
X0335254Y0048519D01*
X0335491Y0048569D01*
X0335726Y0048624D01*
X0335960Y0048684D01*
X0336192Y0048751D01*
X0336423Y0048822D01*
X0336652Y0048900D01*
X0336879Y0048983D01*
X0337104Y0049071D01*
X0337327Y0049165D01*
X0337547Y0049264D01*
X0337765Y0049369D01*
X0337980Y0049478D01*
X0338193Y0049593D01*
X0338403Y0049713D01*
X0338609Y0049838D01*
X0338813Y0049968D01*
X0339014Y0050103D01*
X0339211Y0050243D01*
X0339405Y0050387D01*
X0339595Y0050536D01*
X0339781Y0050690D01*
X0339964Y0050848D01*
X0340143Y0051010D01*
X0340318Y0051177D01*
X0340489Y0051348D01*
X0340656Y0051523D01*
X0340818Y0051702D01*
X0340976Y0051885D01*
X0341130Y0052071D01*
X0341279Y0052261D01*
X0341423Y0052455D01*
X0341563Y0052652D01*
X0341698Y0052853D01*
X0341828Y0053057D01*
X0341953Y0053263D01*
X0342073Y0053473D01*
X0342188Y0053686D01*
X0342297Y0053901D01*
X0342402Y0054119D01*
X0342501Y0054339D01*
X0342595Y0054562D01*
X0342683Y0054787D01*
X0342766Y0055014D01*
X0342844Y0055243D01*
X0342915Y0055474D01*
X0342982Y0055706D01*
X0343042Y0055940D01*
X0343097Y0056175D01*
X0343147Y0056412D01*
X0343190Y0056649D01*
X0343228Y0056888D01*
X0343260Y0057128D01*
X0343286Y0057368D01*
X0343307Y0057609D01*
X0343321Y0057850D01*
X0343330Y0058091D01*
X0343333Y0058333D01*
X0343333Y0248333D01*
X0343330Y0248575D01*
X0343321Y0248816D01*
X0343307Y0249057D01*
X0343286Y0249298D01*
X0343260Y0249538D01*
X0343228Y0249778D01*
X0343190Y0250017D01*
X0343147Y0250254D01*
X0343097Y0250491D01*
X0343042Y0250726D01*
X0342982Y0250960D01*
X0342915Y0251192D01*
X0342844Y0251423D01*
X0342766Y0251652D01*
X0342683Y0251879D01*
X0342595Y0252104D01*
X0342501Y0252327D01*
X0342402Y0252547D01*
X0342297Y0252765D01*
X0342188Y0252980D01*
X0342073Y0253193D01*
X0341953Y0253403D01*
X0341828Y0253609D01*
X0341698Y0253813D01*
X0341563Y0254014D01*
X0341423Y0254211D01*
X0341279Y0254405D01*
X0341130Y0254595D01*
X0340976Y0254781D01*
X0340818Y0254964D01*
X0340656Y0255143D01*
X0340489Y0255318D01*
X0340318Y0255489D01*
X0340143Y0255656D01*
X0339964Y0255818D01*
X0339781Y0255976D01*
X0339595Y0256130D01*
X0339405Y0256279D01*
X0339211Y0256423D01*
X0339014Y0256563D01*
X0338813Y0256698D01*
X0338609Y0256828D01*
X0338403Y0256953D01*
X0338193Y0257073D01*
X0337980Y0257188D01*
X0337765Y0257297D01*
X0337547Y0257402D01*
X0337327Y0257501D01*
X0337104Y0257595D01*
X0336879Y0257683D01*
X0336652Y0257766D01*
X0336423Y0257844D01*
X0336192Y0257915D01*
X0335960Y0257982D01*
X0335726Y0258042D01*
X0335491Y0258097D01*
X0335254Y0258147D01*
X0335017Y0258190D01*
X0334778Y0258228D01*
X0334538Y0258260D01*
X0334298Y0258286D01*
X0334057Y0258307D01*
X0333816Y0258321D01*
X0333575Y0258330D01*
X0333333Y0258333D01*
X0068333Y0258333D01*
X0068091Y0258330D01*
X0067850Y0258321D01*
X0067609Y0258307D01*
X0067368Y0258286D01*
X0067128Y0258260D01*
X0066888Y0258228D01*
X0066649Y0258190D01*
X0066412Y0258147D01*
X0066175Y0258097D01*
X0065940Y0258042D01*
X0065706Y0257982D01*
X0065474Y0257915D01*
X0065243Y0257844D01*
X0065014Y0257766D01*
X0064787Y0257683D01*
X0064562Y0257595D01*
X0064339Y0257501D01*
X0064119Y0257402D01*
X0063901Y0257297D01*
X0063686Y0257188D01*
X0063473Y0257073D01*
X0063263Y0256953D01*
X0063057Y0256828D01*
X0062853Y0256698D01*
X0062652Y0256563D01*
X0062455Y0256423D01*
X0062261Y0256279D01*
X0062071Y0256130D01*
X0061885Y0255976D01*
X0061702Y0255818D01*
X0061523Y0255656D01*
X0061348Y0255489D01*
X0061177Y0255318D01*
X0061010Y0255143D01*
X0060848Y0254964D01*
X0060690Y0254781D01*
X0060536Y0254595D01*
X0060387Y0254405D01*
X0060243Y0254211D01*
X0060103Y0254014D01*
X0059968Y0253813D01*
X0059838Y0253609D01*
X0059713Y0253403D01*
X0059593Y0253193D01*
X0059478Y0252980D01*
X0059369Y0252765D01*
X0059264Y0252547D01*
X0059165Y0252327D01*
X0059071Y0252104D01*
X0058983Y0251879D01*
X0058900Y0251652D01*
X0058822Y0251423D01*
X0058751Y0251192D01*
X0058684Y0250960D01*
X0058624Y0250726D01*
X0058569Y0250491D01*
X0058519Y0250254D01*
X0058476Y0250017D01*
X0058438Y0249778D01*
X0058406Y0249538D01*
X0058380Y0249298D01*
X0058359Y0249057D01*
X0058345Y0248816D01*
X0058336Y0248575D01*
X0058333Y0248333D01*
X0058333Y0058333D01*
X0058336Y0058091D01*
X0058345Y0057850D01*
X0058359Y0057609D01*
X0058380Y0057368D01*
X0058406Y0057128D01*
X0058438Y0056888D01*
X0058476Y0056649D01*
X0058519Y0056412D01*
X0058569Y0056175D01*
X0058624Y0055940D01*
X0058684Y0055706D01*
X0058751Y0055474D01*
X0058822Y0055243D01*
X0058900Y0055014D01*
X0058983Y0054787D01*
X0059071Y0054562D01*
X0059165Y0054339D01*
X0059264Y0054119D01*
X0059369Y0053901D01*
X0059478Y0053686D01*
X0059593Y0053473D01*
X0059713Y0053263D01*
X0059838Y0053057D01*
X0059968Y0052853D01*
X0060103Y0052652D01*
X0060243Y0052455D01*
X0060387Y0052261D01*
X0060536Y0052071D01*
X0060690Y0051885D01*
X0060848Y0051702D01*
X0061010Y0051523D01*
X0061177Y0051348D01*
X0061348Y0051177D01*
X0061523Y0051010D01*
X0061702Y0050848D01*
X0061885Y0050690D01*
X0062071Y0050536D01*
X0062261Y0050387D01*
X0062455Y0050243D01*
X0062652Y0050103D01*
X0062853Y0049968D01*
X0063057Y0049838D01*
X0063263Y0049713D01*
X0063473Y0049593D01*
X0063686Y0049478D01*
X0063901Y0049369D01*
X0064119Y0049264D01*
X0064339Y0049165D01*
X0064562Y0049071D01*
X0064787Y0048983D01*
X0065014Y0048900D01*
X0065243Y0048822D01*
X0065474Y0048751D01*
X0065706Y0048684D01*
X0065940Y0048624D01*
X0066175Y0048569D01*
X0066412Y0048519D01*
X0066649Y0048476D01*
X0066888Y0048438D01*
X0067128Y0048406D01*
X0067368Y0048380D01*
X0067609Y0048359D01*
X0067850Y0048345D01*
X0068091Y0048336D01*
X0068333Y0048333D01*
D11*
X0175852Y0263883D02*
X0175852Y0269788D01*
X0177820Y0269788D02*
X0173883Y0269788D01*
X0180329Y0268804D02*
X0180329Y0264867D01*
X0181313Y0263883D01*
X0183281Y0263883D01*
X0184266Y0264867D01*
X0184266Y0268804D01*
X0183281Y0269788D01*
X0181313Y0269788D01*
X0180329Y0268804D01*
X0186774Y0269788D02*
X0186774Y0263883D01*
X0186774Y0265852D02*
X0189727Y0265852D01*
X0190711Y0266836D01*
X0190711Y0268804D01*
X0189727Y0269788D01*
X0186774Y0269788D01*
X0199665Y0268804D02*
X0199665Y0264867D01*
X0200649Y0263883D01*
X0202618Y0263883D01*
X0203602Y0264867D01*
X0206111Y0264867D02*
X0207095Y0263883D01*
X0209063Y0263883D01*
X0210048Y0264867D01*
X0210048Y0268804D01*
X0209063Y0269788D01*
X0207095Y0269788D01*
X0206111Y0268804D01*
X0206111Y0264867D01*
X0212556Y0263883D02*
X0212556Y0269788D01*
X0215509Y0269788D01*
X0216493Y0268804D01*
X0216493Y0266836D01*
X0215509Y0265852D01*
X0212556Y0265852D01*
X0219002Y0265852D02*
X0221954Y0265852D01*
X0222938Y0266836D01*
X0222938Y0268804D01*
X0221954Y0269788D01*
X0219002Y0269788D01*
X0219002Y0263883D01*
X0225447Y0263883D02*
X0225447Y0269788D01*
X0229384Y0269788D01*
X0231893Y0269788D02*
X0234845Y0269788D01*
X0235829Y0268804D01*
X0235829Y0266836D01*
X0234845Y0265852D01*
X0231893Y0265852D01*
X0233861Y0265852D02*
X0235829Y0263883D01*
X0231893Y0263883D02*
X0231893Y0269788D01*
X0227416Y0266836D02*
X0225447Y0266836D01*
X0225447Y0263883D02*
X0229384Y0263883D01*
X0203602Y0268804D02*
X0202618Y0269788D01*
X0200649Y0269788D01*
X0199665Y0268804D01*
D12*
X0223333Y0247833D03*
X0243333Y0248833D03*
X0138333Y0247833D03*
X0173333Y0058833D03*
X0263333Y0058833D03*
D13*
X0273333Y0057833D03*
X0283333Y0058833D03*
X0293333Y0057833D03*
X0303333Y0058833D03*
X0313333Y0057833D03*
X0323333Y0058833D03*
X0333333Y0057833D03*
X0243333Y0057833D03*
X0233333Y0058833D03*
X0223333Y0057833D03*
X0213333Y0058833D03*
X0203333Y0057833D03*
X0193333Y0058833D03*
X0183333Y0057833D03*
X0153333Y0057333D03*
X0143333Y0058333D03*
X0133333Y0057333D03*
X0123333Y0058333D03*
X0113333Y0057333D03*
X0103333Y0058333D03*
X0098333Y0247833D03*
X0108333Y0248833D03*
X0118333Y0247833D03*
X0128333Y0248833D03*
X0153333Y0248833D03*
X0163333Y0247833D03*
X0173333Y0248833D03*
X0183333Y0247833D03*
X0193333Y0248833D03*
X0203333Y0247833D03*
X0213333Y0248833D03*
X0253333Y0247833D03*
X0263333Y0248833D03*
X0273333Y0247833D03*
X0283333Y0248833D03*
X0293333Y0247833D03*
X0303333Y0248833D03*
X0313333Y0247833D03*
X0088333Y0248833D03*
X0078333Y0247833D03*
X0068333Y0248833D03*
D14*
X0068333Y0230908D02*
X0068333Y0225759D01*
X0078333Y0225759D02*
X0078333Y0230908D01*
X0088333Y0230908D02*
X0088333Y0225759D01*
X0098333Y0225759D02*
X0098333Y0230908D01*
X0108333Y0230908D02*
X0108333Y0225759D01*
X0118333Y0225759D02*
X0118333Y0230908D01*
X0128333Y0230908D02*
X0128333Y0225759D01*
X0138333Y0225759D02*
X0138333Y0230908D01*
X0148333Y0230908D02*
X0148333Y0225759D01*
X0158333Y0225759D02*
X0158333Y0230908D01*
X0168333Y0230908D02*
X0168333Y0225759D01*
X0178333Y0225759D02*
X0178333Y0230908D01*
X0188333Y0230908D02*
X0188333Y0225759D01*
X0198333Y0225759D02*
X0198333Y0230908D01*
X0208333Y0230908D02*
X0208333Y0225759D01*
X0208333Y0170908D02*
X0208333Y0165759D01*
X0198333Y0165759D02*
X0198333Y0170908D01*
X0188333Y0170908D02*
X0188333Y0165759D01*
X0178333Y0165759D02*
X0178333Y0170908D01*
X0168333Y0170908D02*
X0168333Y0165759D01*
X0158333Y0165759D02*
X0158333Y0170908D01*
X0148333Y0170908D02*
X0148333Y0165759D01*
X0138333Y0165759D02*
X0138333Y0170908D01*
X0128333Y0170908D02*
X0128333Y0165759D01*
X0118333Y0165759D02*
X0118333Y0170908D01*
X0108333Y0170908D02*
X0108333Y0165759D01*
X0098333Y0165759D02*
X0098333Y0170908D01*
X0088333Y0170908D02*
X0088333Y0165759D01*
X0078333Y0165759D02*
X0078333Y0170908D01*
X0068333Y0170908D02*
X0068333Y0165759D01*
D15*
X0203333Y0188333D03*
X0213333Y0188333D03*
X0213333Y0198333D03*
X0203333Y0198333D03*
X0203333Y0208333D03*
X0213333Y0208333D03*
D16*
X0208333Y0080933D02*
X0208333Y0075733D01*
X0198333Y0075733D02*
X0198333Y0080933D01*
X0228333Y0080933D02*
X0228333Y0075733D01*
D17*
X0148333Y0138333D03*
D18*
X0148333Y0118333D03*
D19*
X0106302Y0118333D02*
X0100365Y0118333D01*
X0100365Y0128333D02*
X0106302Y0128333D01*
X0106302Y0138333D02*
X0100365Y0138333D01*
X0076302Y0133333D02*
X0070365Y0133333D01*
X0070365Y0123333D02*
X0076302Y0123333D01*
D20*
X0073333Y0123333D02*
X0082870Y0123333D01*
X0073333Y0123333D01*
X0073333Y0123333D01*
X0073333Y0116765D01*
X0069934Y0116765D01*
X0069081Y0116877D01*
X0068249Y0117100D01*
X0067453Y0117430D01*
X0066708Y0117860D01*
X0066025Y0118384D01*
X0065416Y0118993D01*
X0064892Y0119676D01*
X0064461Y0120422D01*
X0064132Y0121217D01*
X0063909Y0122049D01*
X0063796Y0122903D01*
X0063796Y0123333D01*
X0073333Y0123333D01*
X0073333Y0123333D01*
X0073333Y0123333D01*
X0073333Y0116765D01*
X0069934Y0116765D01*
X0069081Y0116877D01*
X0068249Y0117100D01*
X0067453Y0117430D01*
X0066708Y0117860D01*
X0066025Y0118384D01*
X0065833Y0118576D01*
X0065833Y0098333D01*
X0150833Y0098333D01*
X0150833Y0109733D01*
X0148333Y0109733D01*
X0148333Y0118333D01*
X0148333Y0118333D01*
X0139733Y0118333D01*
X0139733Y0114771D01*
X0144771Y0109733D01*
X0148333Y0109733D01*
X0148333Y0118333D01*
X0148333Y0118333D01*
X0148333Y0118333D01*
X0139733Y0118333D01*
X0139733Y0114771D01*
X0144771Y0109733D01*
X0148333Y0109733D01*
X0151896Y0109733D01*
X0152383Y0110221D01*
X0152383Y0084500D01*
X0151533Y0083650D01*
X0151533Y0078033D01*
X0137780Y0078033D01*
X0135133Y0080680D01*
X0135133Y0083650D01*
X0131150Y0087633D01*
X0125517Y0087633D01*
X0123333Y0085450D01*
X0121150Y0087633D01*
X0115517Y0087633D01*
X0111533Y0083650D01*
X0111533Y0078017D01*
X0115517Y0074033D01*
X0121150Y0074033D01*
X0123333Y0076217D01*
X0125517Y0074033D01*
X0128487Y0074033D01*
X0131849Y0070671D01*
X0133171Y0069349D01*
X0134898Y0068633D01*
X0173018Y0068633D01*
X0174746Y0069349D01*
X0176068Y0070671D01*
X0176783Y0072398D01*
X0176783Y0159068D01*
X0176986Y0158984D01*
X0178633Y0158984D01*
X0178633Y0129898D01*
X0179349Y0128171D01*
X0183533Y0123987D01*
X0183533Y0121941D01*
X0184599Y0119368D01*
X0186568Y0117399D01*
X0189141Y0116333D01*
X0197526Y0116333D01*
X0200098Y0117399D01*
X0202068Y0119368D01*
X0203133Y0121941D01*
X0203133Y0124726D01*
X0202068Y0127298D01*
X0200609Y0128758D01*
X0200955Y0129104D01*
X0201466Y0129770D01*
X0201886Y0130497D01*
X0202207Y0131272D01*
X0202424Y0132082D01*
X0202533Y0132914D01*
X0202533Y0133333D01*
X0193333Y0133333D01*
X0193333Y0133333D01*
X0202533Y0133333D01*
X0202533Y0133753D01*
X0202424Y0134585D01*
X0202237Y0135283D01*
X0213533Y0123987D01*
X0213533Y0121941D01*
X0214599Y0119368D01*
X0216568Y0117399D01*
X0219141Y0116333D01*
X0227526Y0116333D01*
X0230098Y0117399D01*
X0232068Y0119368D01*
X0233133Y0121941D01*
X0233133Y0124726D01*
X0232068Y0127298D01*
X0231033Y0128333D01*
X0232068Y0129368D01*
X0233133Y0131941D01*
X0233133Y0134726D01*
X0232068Y0137298D01*
X0231033Y0138333D01*
X0232068Y0139368D01*
X0233133Y0141941D01*
X0233133Y0144726D01*
X0232068Y0147298D01*
X0230098Y0149268D01*
X0228033Y0150123D01*
X0228033Y0179268D01*
X0227318Y0180996D01*
X0225996Y0182318D01*
X0224268Y0183033D01*
X0217614Y0183033D01*
X0219077Y0184496D01*
X0220108Y0186986D01*
X0220108Y0189681D01*
X0219077Y0192171D01*
X0217914Y0193333D01*
X0219077Y0194496D01*
X0220108Y0196986D01*
X0220108Y0199681D01*
X0219077Y0202171D01*
X0217914Y0203333D01*
X0219077Y0204496D01*
X0220108Y0206986D01*
X0220108Y0209681D01*
X0219077Y0212171D01*
X0217171Y0214077D01*
X0214681Y0215108D01*
X0211986Y0215108D01*
X0209496Y0214077D01*
X0208333Y0212914D01*
X0207171Y0214077D01*
X0204681Y0215108D01*
X0201986Y0215108D01*
X0199496Y0214077D01*
X0197590Y0212171D01*
X0196559Y0209681D01*
X0196559Y0206986D01*
X0197590Y0204496D01*
X0198752Y0203333D01*
X0197590Y0202171D01*
X0196559Y0199681D01*
X0196559Y0196986D01*
X0197590Y0194496D01*
X0198752Y0193333D01*
X0197590Y0192171D01*
X0196559Y0189681D01*
X0196559Y0189278D01*
X0195255Y0190581D01*
X0193197Y0191433D01*
X0190969Y0191433D01*
X0189846Y0190968D01*
X0180183Y0200630D01*
X0180183Y0200697D01*
X0179331Y0202755D01*
X0177755Y0204331D01*
X0176783Y0204733D01*
X0176783Y0211364D01*
X0178081Y0212661D01*
X0178933Y0214719D01*
X0178933Y0216947D01*
X0178090Y0218984D01*
X0179681Y0218984D01*
X0182171Y0220015D01*
X0183333Y0221178D01*
X0184496Y0220015D01*
X0186986Y0218984D01*
X0189681Y0218984D01*
X0192171Y0220015D01*
X0193333Y0221178D01*
X0194496Y0220015D01*
X0196986Y0218984D01*
X0199681Y0218984D01*
X0202171Y0220015D01*
X0203333Y0221178D01*
X0204496Y0220015D01*
X0206986Y0218984D01*
X0209681Y0218984D01*
X0212171Y0220015D01*
X0214077Y0221921D01*
X0215108Y0224411D01*
X0215108Y0232256D01*
X0214077Y0234746D01*
X0212171Y0236652D01*
X0209681Y0237683D01*
X0206986Y0237683D01*
X0204496Y0236652D01*
X0203333Y0235489D01*
X0202171Y0236652D01*
X0199681Y0237683D01*
X0196986Y0237683D01*
X0194496Y0236652D01*
X0193333Y0235489D01*
X0192171Y0236652D01*
X0189681Y0237683D01*
X0186986Y0237683D01*
X0184496Y0236652D01*
X0183333Y0235489D01*
X0182171Y0236652D01*
X0179681Y0237683D01*
X0176986Y0237683D01*
X0176783Y0237599D01*
X0176783Y0241711D01*
X0177808Y0242136D01*
X0177833Y0242161D01*
X0178858Y0241136D01*
X0181762Y0239933D01*
X0184905Y0239933D01*
X0187808Y0241136D01*
X0188833Y0242161D01*
X0188858Y0242136D01*
X0191762Y0240933D01*
X0194905Y0240933D01*
X0197808Y0242136D01*
X0197833Y0242161D01*
X0198858Y0241136D01*
X0201762Y0239933D01*
X0204905Y0239933D01*
X0207808Y0241136D01*
X0208833Y0242161D01*
X0208858Y0242136D01*
X0211762Y0240933D01*
X0214905Y0240933D01*
X0216311Y0241516D01*
X0217254Y0240573D01*
X0218798Y0239933D01*
X0227869Y0239933D01*
X0229412Y0240573D01*
X0230594Y0241754D01*
X0231233Y0243298D01*
X0231233Y0252369D01*
X0230999Y0252933D01*
X0235433Y0252933D01*
X0235433Y0244298D01*
X0236073Y0242754D01*
X0237254Y0241573D01*
X0238798Y0240933D01*
X0247869Y0240933D01*
X0248712Y0241283D01*
X0248858Y0241136D01*
X0251762Y0239933D01*
X0254905Y0239933D01*
X0257808Y0241136D01*
X0258833Y0242161D01*
X0258858Y0242136D01*
X0261462Y0241057D01*
X0300233Y0202287D01*
X0300233Y0202219D01*
X0301086Y0200161D01*
X0302661Y0198586D01*
X0304719Y0197733D01*
X0306947Y0197733D01*
X0309005Y0198586D01*
X0310581Y0200161D01*
X0311102Y0201418D01*
X0312733Y0199787D01*
X0312733Y0199719D01*
X0313586Y0197661D01*
X0315161Y0196086D01*
X0316133Y0195683D01*
X0316133Y0157398D01*
X0316174Y0157300D01*
X0315459Y0157596D01*
X0314624Y0157820D01*
X0313766Y0157933D01*
X0313333Y0157933D01*
X0312901Y0157933D01*
X0312043Y0157820D01*
X0311207Y0157596D01*
X0310408Y0157265D01*
X0309659Y0156833D01*
X0308972Y0156306D01*
X0308361Y0155694D01*
X0307834Y0155008D01*
X0307401Y0154259D01*
X0307070Y0153459D01*
X0306846Y0152624D01*
X0306733Y0151766D01*
X0306733Y0148333D01*
X0306733Y0144901D01*
X0306846Y0144043D01*
X0307070Y0143207D01*
X0307401Y0142408D01*
X0307834Y0141659D01*
X0308361Y0140972D01*
X0308972Y0140361D01*
X0309659Y0139834D01*
X0310408Y0139401D01*
X0311207Y0139070D01*
X0312043Y0138846D01*
X0312901Y0138733D01*
X0313333Y0138733D01*
X0313333Y0148333D01*
X0313333Y0148333D01*
X0306733Y0148333D01*
X0313333Y0148333D01*
X0313333Y0148333D01*
X0313333Y0138733D01*
X0313766Y0138733D01*
X0314624Y0138846D01*
X0315459Y0139070D01*
X0316259Y0139401D01*
X0317008Y0139834D01*
X0317694Y0140361D01*
X0317909Y0140575D01*
X0319255Y0139229D01*
X0320608Y0138669D01*
X0277222Y0095283D01*
X0208450Y0095283D01*
X0206355Y0094416D01*
X0204751Y0092812D01*
X0203883Y0090717D01*
X0203883Y0086100D01*
X0202909Y0085126D01*
X0202372Y0085662D01*
X0201583Y0086236D01*
X0200713Y0086679D01*
X0199785Y0086981D01*
X0198821Y0087133D01*
X0198333Y0087133D01*
X0197845Y0087133D01*
X0196881Y0086981D01*
X0195953Y0086679D01*
X0195084Y0086236D01*
X0194294Y0085662D01*
X0193604Y0084972D01*
X0193031Y0084183D01*
X0192588Y0083313D01*
X0192286Y0082385D01*
X0192133Y0081421D01*
X0192133Y0078333D01*
X0192133Y0075245D01*
X0192286Y0074281D01*
X0192588Y0073353D01*
X0193031Y0072484D01*
X0193604Y0071694D01*
X0194294Y0071004D01*
X0195084Y0070431D01*
X0195953Y0069988D01*
X0196881Y0069686D01*
X0197845Y0069533D01*
X0198333Y0069533D01*
X0198333Y0078333D01*
X0198333Y0078333D01*
X0192133Y0078333D01*
X0198333Y0078333D01*
X0198333Y0078333D01*
X0198333Y0069533D01*
X0198821Y0069533D01*
X0199785Y0069686D01*
X0200713Y0069988D01*
X0201583Y0070431D01*
X0202372Y0071004D01*
X0202909Y0071541D01*
X0204481Y0069969D01*
X0206981Y0068933D01*
X0209686Y0068933D01*
X0212185Y0069969D01*
X0214098Y0071881D01*
X0215133Y0074381D01*
X0215133Y0081837D01*
X0215283Y0082200D01*
X0215283Y0083883D01*
X0222195Y0083883D01*
X0221533Y0082286D01*
X0221533Y0074381D01*
X0222569Y0071881D01*
X0224481Y0069969D01*
X0226981Y0068933D01*
X0229686Y0068933D01*
X0232185Y0069969D01*
X0234098Y0071881D01*
X0235133Y0074381D01*
X0235133Y0082286D01*
X0234472Y0083883D01*
X0280717Y0083883D01*
X0282812Y0084751D01*
X0284416Y0086355D01*
X0336916Y0138855D01*
X0337000Y0139059D01*
X0337412Y0139229D01*
X0337933Y0139751D01*
X0337933Y0109283D01*
X0332333Y0109283D01*
X0327383Y0104333D01*
X0327383Y0097333D01*
X0328883Y0095833D01*
X0327383Y0094333D01*
X0327383Y0087333D01*
X0328883Y0085833D01*
X0327383Y0084333D01*
X0327383Y0083430D01*
X0316433Y0094380D01*
X0316433Y0094447D01*
X0315581Y0096505D01*
X0314005Y0098081D01*
X0311947Y0098933D01*
X0309719Y0098933D01*
X0307661Y0098081D01*
X0306086Y0096505D01*
X0305233Y0094447D01*
X0305233Y0092219D01*
X0306086Y0090161D01*
X0307661Y0088586D01*
X0309719Y0087733D01*
X0309787Y0087733D01*
X0327383Y0070137D01*
X0327383Y0067333D01*
X0329797Y0064919D01*
X0328858Y0064531D01*
X0328833Y0064506D01*
X0327808Y0065531D01*
X0324905Y0066733D01*
X0321762Y0066733D01*
X0318858Y0065531D01*
X0317833Y0064506D01*
X0317808Y0064531D01*
X0314905Y0065733D01*
X0311762Y0065733D01*
X0308858Y0064531D01*
X0308833Y0064506D01*
X0307808Y0065531D01*
X0304905Y0066733D01*
X0301762Y0066733D01*
X0298858Y0065531D01*
X0297833Y0064506D01*
X0297808Y0064531D01*
X0294905Y0065733D01*
X0291762Y0065733D01*
X0288858Y0064531D01*
X0288833Y0064506D01*
X0287808Y0065531D01*
X0284905Y0066733D01*
X0281762Y0066733D01*
X0278858Y0065531D01*
X0277833Y0064506D01*
X0277808Y0064531D01*
X0274905Y0065733D01*
X0271762Y0065733D01*
X0270356Y0065151D01*
X0269412Y0066094D01*
X0267869Y0066733D01*
X0258798Y0066733D01*
X0257254Y0066094D01*
X0256073Y0064912D01*
X0255433Y0063369D01*
X0255433Y0054298D01*
X0255667Y0053733D01*
X0250186Y0053733D01*
X0251233Y0056262D01*
X0251233Y0059405D01*
X0250031Y0062308D01*
X0247808Y0064531D01*
X0244905Y0065733D01*
X0241762Y0065733D01*
X0238858Y0064531D01*
X0238833Y0064506D01*
X0237808Y0065531D01*
X0234905Y0066733D01*
X0231762Y0066733D01*
X0228858Y0065531D01*
X0227833Y0064506D01*
X0227808Y0064531D01*
X0224905Y0065733D01*
X0221762Y0065733D01*
X0218858Y0064531D01*
X0218833Y0064506D01*
X0217808Y0065531D01*
X0214905Y0066733D01*
X0211762Y0066733D01*
X0208858Y0065531D01*
X0207833Y0064506D01*
X0207808Y0064531D01*
X0204905Y0065733D01*
X0201762Y0065733D01*
X0198858Y0064531D01*
X0198833Y0064506D01*
X0197808Y0065531D01*
X0194905Y0066733D01*
X0191762Y0066733D01*
X0188858Y0065531D01*
X0187833Y0064506D01*
X0187808Y0064531D01*
X0184905Y0065733D01*
X0181762Y0065733D01*
X0180356Y0065151D01*
X0179412Y0066094D01*
X0177869Y0066733D01*
X0168798Y0066733D01*
X0167254Y0066094D01*
X0166073Y0064912D01*
X0165433Y0063369D01*
X0165433Y0054298D01*
X0165667Y0053733D01*
X0160393Y0053733D01*
X0161233Y0055762D01*
X0161233Y0058905D01*
X0160031Y0061808D01*
X0157808Y0064031D01*
X0154905Y0065233D01*
X0151762Y0065233D01*
X0148858Y0064031D01*
X0148409Y0063581D01*
X0148157Y0063834D01*
X0147398Y0064416D01*
X0146569Y0064895D01*
X0145685Y0065261D01*
X0144761Y0065508D01*
X0143812Y0065633D01*
X0143333Y0065633D01*
X0142855Y0065633D01*
X0141906Y0065508D01*
X0140982Y0065261D01*
X0140098Y0064895D01*
X0139269Y0064416D01*
X0138510Y0063834D01*
X0137833Y0063157D01*
X0137797Y0063110D01*
X0137398Y0063416D01*
X0136569Y0063895D01*
X0135685Y0064261D01*
X0134761Y0064508D01*
X0133812Y0064633D01*
X0133333Y0064633D01*
X0132855Y0064633D01*
X0131906Y0064508D01*
X0130982Y0064261D01*
X0130098Y0063895D01*
X0129367Y0063472D01*
X0127808Y0065031D01*
X0124905Y0066233D01*
X0121762Y0066233D01*
X0118858Y0065031D01*
X0117833Y0064006D01*
X0117808Y0064031D01*
X0114905Y0065233D01*
X0111762Y0065233D01*
X0108858Y0064031D01*
X0108833Y0064006D01*
X0107808Y0065031D01*
X0104905Y0066233D01*
X0101762Y0066233D01*
X0098858Y0065031D01*
X0096636Y0062808D01*
X0095433Y0059905D01*
X0095433Y0056762D01*
X0096636Y0053858D01*
X0096761Y0053733D01*
X0068333Y0053733D01*
X0067733Y0053773D01*
X0066573Y0054083D01*
X0066573Y0054083D01*
X0065533Y0054684D01*
X0064684Y0055533D01*
X0064083Y0056573D01*
X0063773Y0057733D01*
X0063733Y0058333D01*
X0063733Y0059165D01*
X0065765Y0057133D01*
X0068333Y0057133D01*
X0068333Y0063333D01*
X0068333Y0063333D01*
X0068333Y0057133D01*
X0070901Y0057133D01*
X0072909Y0059141D01*
X0075517Y0056533D01*
X0081150Y0056533D01*
X0085133Y0060517D01*
X0085133Y0063487D01*
X0090996Y0069349D01*
X0092318Y0070671D01*
X0093033Y0072398D01*
X0093033Y0075917D01*
X0095133Y0078017D01*
X0095133Y0083650D01*
X0091150Y0087633D01*
X0085517Y0087633D01*
X0081533Y0083650D01*
X0081533Y0078017D01*
X0083633Y0075917D01*
X0083633Y0075280D01*
X0078487Y0070133D01*
X0075517Y0070133D01*
X0072909Y0067526D01*
X0070901Y0069533D01*
X0068333Y0069533D01*
X0065765Y0069533D01*
X0063733Y0067501D01*
X0063733Y0124977D01*
X0063978Y0124876D01*
X0063909Y0124618D01*
X0063796Y0123764D01*
X0063796Y0123333D01*
X0073333Y0123333D01*
X0073333Y0116765D01*
X0076732Y0116765D01*
X0077586Y0116877D01*
X0078418Y0117100D01*
X0079213Y0117430D01*
X0079959Y0117860D01*
X0080642Y0118384D01*
X0081251Y0118993D01*
X0081775Y0119676D01*
X0082206Y0120422D01*
X0082535Y0121217D01*
X0082758Y0122049D01*
X0082870Y0122903D01*
X0082870Y0123333D01*
X0073333Y0123333D01*
X0073333Y0116765D01*
X0076732Y0116765D01*
X0077586Y0116877D01*
X0078418Y0117100D01*
X0079213Y0117430D01*
X0079959Y0117860D01*
X0080642Y0118384D01*
X0081251Y0118993D01*
X0081775Y0119676D01*
X0082206Y0120422D01*
X0082535Y0121217D01*
X0082758Y0122049D01*
X0082870Y0122903D01*
X0082870Y0123333D01*
X0082870Y0123764D01*
X0082758Y0124618D01*
X0082727Y0124733D01*
X0086028Y0124733D01*
X0086223Y0124664D01*
X0087533Y0124733D01*
X0088845Y0124733D01*
X0089036Y0124812D01*
X0089242Y0124823D01*
X0090426Y0125388D01*
X0091638Y0125890D01*
X0091785Y0126037D01*
X0091971Y0126126D01*
X0092849Y0127101D01*
X0093196Y0127448D01*
X0093196Y0126907D01*
X0094288Y0124273D01*
X0095651Y0122909D01*
X0095416Y0122674D01*
X0094892Y0121990D01*
X0094461Y0121245D01*
X0094132Y0120449D01*
X0093909Y0119618D01*
X0093796Y0118764D01*
X0093796Y0118333D01*
X0093796Y0117903D01*
X0093909Y0117049D01*
X0094132Y0116217D01*
X0094461Y0115422D01*
X0094892Y0114676D01*
X0095416Y0113993D01*
X0096025Y0113384D01*
X0096708Y0112860D01*
X0097453Y0112430D01*
X0098249Y0112100D01*
X0099081Y0111877D01*
X0099934Y0111765D01*
X0103333Y0111765D01*
X0103333Y0118333D01*
X0103333Y0118333D01*
X0093796Y0118333D01*
X0093796Y0117903D01*
X0093909Y0117049D01*
X0094132Y0116217D01*
X0094461Y0115422D01*
X0094892Y0114676D01*
X0095416Y0113993D01*
X0096025Y0113384D01*
X0096708Y0112860D01*
X0097453Y0112430D01*
X0098249Y0112100D01*
X0099081Y0111877D01*
X0099934Y0111765D01*
X0103333Y0111765D01*
X0103333Y0118333D01*
X0103333Y0118333D01*
X0103333Y0118333D01*
X0093796Y0118333D01*
X0103333Y0118333D01*
X0103333Y0118333D01*
X0091833Y0118333D01*
X0087333Y0123333D01*
X0073333Y0123333D01*
X0073333Y0123333D01*
X0073333Y0123333D01*
X0073333Y0120315D02*
X0073333Y0120315D01*
X0073333Y0120315D01*
X0064523Y0120315D02*
X0063733Y0120315D01*
X0063733Y0114317D02*
X0095167Y0114317D01*
X0065833Y0114317D01*
X0065833Y0108318D02*
X0150833Y0108318D01*
X0152383Y0108318D02*
X0063733Y0108318D01*
X0063733Y0102320D02*
X0152383Y0102320D01*
X0150833Y0102320D02*
X0065833Y0102320D01*
X0063733Y0096321D02*
X0152383Y0096321D01*
X0152383Y0090323D02*
X0063733Y0090323D01*
X0063733Y0084324D02*
X0082208Y0084324D01*
X0081533Y0078326D02*
X0063733Y0078326D01*
X0063733Y0072327D02*
X0080681Y0072327D01*
X0087976Y0066329D02*
X0167821Y0066329D01*
X0165433Y0060330D02*
X0160643Y0060330D01*
X0160641Y0054332D02*
X0165433Y0054332D01*
X0178845Y0066329D02*
X0190785Y0066329D01*
X0195881Y0066329D02*
X0210785Y0066329D01*
X0215881Y0066329D02*
X0230785Y0066329D01*
X0235881Y0066329D02*
X0257821Y0066329D01*
X0255433Y0060330D02*
X0250850Y0060330D01*
X0250434Y0054332D02*
X0255433Y0054332D01*
X0268845Y0066329D02*
X0280785Y0066329D01*
X0285881Y0066329D02*
X0300785Y0066329D01*
X0305881Y0066329D02*
X0320785Y0066329D01*
X0325881Y0066329D02*
X0328388Y0066329D01*
X0325192Y0072327D02*
X0234283Y0072327D01*
X0235133Y0078326D02*
X0319194Y0078326D01*
X0313195Y0084324D02*
X0281782Y0084324D01*
X0288384Y0090323D02*
X0306019Y0090323D01*
X0306010Y0096321D02*
X0294382Y0096321D01*
X0300381Y0102320D02*
X0327383Y0102320D01*
X0328395Y0096321D02*
X0315657Y0096321D01*
X0320491Y0090323D02*
X0327383Y0090323D01*
X0327383Y0084324D02*
X0326489Y0084324D01*
X0331368Y0108318D02*
X0306379Y0108318D01*
X0312378Y0114317D02*
X0337933Y0114317D01*
X0337933Y0120315D02*
X0318376Y0120315D01*
X0324375Y0126314D02*
X0337933Y0126314D01*
X0337933Y0132312D02*
X0330374Y0132312D01*
X0336372Y0138311D02*
X0337933Y0138311D01*
X0333333Y0145333D02*
X0333333Y0151333D01*
X0323333Y0151333D02*
X0323333Y0145333D01*
X0320250Y0138311D02*
X0231055Y0138311D01*
X0233133Y0132312D02*
X0314251Y0132312D01*
X0308253Y0126314D02*
X0232475Y0126314D01*
X0232460Y0120315D02*
X0302254Y0120315D01*
X0296256Y0114317D02*
X0176783Y0114317D01*
X0176783Y0120315D02*
X0184207Y0120315D01*
X0181206Y0126314D02*
X0176783Y0126314D01*
X0176783Y0132312D02*
X0178633Y0132312D01*
X0178633Y0138311D02*
X0176783Y0138311D01*
X0176783Y0144310D02*
X0178633Y0144310D01*
X0178633Y0150308D02*
X0176783Y0150308D01*
X0176783Y0156307D02*
X0178633Y0156307D01*
X0196783Y0156307D02*
X0199883Y0156307D01*
X0199779Y0159736D02*
X0199883Y0159770D01*
X0199883Y0149357D01*
X0197526Y0150333D01*
X0196783Y0150333D01*
X0196783Y0159770D01*
X0196887Y0159736D01*
X0197847Y0159584D01*
X0198333Y0159584D01*
X0198333Y0168333D01*
X0198333Y0168333D01*
X0198333Y0159584D01*
X0198819Y0159584D01*
X0199779Y0159736D01*
X0198333Y0162305D02*
X0198333Y0162305D01*
X0198333Y0168304D02*
X0198333Y0168304D01*
X0197587Y0150308D02*
X0199883Y0150308D01*
X0202454Y0132312D02*
X0205207Y0132312D01*
X0202475Y0126314D02*
X0211206Y0126314D01*
X0214207Y0120315D02*
X0202460Y0120315D01*
X0176783Y0108318D02*
X0290257Y0108318D01*
X0284259Y0102320D02*
X0176783Y0102320D01*
X0176783Y0096321D02*
X0278260Y0096321D01*
X0222384Y0072327D02*
X0214283Y0072327D01*
X0215133Y0078326D02*
X0221533Y0078326D01*
X0203883Y0090323D02*
X0176783Y0090323D01*
X0176783Y0084324D02*
X0193133Y0084324D01*
X0198333Y0084324D02*
X0198333Y0084324D01*
X0198333Y0087133D02*
X0198333Y0078333D01*
X0198333Y0078333D01*
X0198333Y0087133D01*
X0198333Y0078326D02*
X0198333Y0078326D01*
X0198333Y0072327D02*
X0198333Y0072327D01*
X0193144Y0072327D02*
X0176754Y0072327D01*
X0176783Y0078326D02*
X0192133Y0078326D01*
X0152208Y0084324D02*
X0134459Y0084324D01*
X0137488Y0078326D02*
X0151533Y0078326D01*
X0143333Y0065633D02*
X0143333Y0058333D01*
X0143333Y0065633D01*
X0143333Y0060330D02*
X0143333Y0060330D01*
X0143333Y0058333D02*
X0143333Y0058333D01*
X0133333Y0057333D02*
X0133333Y0064633D01*
X0133333Y0057333D01*
X0133333Y0057333D01*
X0133333Y0060330D02*
X0133333Y0060330D01*
X0130192Y0072327D02*
X0093004Y0072327D01*
X0090996Y0069349D02*
X0090996Y0069349D01*
X0095133Y0078326D02*
X0111533Y0078326D01*
X0112208Y0084324D02*
X0094459Y0084324D01*
X0068333Y0069533D02*
X0068333Y0063333D01*
X0068333Y0069533D01*
X0068333Y0066329D02*
X0068333Y0066329D01*
X0068333Y0063333D02*
X0068333Y0063333D01*
X0068333Y0060330D02*
X0068333Y0060330D01*
X0066143Y0054332D02*
X0096440Y0054332D01*
X0095610Y0060330D02*
X0084947Y0060330D01*
X0103333Y0111765D02*
X0106732Y0111765D01*
X0107586Y0111877D01*
X0108418Y0112100D01*
X0109213Y0112430D01*
X0109959Y0112860D01*
X0110642Y0113384D01*
X0111251Y0113993D01*
X0111775Y0114676D01*
X0112206Y0115422D01*
X0112535Y0116217D01*
X0112758Y0117049D01*
X0112870Y0117903D01*
X0112870Y0118333D01*
X0103333Y0118333D01*
X0103333Y0111765D01*
X0106732Y0111765D01*
X0107586Y0111877D01*
X0108418Y0112100D01*
X0109213Y0112430D01*
X0109959Y0112860D01*
X0110642Y0113384D01*
X0111251Y0113993D01*
X0111775Y0114676D01*
X0112206Y0115422D01*
X0112535Y0116217D01*
X0112758Y0117049D01*
X0112870Y0117903D01*
X0112870Y0118333D01*
X0103333Y0118333D01*
X0103333Y0111765D01*
X0103333Y0114317D02*
X0103333Y0114317D01*
X0103333Y0114317D01*
X0103333Y0118333D02*
X0103333Y0118333D01*
X0103333Y0118333D01*
X0148333Y0118333D01*
X0148333Y0118333D01*
X0148333Y0109733D01*
X0148333Y0118333D01*
X0139733Y0118333D01*
X0139733Y0121896D01*
X0141471Y0123633D01*
X0111740Y0123633D01*
X0111015Y0122909D01*
X0111251Y0122674D01*
X0111775Y0121990D01*
X0112206Y0121245D01*
X0112535Y0120449D01*
X0112758Y0119618D01*
X0112870Y0118764D01*
X0112870Y0118333D01*
X0103333Y0118333D01*
X0111499Y0114317D02*
X0140187Y0114317D01*
X0111499Y0114317D01*
X0112571Y0120315D02*
X0139733Y0120315D01*
X0148333Y0114317D02*
X0148333Y0114317D01*
X0148333Y0114317D01*
X0148333Y0138333D02*
X0139733Y0138333D01*
X0139733Y0137770D01*
X0139737Y0137739D01*
X0112819Y0137511D01*
X0112870Y0137903D01*
X0112870Y0138333D01*
X0103333Y0138333D01*
X0093796Y0138333D01*
X0093796Y0137903D01*
X0093869Y0137351D01*
X0091833Y0137333D01*
X0087333Y0132333D01*
X0082795Y0132333D01*
X0082870Y0132903D01*
X0082870Y0133333D01*
X0073333Y0133333D01*
X0073333Y0139902D01*
X0069934Y0139902D01*
X0069081Y0139789D01*
X0068249Y0139567D01*
X0067453Y0139237D01*
X0066708Y0138807D01*
X0066025Y0138282D01*
X0065833Y0138091D01*
X0065833Y0158333D01*
X0150833Y0158333D01*
X0150833Y0146567D01*
X0150015Y0146786D01*
X0148897Y0146933D01*
X0148333Y0146933D01*
X0147770Y0146933D01*
X0146652Y0146786D01*
X0145563Y0146494D01*
X0144521Y0146063D01*
X0143545Y0145499D01*
X0142651Y0144813D01*
X0141854Y0144016D01*
X0141167Y0143121D01*
X0140604Y0142145D01*
X0140172Y0141104D01*
X0139880Y0140015D01*
X0139733Y0138897D01*
X0139733Y0138333D01*
X0148333Y0138333D01*
X0148333Y0138333D01*
X0148333Y0146933D01*
X0148333Y0138333D01*
X0148333Y0138333D01*
X0148333Y0144310D02*
X0148333Y0144310D01*
X0142147Y0144310D02*
X0109038Y0144310D01*
X0109213Y0144237D02*
X0108418Y0144567D01*
X0107586Y0144789D01*
X0106732Y0144902D01*
X0103333Y0144902D01*
X0099934Y0144902D01*
X0099081Y0144789D01*
X0098249Y0144567D01*
X0097453Y0144237D01*
X0096708Y0143807D01*
X0096025Y0143282D01*
X0095416Y0142674D01*
X0094892Y0141990D01*
X0094461Y0141245D01*
X0094132Y0140449D01*
X0093909Y0139618D01*
X0093796Y0138764D01*
X0093796Y0138333D01*
X0103333Y0138333D01*
X0103333Y0138333D01*
X0103333Y0144902D01*
X0103333Y0138333D01*
X0103333Y0138333D01*
X0103333Y0138333D01*
X0112870Y0138333D01*
X0112870Y0138764D01*
X0112758Y0139618D01*
X0112535Y0140449D01*
X0112206Y0141245D01*
X0111775Y0141990D01*
X0111251Y0142674D01*
X0110642Y0143282D01*
X0109959Y0143807D01*
X0109213Y0144237D01*
X0103333Y0144310D02*
X0103333Y0144310D01*
X0097628Y0144310D02*
X0065833Y0144310D01*
X0065833Y0150308D02*
X0150833Y0150308D01*
X0150833Y0156307D02*
X0065833Y0156307D01*
X0073333Y0139902D02*
X0073333Y0133333D01*
X0073333Y0133333D01*
X0073333Y0133333D01*
X0082870Y0133333D01*
X0082870Y0133764D01*
X0082758Y0134618D01*
X0082535Y0135449D01*
X0082206Y0136245D01*
X0081775Y0136990D01*
X0081251Y0137674D01*
X0080642Y0138282D01*
X0079959Y0138807D01*
X0079213Y0139237D01*
X0078418Y0139567D01*
X0077586Y0139789D01*
X0076732Y0139902D01*
X0073333Y0139902D01*
X0073333Y0138311D02*
X0073333Y0138311D01*
X0066062Y0138311D02*
X0065833Y0138311D01*
X0080605Y0138311D02*
X0093796Y0138311D01*
X0093442Y0126314D02*
X0092141Y0126314D01*
X0094096Y0120315D02*
X0082144Y0120315D01*
X0090049Y0120315D01*
X0112870Y0138311D02*
X0139733Y0138311D01*
X0143333Y0175489D02*
X0142171Y0176652D01*
X0139681Y0177683D01*
X0136986Y0177683D01*
X0134496Y0176652D01*
X0133333Y0175489D01*
X0132171Y0176652D01*
X0129681Y0177683D01*
X0126986Y0177683D01*
X0124496Y0176652D01*
X0123333Y0175489D01*
X0122171Y0176652D01*
X0119681Y0177683D01*
X0116986Y0177683D01*
X0114496Y0176652D01*
X0113333Y0175489D01*
X0112171Y0176652D01*
X0109681Y0177683D01*
X0106986Y0177683D01*
X0104496Y0176652D01*
X0103333Y0175489D01*
X0102171Y0176652D01*
X0099681Y0177683D01*
X0096986Y0177683D01*
X0094496Y0176652D01*
X0093333Y0175489D01*
X0092171Y0176652D01*
X0089681Y0177683D01*
X0086986Y0177683D01*
X0084496Y0176652D01*
X0083333Y0175489D01*
X0082171Y0176652D01*
X0079681Y0177683D01*
X0076986Y0177683D01*
X0074496Y0176652D01*
X0073333Y0175489D01*
X0072171Y0176652D01*
X0069681Y0177683D01*
X0066986Y0177683D01*
X0064496Y0176652D01*
X0063733Y0175889D01*
X0063733Y0220778D01*
X0064496Y0220015D01*
X0066986Y0218984D01*
X0069681Y0218984D01*
X0072171Y0220015D01*
X0073333Y0221178D01*
X0074496Y0220015D01*
X0076986Y0218984D01*
X0079681Y0218984D01*
X0082171Y0220015D01*
X0083333Y0221178D01*
X0084496Y0220015D01*
X0086986Y0218984D01*
X0089681Y0218984D01*
X0092171Y0220015D01*
X0093333Y0221178D01*
X0094496Y0220015D01*
X0096986Y0218984D01*
X0099681Y0218984D01*
X0102171Y0220015D01*
X0103333Y0221178D01*
X0104496Y0220015D01*
X0106986Y0218984D01*
X0109681Y0218984D01*
X0112171Y0220015D01*
X0113333Y0221178D01*
X0114496Y0220015D01*
X0116986Y0218984D01*
X0119681Y0218984D01*
X0122171Y0220015D01*
X0123333Y0221178D01*
X0124496Y0220015D01*
X0126986Y0218984D01*
X0129681Y0218984D01*
X0132171Y0220015D01*
X0133333Y0221178D01*
X0134496Y0220015D01*
X0136986Y0218984D01*
X0139681Y0218984D01*
X0142171Y0220015D01*
X0143333Y0221178D01*
X0144496Y0220015D01*
X0146986Y0218984D01*
X0149681Y0218984D01*
X0152171Y0220015D01*
X0153333Y0221178D01*
X0154496Y0220015D01*
X0156986Y0218984D01*
X0157383Y0218984D01*
X0157383Y0177683D01*
X0156986Y0177683D01*
X0154496Y0176652D01*
X0153333Y0175489D01*
X0152171Y0176652D01*
X0149681Y0177683D01*
X0146986Y0177683D01*
X0144496Y0176652D01*
X0143333Y0175489D01*
X0157383Y0180301D02*
X0063733Y0180301D01*
X0063733Y0186299D02*
X0157383Y0186299D01*
X0157383Y0192298D02*
X0063733Y0192298D01*
X0063733Y0198296D02*
X0157383Y0198296D01*
X0157383Y0204295D02*
X0063733Y0204295D01*
X0063733Y0210293D02*
X0157383Y0210293D01*
X0157383Y0216292D02*
X0063733Y0216292D01*
X0063733Y0235889D02*
X0063733Y0242261D01*
X0063858Y0242136D01*
X0066762Y0240933D01*
X0069905Y0240933D01*
X0072808Y0242136D01*
X0073258Y0242585D01*
X0073510Y0242333D01*
X0074269Y0241751D01*
X0075098Y0241272D01*
X0075982Y0240906D01*
X0076906Y0240658D01*
X0077855Y0240533D01*
X0078333Y0240533D01*
X0078333Y0247833D01*
X0078333Y0247833D01*
X0078333Y0240533D01*
X0078812Y0240533D01*
X0079761Y0240658D01*
X0080685Y0240906D01*
X0081569Y0241272D01*
X0082398Y0241751D01*
X0083157Y0242333D01*
X0083409Y0242585D01*
X0083858Y0242136D01*
X0086762Y0240933D01*
X0089905Y0240933D01*
X0092808Y0242136D01*
X0092833Y0242161D01*
X0093858Y0241136D01*
X0096762Y0239933D01*
X0099905Y0239933D01*
X0102808Y0241136D01*
X0103833Y0242161D01*
X0103858Y0242136D01*
X0106762Y0240933D01*
X0109905Y0240933D01*
X0112808Y0242136D01*
X0112833Y0242161D01*
X0113858Y0241136D01*
X0116762Y0239933D01*
X0119905Y0239933D01*
X0122808Y0241136D01*
X0123833Y0242161D01*
X0123858Y0242136D01*
X0126762Y0240933D01*
X0129905Y0240933D01*
X0131311Y0241516D01*
X0132254Y0240573D01*
X0133798Y0239933D01*
X0142869Y0239933D01*
X0144412Y0240573D01*
X0145594Y0241754D01*
X0146233Y0243298D01*
X0146233Y0245331D01*
X0146636Y0244358D01*
X0148858Y0242136D01*
X0151463Y0241057D01*
X0155466Y0237054D01*
X0154496Y0236652D01*
X0153333Y0235489D01*
X0152171Y0236652D01*
X0149681Y0237683D01*
X0146986Y0237683D01*
X0144496Y0236652D01*
X0143333Y0235489D01*
X0142171Y0236652D01*
X0139681Y0237683D01*
X0136986Y0237683D01*
X0134496Y0236652D01*
X0133333Y0235489D01*
X0132171Y0236652D01*
X0129681Y0237683D01*
X0126986Y0237683D01*
X0124496Y0236652D01*
X0123333Y0235489D01*
X0122171Y0236652D01*
X0119681Y0237683D01*
X0116986Y0237683D01*
X0114496Y0236652D01*
X0113333Y0235489D01*
X0112171Y0236652D01*
X0109681Y0237683D01*
X0106986Y0237683D01*
X0104496Y0236652D01*
X0103333Y0235489D01*
X0102171Y0236652D01*
X0099681Y0237683D01*
X0096986Y0237683D01*
X0094496Y0236652D01*
X0093333Y0235489D01*
X0092171Y0236652D01*
X0089681Y0237683D01*
X0086986Y0237683D01*
X0084496Y0236652D01*
X0083333Y0235489D01*
X0082171Y0236652D01*
X0079681Y0237683D01*
X0076986Y0237683D01*
X0074496Y0236652D01*
X0073333Y0235489D01*
X0072171Y0236652D01*
X0069681Y0237683D01*
X0066986Y0237683D01*
X0064496Y0236652D01*
X0063733Y0235889D01*
X0063733Y0240286D02*
X0095911Y0240286D01*
X0100755Y0240286D02*
X0115911Y0240286D01*
X0120755Y0240286D02*
X0132947Y0240286D01*
X0143719Y0240286D02*
X0152234Y0240286D01*
X0176783Y0240286D02*
X0180911Y0240286D01*
X0185755Y0240286D02*
X0200911Y0240286D01*
X0205755Y0240286D02*
X0217947Y0240286D01*
X0214267Y0234287D02*
X0268233Y0234287D01*
X0274231Y0228289D02*
X0215108Y0228289D01*
X0214230Y0222290D02*
X0280230Y0222290D01*
X0286228Y0216292D02*
X0178933Y0216292D01*
X0176783Y0210293D02*
X0196812Y0210293D01*
X0197791Y0204295D02*
X0177792Y0204295D01*
X0182517Y0198296D02*
X0196559Y0198296D01*
X0197717Y0192298D02*
X0188516Y0192298D01*
X0218950Y0192298D02*
X0316133Y0192298D01*
X0316133Y0186299D02*
X0219824Y0186299D01*
X0227606Y0180301D02*
X0316133Y0180301D01*
X0316133Y0174302D02*
X0228033Y0174302D01*
X0228033Y0168304D02*
X0316133Y0168304D01*
X0316133Y0162305D02*
X0228033Y0162305D01*
X0228033Y0156307D02*
X0308973Y0156307D01*
X0313333Y0156307D02*
X0313333Y0156307D01*
X0313333Y0157933D02*
X0313333Y0148333D01*
X0313333Y0148333D01*
X0313333Y0157933D01*
X0313333Y0151333D02*
X0313333Y0145333D01*
X0313333Y0144310D02*
X0313333Y0144310D01*
X0313333Y0150308D02*
X0313333Y0150308D01*
X0306733Y0150308D02*
X0228033Y0150308D01*
X0233133Y0144310D02*
X0306811Y0144310D01*
X0308306Y0198296D02*
X0313323Y0198296D01*
X0303361Y0198296D02*
X0220108Y0198296D01*
X0218876Y0204295D02*
X0298225Y0204295D01*
X0292227Y0210293D02*
X0219855Y0210293D01*
X0228719Y0240286D02*
X0250911Y0240286D01*
X0255755Y0240286D02*
X0262234Y0240286D01*
X0235433Y0246284D02*
X0231233Y0246284D01*
X0231233Y0252283D02*
X0235433Y0252283D01*
X0078333Y0246284D02*
X0078333Y0246284D01*
D21*
X0088333Y0080833D03*
X0078333Y0063333D03*
X0068333Y0063333D03*
X0118333Y0080833D03*
X0128333Y0080833D03*
X0158333Y0080833D03*
D22*
X0190533Y0123333D02*
X0196133Y0123333D01*
X0196133Y0133333D02*
X0190533Y0133333D01*
X0190533Y0143333D02*
X0196133Y0143333D01*
X0220533Y0143333D02*
X0226133Y0143333D01*
X0226133Y0133333D02*
X0220533Y0133333D01*
X0220533Y0123333D02*
X0226133Y0123333D01*
D23*
X0335833Y0100833D03*
X0335833Y0090833D03*
X0335833Y0080833D03*
X0335833Y0070833D03*
X0335833Y0173333D03*
X0335833Y0183333D03*
X0335833Y0193333D03*
X0335833Y0203333D03*
X0335833Y0213333D03*
X0335833Y0223333D03*
X0335833Y0233333D03*
X0335833Y0243333D03*
D24*
X0150833Y0158333D03*
X0150833Y0153333D03*
X0145833Y0153333D03*
X0140833Y0153333D03*
X0140833Y0158333D03*
X0145833Y0158333D03*
X0145833Y0148333D03*
X0140833Y0148333D03*
X0140833Y0143333D03*
X0135833Y0143333D03*
X0130833Y0143333D03*
X0125833Y0143333D03*
X0120833Y0143333D03*
X0120833Y0138333D03*
X0125833Y0138333D03*
X0130833Y0138333D03*
X0135833Y0138333D03*
X0135833Y0148333D03*
X0130833Y0148333D03*
X0125833Y0148333D03*
X0120833Y0148333D03*
X0115833Y0148333D03*
X0110833Y0148333D03*
X0105833Y0148333D03*
X0100833Y0148333D03*
X0095833Y0148333D03*
X0090833Y0148333D03*
X0085833Y0148333D03*
X0085833Y0143333D03*
X0090833Y0143333D03*
X0095833Y0143333D03*
X0093333Y0138333D03*
X0088333Y0138333D03*
X0083333Y0138333D03*
X0083333Y0133333D03*
X0088333Y0133333D03*
X0083333Y0123333D03*
X0083333Y0118333D03*
X0088333Y0118333D03*
X0093333Y0118333D03*
X0090833Y0113333D03*
X0085833Y0113333D03*
X0085833Y0108333D03*
X0090833Y0108333D03*
X0095833Y0108333D03*
X0100833Y0108333D03*
X0100833Y0103333D03*
X0095833Y0103333D03*
X0090833Y0103333D03*
X0085833Y0103333D03*
X0085833Y0098333D03*
X0090833Y0098333D03*
X0095833Y0098333D03*
X0100833Y0098333D03*
X0105833Y0098333D03*
X0110833Y0098333D03*
X0115833Y0098333D03*
X0115833Y0103333D03*
X0110833Y0103333D03*
X0105833Y0103333D03*
X0105833Y0108333D03*
X0110833Y0108333D03*
X0115833Y0108333D03*
X0115833Y0113333D03*
X0110833Y0113333D03*
X0115833Y0118333D03*
X0120833Y0118333D03*
X0125833Y0118333D03*
X0130833Y0118333D03*
X0135833Y0118333D03*
X0135833Y0113333D03*
X0130833Y0113333D03*
X0125833Y0113333D03*
X0120833Y0113333D03*
X0120833Y0108333D03*
X0125833Y0108333D03*
X0130833Y0108333D03*
X0135833Y0108333D03*
X0135833Y0103333D03*
X0130833Y0103333D03*
X0125833Y0103333D03*
X0120833Y0103333D03*
X0120833Y0098333D03*
X0125833Y0098333D03*
X0130833Y0098333D03*
X0135833Y0098333D03*
X0140833Y0098333D03*
X0145833Y0098333D03*
X0150833Y0098333D03*
X0150833Y0103333D03*
X0145833Y0103333D03*
X0140833Y0103333D03*
X0140833Y0108333D03*
X0145833Y0108333D03*
X0150833Y0108333D03*
X0140833Y0113333D03*
X0115833Y0138333D03*
X0115833Y0143333D03*
X0110833Y0143333D03*
X0110833Y0153333D03*
X0105833Y0153333D03*
X0105833Y0158333D03*
X0110833Y0158333D03*
X0115833Y0158333D03*
X0115833Y0153333D03*
X0120833Y0153333D03*
X0120833Y0158333D03*
X0125833Y0158333D03*
X0125833Y0153333D03*
X0130833Y0153333D03*
X0130833Y0158333D03*
X0135833Y0158333D03*
X0135833Y0153333D03*
X0150833Y0148333D03*
X0100833Y0153333D03*
X0095833Y0153333D03*
X0090833Y0153333D03*
X0085833Y0153333D03*
X0085833Y0158333D03*
X0090833Y0158333D03*
X0095833Y0158333D03*
X0100833Y0158333D03*
X0080833Y0158333D03*
X0080833Y0153333D03*
X0075833Y0153333D03*
X0070833Y0153333D03*
X0070833Y0158333D03*
X0075833Y0158333D03*
X0075833Y0148333D03*
X0070833Y0148333D03*
X0070833Y0143333D03*
X0075833Y0143333D03*
X0080833Y0143333D03*
X0080833Y0148333D03*
X0065833Y0148333D03*
X0065833Y0143333D03*
X0065833Y0138333D03*
X0065833Y0153333D03*
X0065833Y0158333D03*
X0065833Y0118333D03*
X0065833Y0113333D03*
X0065833Y0108333D03*
X0065833Y0103333D03*
X0065833Y0098333D03*
X0070833Y0098333D03*
X0075833Y0098333D03*
X0080833Y0098333D03*
X0080833Y0103333D03*
X0075833Y0103333D03*
X0070833Y0103333D03*
X0070833Y0108333D03*
X0075833Y0108333D03*
X0080833Y0108333D03*
X0080833Y0113333D03*
X0075833Y0113333D03*
X0070833Y0113333D03*
X0095833Y0113333D03*
D25*
X0209583Y0089583D02*
X0209583Y0083333D01*
X0208333Y0082083D01*
X0208333Y0078333D01*
X0209583Y0089583D02*
X0279583Y0089583D01*
X0332083Y0142083D01*
X0332083Y0145833D01*
X0333333Y0147083D01*
X0333333Y0148333D01*
X0332083Y0149583D01*
X0332083Y0155833D01*
X0325833Y0162083D01*
X0325833Y0235833D01*
X0333333Y0243333D01*
X0335833Y0243333D01*
X0215208Y0223333D02*
X0215208Y0220208D01*
X0207083Y0220208D01*
X0198333Y0211458D01*
X0158333Y0220208D02*
X0074583Y0220208D01*
X0092613Y0242055D02*
X0092083Y0243333D01*
D26*
X0092083Y0243333D03*
X0074583Y0220208D03*
X0158333Y0220208D03*
X0198333Y0211458D03*
X0215208Y0223333D03*
D27*
X0173333Y0215833D02*
X0172083Y0215833D01*
X0172083Y0073333D01*
X0135833Y0073333D01*
X0128333Y0080833D01*
X0157083Y0082083D02*
X0157083Y0119583D01*
X0148333Y0128333D01*
X0103333Y0128333D01*
X0162083Y0103333D02*
X0162083Y0180833D01*
X0163333Y0180833D01*
X0162083Y0180833D02*
X0162083Y0237083D01*
X0153333Y0245833D01*
X0153333Y0248833D01*
X0172083Y0244583D02*
X0173333Y0245833D01*
X0173333Y0248833D01*
X0172083Y0244583D02*
X0172083Y0215833D01*
X0174583Y0199583D02*
X0192083Y0182083D01*
X0192083Y0144583D01*
X0193333Y0143333D01*
X0204583Y0139583D02*
X0220833Y0123333D01*
X0223333Y0123333D01*
X0204583Y0139583D02*
X0204583Y0173333D01*
X0192083Y0185833D01*
X0199583Y0183333D02*
X0204583Y0178333D01*
X0223333Y0178333D01*
X0223333Y0143333D01*
X0193333Y0123333D02*
X0190833Y0123333D01*
X0183333Y0130833D01*
X0183333Y0160833D01*
X0184583Y0162083D01*
X0184583Y0175833D01*
X0174583Y0185833D01*
X0263333Y0245833D02*
X0263333Y0248833D01*
X0263333Y0245833D02*
X0305833Y0203333D01*
X0318333Y0200833D02*
X0273333Y0245833D01*
X0273333Y0247833D01*
X0320833Y0210833D02*
X0320833Y0158333D01*
X0322083Y0157083D01*
X0322083Y0149583D01*
X0323333Y0148333D01*
X0310833Y0093333D02*
X0333333Y0070833D01*
X0335833Y0070833D01*
X0158333Y0080833D02*
X0157083Y0082083D01*
X0088333Y0080833D02*
X0088333Y0073333D01*
X0078333Y0063333D01*
D28*
X0162083Y0103333D03*
X0163333Y0180833D03*
X0174583Y0185833D03*
X0174583Y0199583D03*
X0192083Y0185833D03*
X0199583Y0183333D03*
X0173333Y0215833D03*
X0305833Y0203333D03*
X0318333Y0200833D03*
X0320833Y0210833D03*
X0310833Y0093333D03*
M02*
