G75*
%MOIN*%
%OFA0B0*%
%FSLAX25Y25*%
%IPPOS*%
%LPD*%
%AMOC8*
5,1,8,0,0,1.08239X$1,22.5*
%
%ADD10C,0.00800*%
%ADD11R,0.08200X0.08200*%
%ADD12C,0.08200*%
%ADD13C,0.05950*%
%ADD14C,0.05950*%
%ADD15C,0.06000*%
%ADD16C,0.10800*%
%ADD17OC8,0.10800*%
%ADD18C,0.06737*%
%ADD19C,0.06800*%
%ADD20OC8,0.06000*%
%ADD21C,0.06400*%
%ADD22OC8,0.09300*%
%ADD23R,0.04762X0.04762*%
%ADD24C,0.04400*%
%ADD25C,0.03600*%
D10*
X0068333Y0048333D02*
X0333333Y0048333D01*
X0333575Y0048336D01*
X0333816Y0048345D01*
X0334057Y0048359D01*
X0334298Y0048380D01*
X0334538Y0048406D01*
X0334778Y0048438D01*
X0335017Y0048476D01*
X0335254Y0048519D01*
X0335491Y0048569D01*
X0335726Y0048624D01*
X0335960Y0048684D01*
X0336192Y0048751D01*
X0336423Y0048822D01*
X0336652Y0048900D01*
X0336879Y0048983D01*
X0337104Y0049071D01*
X0337327Y0049165D01*
X0337547Y0049264D01*
X0337765Y0049369D01*
X0337980Y0049478D01*
X0338193Y0049593D01*
X0338403Y0049713D01*
X0338609Y0049838D01*
X0338813Y0049968D01*
X0339014Y0050103D01*
X0339211Y0050243D01*
X0339405Y0050387D01*
X0339595Y0050536D01*
X0339781Y0050690D01*
X0339964Y0050848D01*
X0340143Y0051010D01*
X0340318Y0051177D01*
X0340489Y0051348D01*
X0340656Y0051523D01*
X0340818Y0051702D01*
X0340976Y0051885D01*
X0341130Y0052071D01*
X0341279Y0052261D01*
X0341423Y0052455D01*
X0341563Y0052652D01*
X0341698Y0052853D01*
X0341828Y0053057D01*
X0341953Y0053263D01*
X0342073Y0053473D01*
X0342188Y0053686D01*
X0342297Y0053901D01*
X0342402Y0054119D01*
X0342501Y0054339D01*
X0342595Y0054562D01*
X0342683Y0054787D01*
X0342766Y0055014D01*
X0342844Y0055243D01*
X0342915Y0055474D01*
X0342982Y0055706D01*
X0343042Y0055940D01*
X0343097Y0056175D01*
X0343147Y0056412D01*
X0343190Y0056649D01*
X0343228Y0056888D01*
X0343260Y0057128D01*
X0343286Y0057368D01*
X0343307Y0057609D01*
X0343321Y0057850D01*
X0343330Y0058091D01*
X0343333Y0058333D01*
X0343333Y0248333D01*
X0343330Y0248575D01*
X0343321Y0248816D01*
X0343307Y0249057D01*
X0343286Y0249298D01*
X0343260Y0249538D01*
X0343228Y0249778D01*
X0343190Y0250017D01*
X0343147Y0250254D01*
X0343097Y0250491D01*
X0343042Y0250726D01*
X0342982Y0250960D01*
X0342915Y0251192D01*
X0342844Y0251423D01*
X0342766Y0251652D01*
X0342683Y0251879D01*
X0342595Y0252104D01*
X0342501Y0252327D01*
X0342402Y0252547D01*
X0342297Y0252765D01*
X0342188Y0252980D01*
X0342073Y0253193D01*
X0341953Y0253403D01*
X0341828Y0253609D01*
X0341698Y0253813D01*
X0341563Y0254014D01*
X0341423Y0254211D01*
X0341279Y0254405D01*
X0341130Y0254595D01*
X0340976Y0254781D01*
X0340818Y0254964D01*
X0340656Y0255143D01*
X0340489Y0255318D01*
X0340318Y0255489D01*
X0340143Y0255656D01*
X0339964Y0255818D01*
X0339781Y0255976D01*
X0339595Y0256130D01*
X0339405Y0256279D01*
X0339211Y0256423D01*
X0339014Y0256563D01*
X0338813Y0256698D01*
X0338609Y0256828D01*
X0338403Y0256953D01*
X0338193Y0257073D01*
X0337980Y0257188D01*
X0337765Y0257297D01*
X0337547Y0257402D01*
X0337327Y0257501D01*
X0337104Y0257595D01*
X0336879Y0257683D01*
X0336652Y0257766D01*
X0336423Y0257844D01*
X0336192Y0257915D01*
X0335960Y0257982D01*
X0335726Y0258042D01*
X0335491Y0258097D01*
X0335254Y0258147D01*
X0335017Y0258190D01*
X0334778Y0258228D01*
X0334538Y0258260D01*
X0334298Y0258286D01*
X0334057Y0258307D01*
X0333816Y0258321D01*
X0333575Y0258330D01*
X0333333Y0258333D01*
X0068333Y0258333D01*
X0068091Y0258330D01*
X0067850Y0258321D01*
X0067609Y0258307D01*
X0067368Y0258286D01*
X0067128Y0258260D01*
X0066888Y0258228D01*
X0066649Y0258190D01*
X0066412Y0258147D01*
X0066175Y0258097D01*
X0065940Y0258042D01*
X0065706Y0257982D01*
X0065474Y0257915D01*
X0065243Y0257844D01*
X0065014Y0257766D01*
X0064787Y0257683D01*
X0064562Y0257595D01*
X0064339Y0257501D01*
X0064119Y0257402D01*
X0063901Y0257297D01*
X0063686Y0257188D01*
X0063473Y0257073D01*
X0063263Y0256953D01*
X0063057Y0256828D01*
X0062853Y0256698D01*
X0062652Y0256563D01*
X0062455Y0256423D01*
X0062261Y0256279D01*
X0062071Y0256130D01*
X0061885Y0255976D01*
X0061702Y0255818D01*
X0061523Y0255656D01*
X0061348Y0255489D01*
X0061177Y0255318D01*
X0061010Y0255143D01*
X0060848Y0254964D01*
X0060690Y0254781D01*
X0060536Y0254595D01*
X0060387Y0254405D01*
X0060243Y0254211D01*
X0060103Y0254014D01*
X0059968Y0253813D01*
X0059838Y0253609D01*
X0059713Y0253403D01*
X0059593Y0253193D01*
X0059478Y0252980D01*
X0059369Y0252765D01*
X0059264Y0252547D01*
X0059165Y0252327D01*
X0059071Y0252104D01*
X0058983Y0251879D01*
X0058900Y0251652D01*
X0058822Y0251423D01*
X0058751Y0251192D01*
X0058684Y0250960D01*
X0058624Y0250726D01*
X0058569Y0250491D01*
X0058519Y0250254D01*
X0058476Y0250017D01*
X0058438Y0249778D01*
X0058406Y0249538D01*
X0058380Y0249298D01*
X0058359Y0249057D01*
X0058345Y0248816D01*
X0058336Y0248575D01*
X0058333Y0248333D01*
X0058333Y0058333D01*
X0058336Y0058091D01*
X0058345Y0057850D01*
X0058359Y0057609D01*
X0058380Y0057368D01*
X0058406Y0057128D01*
X0058438Y0056888D01*
X0058476Y0056649D01*
X0058519Y0056412D01*
X0058569Y0056175D01*
X0058624Y0055940D01*
X0058684Y0055706D01*
X0058751Y0055474D01*
X0058822Y0055243D01*
X0058900Y0055014D01*
X0058983Y0054787D01*
X0059071Y0054562D01*
X0059165Y0054339D01*
X0059264Y0054119D01*
X0059369Y0053901D01*
X0059478Y0053686D01*
X0059593Y0053473D01*
X0059713Y0053263D01*
X0059838Y0053057D01*
X0059968Y0052853D01*
X0060103Y0052652D01*
X0060243Y0052455D01*
X0060387Y0052261D01*
X0060536Y0052071D01*
X0060690Y0051885D01*
X0060848Y0051702D01*
X0061010Y0051523D01*
X0061177Y0051348D01*
X0061348Y0051177D01*
X0061523Y0051010D01*
X0061702Y0050848D01*
X0061885Y0050690D01*
X0062071Y0050536D01*
X0062261Y0050387D01*
X0062455Y0050243D01*
X0062652Y0050103D01*
X0062853Y0049968D01*
X0063057Y0049838D01*
X0063263Y0049713D01*
X0063473Y0049593D01*
X0063686Y0049478D01*
X0063901Y0049369D01*
X0064119Y0049264D01*
X0064339Y0049165D01*
X0064562Y0049071D01*
X0064787Y0048983D01*
X0065014Y0048900D01*
X0065243Y0048822D01*
X0065474Y0048751D01*
X0065706Y0048684D01*
X0065940Y0048624D01*
X0066175Y0048569D01*
X0066412Y0048519D01*
X0066649Y0048476D01*
X0066888Y0048438D01*
X0067128Y0048406D01*
X0067368Y0048380D01*
X0067609Y0048359D01*
X0067850Y0048345D01*
X0068091Y0048336D01*
X0068333Y0048333D01*
D11*
X0173333Y0058833D03*
X0263333Y0058833D03*
X0243333Y0248833D03*
X0223333Y0247833D03*
X0138333Y0247833D03*
D12*
X0128333Y0248833D03*
X0118333Y0247833D03*
X0108333Y0248833D03*
X0098333Y0247833D03*
X0088333Y0248833D03*
X0078333Y0247833D03*
X0068333Y0248833D03*
X0153333Y0248833D03*
X0163333Y0247833D03*
X0173333Y0248833D03*
X0183333Y0247833D03*
X0193333Y0248833D03*
X0203333Y0247833D03*
X0213333Y0248833D03*
X0253333Y0247833D03*
X0263333Y0248833D03*
X0273333Y0247833D03*
X0283333Y0248833D03*
X0293333Y0247833D03*
X0303333Y0248833D03*
X0313333Y0247833D03*
X0303333Y0058833D03*
X0313333Y0057833D03*
X0323333Y0058833D03*
X0333333Y0057833D03*
X0293333Y0057833D03*
X0283333Y0058833D03*
X0273333Y0057833D03*
X0243333Y0057833D03*
X0233333Y0058833D03*
X0223333Y0057833D03*
X0213333Y0058833D03*
X0203333Y0057833D03*
X0193333Y0058833D03*
X0183333Y0057833D03*
X0153333Y0057333D03*
X0143333Y0058333D03*
X0133333Y0057333D03*
X0123333Y0058333D03*
X0113333Y0057333D03*
X0103333Y0058333D03*
D13*
X0098333Y0165759D02*
X0098333Y0170908D01*
X0108333Y0170908D02*
X0108333Y0165759D01*
X0118333Y0165759D02*
X0118333Y0170908D01*
X0128333Y0170908D02*
X0128333Y0165759D01*
X0138333Y0165759D02*
X0138333Y0170908D01*
X0148333Y0170908D02*
X0148333Y0165759D01*
X0158333Y0165759D02*
X0158333Y0170908D01*
X0168333Y0170908D02*
X0168333Y0165759D01*
X0178333Y0165759D02*
X0178333Y0170908D01*
X0188333Y0170908D02*
X0188333Y0165759D01*
X0198333Y0165759D02*
X0198333Y0170908D01*
X0208333Y0170908D02*
X0208333Y0165759D01*
X0208333Y0225759D02*
X0208333Y0230908D01*
X0198333Y0230908D02*
X0198333Y0225759D01*
X0188333Y0225759D02*
X0188333Y0230908D01*
X0178333Y0230908D02*
X0178333Y0225759D01*
X0168333Y0225759D02*
X0168333Y0230908D01*
X0158333Y0230908D02*
X0158333Y0225759D01*
X0148333Y0225759D02*
X0148333Y0230908D01*
X0138333Y0230908D02*
X0138333Y0225759D01*
X0128333Y0225759D02*
X0128333Y0230908D01*
X0118333Y0230908D02*
X0118333Y0225759D01*
X0108333Y0225759D02*
X0108333Y0230908D01*
X0098333Y0230908D02*
X0098333Y0225759D01*
X0088333Y0225759D02*
X0088333Y0230908D01*
X0078333Y0230908D02*
X0078333Y0225759D01*
X0068333Y0225759D02*
X0068333Y0230908D01*
X0068333Y0170908D02*
X0068333Y0165759D01*
X0078333Y0165759D02*
X0078333Y0170908D01*
X0088333Y0170908D02*
X0088333Y0165759D01*
D14*
X0203333Y0188333D03*
X0213333Y0188333D03*
X0213333Y0198333D03*
X0203333Y0198333D03*
X0203333Y0208333D03*
X0213333Y0208333D03*
D15*
X0208333Y0080933D02*
X0208333Y0075733D01*
X0198333Y0075733D02*
X0198333Y0080933D01*
X0228333Y0080933D02*
X0228333Y0075733D01*
D16*
X0148333Y0138333D03*
D17*
X0148333Y0118333D03*
D18*
X0106302Y0118333D02*
X0100365Y0118333D01*
X0100365Y0128333D02*
X0106302Y0128333D01*
X0106302Y0138333D02*
X0100365Y0138333D01*
X0076302Y0133333D02*
X0070365Y0133333D01*
X0070365Y0123333D02*
X0076302Y0123333D01*
D19*
X0313333Y0145333D02*
X0313333Y0151333D01*
X0323333Y0151333D02*
X0323333Y0145333D01*
X0333333Y0145333D02*
X0333333Y0151333D01*
D20*
X0158333Y0080833D03*
X0128333Y0080833D03*
X0118333Y0080833D03*
X0088333Y0080833D03*
X0078333Y0063333D03*
X0068333Y0063333D03*
D21*
X0190533Y0123333D02*
X0196133Y0123333D01*
X0196133Y0133333D02*
X0190533Y0133333D01*
X0190533Y0143333D02*
X0196133Y0143333D01*
X0220533Y0143333D02*
X0226133Y0143333D01*
X0226133Y0133333D02*
X0220533Y0133333D01*
X0220533Y0123333D02*
X0226133Y0123333D01*
D22*
X0335833Y0100833D03*
X0335833Y0090833D03*
X0335833Y0080833D03*
X0335833Y0070833D03*
X0335833Y0173333D03*
X0335833Y0183333D03*
X0335833Y0193333D03*
X0335833Y0203333D03*
X0335833Y0213333D03*
X0335833Y0223333D03*
X0335833Y0233333D03*
X0335833Y0243333D03*
D23*
X0150833Y0158333D03*
X0150833Y0153333D03*
X0145833Y0153333D03*
X0140833Y0153333D03*
X0140833Y0158333D03*
X0145833Y0158333D03*
X0145833Y0148333D03*
X0140833Y0148333D03*
X0140833Y0143333D03*
X0135833Y0143333D03*
X0130833Y0143333D03*
X0125833Y0143333D03*
X0120833Y0143333D03*
X0120833Y0138333D03*
X0125833Y0138333D03*
X0130833Y0138333D03*
X0135833Y0138333D03*
X0135833Y0148333D03*
X0130833Y0148333D03*
X0125833Y0148333D03*
X0120833Y0148333D03*
X0115833Y0148333D03*
X0110833Y0148333D03*
X0105833Y0148333D03*
X0100833Y0148333D03*
X0095833Y0148333D03*
X0090833Y0148333D03*
X0085833Y0148333D03*
X0085833Y0143333D03*
X0090833Y0143333D03*
X0095833Y0143333D03*
X0093333Y0138333D03*
X0088333Y0138333D03*
X0083333Y0138333D03*
X0083333Y0133333D03*
X0088333Y0133333D03*
X0083333Y0123333D03*
X0083333Y0118333D03*
X0088333Y0118333D03*
X0093333Y0118333D03*
X0090833Y0113333D03*
X0085833Y0113333D03*
X0085833Y0108333D03*
X0090833Y0108333D03*
X0095833Y0108333D03*
X0100833Y0108333D03*
X0100833Y0103333D03*
X0095833Y0103333D03*
X0090833Y0103333D03*
X0085833Y0103333D03*
X0085833Y0098333D03*
X0090833Y0098333D03*
X0095833Y0098333D03*
X0100833Y0098333D03*
X0105833Y0098333D03*
X0110833Y0098333D03*
X0115833Y0098333D03*
X0115833Y0103333D03*
X0110833Y0103333D03*
X0105833Y0103333D03*
X0105833Y0108333D03*
X0110833Y0108333D03*
X0115833Y0108333D03*
X0115833Y0113333D03*
X0110833Y0113333D03*
X0115833Y0118333D03*
X0120833Y0118333D03*
X0125833Y0118333D03*
X0130833Y0118333D03*
X0135833Y0118333D03*
X0135833Y0113333D03*
X0130833Y0113333D03*
X0125833Y0113333D03*
X0120833Y0113333D03*
X0120833Y0108333D03*
X0125833Y0108333D03*
X0130833Y0108333D03*
X0135833Y0108333D03*
X0135833Y0103333D03*
X0130833Y0103333D03*
X0125833Y0103333D03*
X0120833Y0103333D03*
X0120833Y0098333D03*
X0125833Y0098333D03*
X0130833Y0098333D03*
X0135833Y0098333D03*
X0140833Y0098333D03*
X0145833Y0098333D03*
X0150833Y0098333D03*
X0150833Y0103333D03*
X0145833Y0103333D03*
X0140833Y0103333D03*
X0140833Y0108333D03*
X0145833Y0108333D03*
X0150833Y0108333D03*
X0140833Y0113333D03*
X0115833Y0138333D03*
X0115833Y0143333D03*
X0110833Y0143333D03*
X0110833Y0153333D03*
X0105833Y0153333D03*
X0105833Y0158333D03*
X0110833Y0158333D03*
X0115833Y0158333D03*
X0115833Y0153333D03*
X0120833Y0153333D03*
X0120833Y0158333D03*
X0125833Y0158333D03*
X0125833Y0153333D03*
X0130833Y0153333D03*
X0130833Y0158333D03*
X0135833Y0158333D03*
X0135833Y0153333D03*
X0150833Y0148333D03*
X0100833Y0153333D03*
X0095833Y0153333D03*
X0090833Y0153333D03*
X0085833Y0153333D03*
X0085833Y0158333D03*
X0090833Y0158333D03*
X0095833Y0158333D03*
X0100833Y0158333D03*
X0080833Y0158333D03*
X0080833Y0153333D03*
X0075833Y0153333D03*
X0070833Y0153333D03*
X0070833Y0158333D03*
X0075833Y0158333D03*
X0075833Y0148333D03*
X0070833Y0148333D03*
X0070833Y0143333D03*
X0075833Y0143333D03*
X0080833Y0143333D03*
X0080833Y0148333D03*
X0065833Y0148333D03*
X0065833Y0143333D03*
X0065833Y0138333D03*
X0065833Y0153333D03*
X0065833Y0158333D03*
X0065833Y0118333D03*
X0065833Y0113333D03*
X0065833Y0108333D03*
X0065833Y0103333D03*
X0065833Y0098333D03*
X0070833Y0098333D03*
X0075833Y0098333D03*
X0080833Y0098333D03*
X0080833Y0103333D03*
X0075833Y0103333D03*
X0070833Y0103333D03*
X0070833Y0108333D03*
X0075833Y0108333D03*
X0080833Y0108333D03*
X0080833Y0113333D03*
X0075833Y0113333D03*
X0070833Y0113333D03*
X0095833Y0113333D03*
D24*
X0198333Y0211458D03*
X0215208Y0223333D03*
X0158333Y0220208D03*
X0092083Y0243333D03*
X0074583Y0220208D03*
D25*
X0163333Y0180833D03*
X0174583Y0185833D03*
X0174583Y0199583D03*
X0192083Y0185833D03*
X0199583Y0183333D03*
X0173333Y0215833D03*
X0305833Y0203333D03*
X0318333Y0200833D03*
X0320833Y0210833D03*
X0162083Y0103333D03*
X0310833Y0093333D03*
M02*
