G75*
%MOIN*%
%OFA0B0*%
%FSLAX25Y25*%
%IPPOS*%
%LPD*%
%AMOC8*
5,1,8,0,0,1.08239X$1,22.5*
%
%ADD10C,0.00800*%
%ADD11C,0.01100*%
%ADD12R,0.07400X0.07400*%
%ADD13C,0.07400*%
%ADD14C,0.05150*%
%ADD15C,0.05150*%
%ADD16C,0.05200*%
%ADD17C,0.10000*%
%ADD18OC8,0.10000*%
%ADD19C,0.05937*%
%ADD20C,0.06000*%
%ADD21OC8,0.05200*%
%ADD22C,0.05600*%
%ADD23OC8,0.08500*%
%ADD24R,0.03962X0.03962*%
%ADD25C,0.03000*%
%ADD26C,0.03600*%
%ADD27C,0.01000*%
%ADD28C,0.02800*%
D10*
X0068333Y0048333D02*
X0333333Y0048333D01*
X0333575Y0048336D01*
X0333816Y0048345D01*
X0334057Y0048359D01*
X0334298Y0048380D01*
X0334538Y0048406D01*
X0334778Y0048438D01*
X0335017Y0048476D01*
X0335254Y0048519D01*
X0335491Y0048569D01*
X0335726Y0048624D01*
X0335960Y0048684D01*
X0336192Y0048751D01*
X0336423Y0048822D01*
X0336652Y0048900D01*
X0336879Y0048983D01*
X0337104Y0049071D01*
X0337327Y0049165D01*
X0337547Y0049264D01*
X0337765Y0049369D01*
X0337980Y0049478D01*
X0338193Y0049593D01*
X0338403Y0049713D01*
X0338609Y0049838D01*
X0338813Y0049968D01*
X0339014Y0050103D01*
X0339211Y0050243D01*
X0339405Y0050387D01*
X0339595Y0050536D01*
X0339781Y0050690D01*
X0339964Y0050848D01*
X0340143Y0051010D01*
X0340318Y0051177D01*
X0340489Y0051348D01*
X0340656Y0051523D01*
X0340818Y0051702D01*
X0340976Y0051885D01*
X0341130Y0052071D01*
X0341279Y0052261D01*
X0341423Y0052455D01*
X0341563Y0052652D01*
X0341698Y0052853D01*
X0341828Y0053057D01*
X0341953Y0053263D01*
X0342073Y0053473D01*
X0342188Y0053686D01*
X0342297Y0053901D01*
X0342402Y0054119D01*
X0342501Y0054339D01*
X0342595Y0054562D01*
X0342683Y0054787D01*
X0342766Y0055014D01*
X0342844Y0055243D01*
X0342915Y0055474D01*
X0342982Y0055706D01*
X0343042Y0055940D01*
X0343097Y0056175D01*
X0343147Y0056412D01*
X0343190Y0056649D01*
X0343228Y0056888D01*
X0343260Y0057128D01*
X0343286Y0057368D01*
X0343307Y0057609D01*
X0343321Y0057850D01*
X0343330Y0058091D01*
X0343333Y0058333D01*
X0343333Y0248333D01*
X0343330Y0248575D01*
X0343321Y0248816D01*
X0343307Y0249057D01*
X0343286Y0249298D01*
X0343260Y0249538D01*
X0343228Y0249778D01*
X0343190Y0250017D01*
X0343147Y0250254D01*
X0343097Y0250491D01*
X0343042Y0250726D01*
X0342982Y0250960D01*
X0342915Y0251192D01*
X0342844Y0251423D01*
X0342766Y0251652D01*
X0342683Y0251879D01*
X0342595Y0252104D01*
X0342501Y0252327D01*
X0342402Y0252547D01*
X0342297Y0252765D01*
X0342188Y0252980D01*
X0342073Y0253193D01*
X0341953Y0253403D01*
X0341828Y0253609D01*
X0341698Y0253813D01*
X0341563Y0254014D01*
X0341423Y0254211D01*
X0341279Y0254405D01*
X0341130Y0254595D01*
X0340976Y0254781D01*
X0340818Y0254964D01*
X0340656Y0255143D01*
X0340489Y0255318D01*
X0340318Y0255489D01*
X0340143Y0255656D01*
X0339964Y0255818D01*
X0339781Y0255976D01*
X0339595Y0256130D01*
X0339405Y0256279D01*
X0339211Y0256423D01*
X0339014Y0256563D01*
X0338813Y0256698D01*
X0338609Y0256828D01*
X0338403Y0256953D01*
X0338193Y0257073D01*
X0337980Y0257188D01*
X0337765Y0257297D01*
X0337547Y0257402D01*
X0337327Y0257501D01*
X0337104Y0257595D01*
X0336879Y0257683D01*
X0336652Y0257766D01*
X0336423Y0257844D01*
X0336192Y0257915D01*
X0335960Y0257982D01*
X0335726Y0258042D01*
X0335491Y0258097D01*
X0335254Y0258147D01*
X0335017Y0258190D01*
X0334778Y0258228D01*
X0334538Y0258260D01*
X0334298Y0258286D01*
X0334057Y0258307D01*
X0333816Y0258321D01*
X0333575Y0258330D01*
X0333333Y0258333D01*
X0068333Y0258333D01*
X0068091Y0258330D01*
X0067850Y0258321D01*
X0067609Y0258307D01*
X0067368Y0258286D01*
X0067128Y0258260D01*
X0066888Y0258228D01*
X0066649Y0258190D01*
X0066412Y0258147D01*
X0066175Y0258097D01*
X0065940Y0258042D01*
X0065706Y0257982D01*
X0065474Y0257915D01*
X0065243Y0257844D01*
X0065014Y0257766D01*
X0064787Y0257683D01*
X0064562Y0257595D01*
X0064339Y0257501D01*
X0064119Y0257402D01*
X0063901Y0257297D01*
X0063686Y0257188D01*
X0063473Y0257073D01*
X0063263Y0256953D01*
X0063057Y0256828D01*
X0062853Y0256698D01*
X0062652Y0256563D01*
X0062455Y0256423D01*
X0062261Y0256279D01*
X0062071Y0256130D01*
X0061885Y0255976D01*
X0061702Y0255818D01*
X0061523Y0255656D01*
X0061348Y0255489D01*
X0061177Y0255318D01*
X0061010Y0255143D01*
X0060848Y0254964D01*
X0060690Y0254781D01*
X0060536Y0254595D01*
X0060387Y0254405D01*
X0060243Y0254211D01*
X0060103Y0254014D01*
X0059968Y0253813D01*
X0059838Y0253609D01*
X0059713Y0253403D01*
X0059593Y0253193D01*
X0059478Y0252980D01*
X0059369Y0252765D01*
X0059264Y0252547D01*
X0059165Y0252327D01*
X0059071Y0252104D01*
X0058983Y0251879D01*
X0058900Y0251652D01*
X0058822Y0251423D01*
X0058751Y0251192D01*
X0058684Y0250960D01*
X0058624Y0250726D01*
X0058569Y0250491D01*
X0058519Y0250254D01*
X0058476Y0250017D01*
X0058438Y0249778D01*
X0058406Y0249538D01*
X0058380Y0249298D01*
X0058359Y0249057D01*
X0058345Y0248816D01*
X0058336Y0248575D01*
X0058333Y0248333D01*
X0058333Y0058333D01*
X0058336Y0058091D01*
X0058345Y0057850D01*
X0058359Y0057609D01*
X0058380Y0057368D01*
X0058406Y0057128D01*
X0058438Y0056888D01*
X0058476Y0056649D01*
X0058519Y0056412D01*
X0058569Y0056175D01*
X0058624Y0055940D01*
X0058684Y0055706D01*
X0058751Y0055474D01*
X0058822Y0055243D01*
X0058900Y0055014D01*
X0058983Y0054787D01*
X0059071Y0054562D01*
X0059165Y0054339D01*
X0059264Y0054119D01*
X0059369Y0053901D01*
X0059478Y0053686D01*
X0059593Y0053473D01*
X0059713Y0053263D01*
X0059838Y0053057D01*
X0059968Y0052853D01*
X0060103Y0052652D01*
X0060243Y0052455D01*
X0060387Y0052261D01*
X0060536Y0052071D01*
X0060690Y0051885D01*
X0060848Y0051702D01*
X0061010Y0051523D01*
X0061177Y0051348D01*
X0061348Y0051177D01*
X0061523Y0051010D01*
X0061702Y0050848D01*
X0061885Y0050690D01*
X0062071Y0050536D01*
X0062261Y0050387D01*
X0062455Y0050243D01*
X0062652Y0050103D01*
X0062853Y0049968D01*
X0063057Y0049838D01*
X0063263Y0049713D01*
X0063473Y0049593D01*
X0063686Y0049478D01*
X0063901Y0049369D01*
X0064119Y0049264D01*
X0064339Y0049165D01*
X0064562Y0049071D01*
X0064787Y0048983D01*
X0065014Y0048900D01*
X0065243Y0048822D01*
X0065474Y0048751D01*
X0065706Y0048684D01*
X0065940Y0048624D01*
X0066175Y0048569D01*
X0066412Y0048519D01*
X0066649Y0048476D01*
X0066888Y0048438D01*
X0067128Y0048406D01*
X0067368Y0048380D01*
X0067609Y0048359D01*
X0067850Y0048345D01*
X0068091Y0048336D01*
X0068333Y0048333D01*
D11*
X0176501Y0038804D02*
X0176501Y0036836D01*
X0177485Y0035852D01*
X0180437Y0035852D01*
X0178469Y0035852D02*
X0176501Y0033883D01*
X0180437Y0033883D02*
X0180437Y0039788D01*
X0177485Y0039788D01*
X0176501Y0038804D01*
X0182946Y0039788D02*
X0186883Y0039788D01*
X0186883Y0033883D01*
X0182946Y0033883D01*
X0184915Y0036836D02*
X0186883Y0036836D01*
X0189392Y0036836D02*
X0190376Y0035852D01*
X0193328Y0035852D01*
X0193328Y0033883D02*
X0193328Y0039788D01*
X0190376Y0039788D01*
X0189392Y0038804D01*
X0189392Y0036836D01*
X0195837Y0036836D02*
X0196821Y0035852D01*
X0199774Y0035852D01*
X0199774Y0033883D02*
X0199774Y0039788D01*
X0196821Y0039788D01*
X0195837Y0038804D01*
X0195837Y0036836D01*
X0202283Y0038804D02*
X0202283Y0034867D01*
X0203267Y0033883D01*
X0205235Y0033883D01*
X0206219Y0034867D01*
X0206219Y0038804D01*
X0205235Y0039788D01*
X0203267Y0039788D01*
X0202283Y0038804D01*
X0208728Y0038804D02*
X0209712Y0039788D01*
X0211681Y0039788D01*
X0212665Y0038804D01*
X0212665Y0034867D01*
X0211681Y0033883D01*
X0209712Y0033883D01*
X0208728Y0034867D01*
X0221619Y0033883D02*
X0221619Y0039788D01*
X0223587Y0037820D01*
X0225556Y0039788D01*
X0225556Y0033883D01*
X0228065Y0034867D02*
X0228065Y0038804D01*
X0229049Y0039788D01*
X0231017Y0039788D01*
X0232001Y0038804D01*
X0232001Y0034867D01*
X0231017Y0033883D01*
X0229049Y0033883D01*
X0228065Y0034867D01*
X0234510Y0039788D02*
X0238447Y0039788D01*
X0236478Y0039788D02*
X0236478Y0033883D01*
X0242924Y0033883D02*
X0242924Y0039788D01*
X0244892Y0039788D02*
X0240956Y0039788D01*
X0247401Y0038804D02*
X0247401Y0034867D01*
X0248385Y0033883D01*
X0250354Y0033883D01*
X0251338Y0034867D01*
X0251338Y0038804D01*
X0250354Y0039788D01*
X0248385Y0039788D01*
X0247401Y0038804D01*
X0253847Y0038804D02*
X0253847Y0037820D01*
X0254831Y0036836D01*
X0257783Y0036836D01*
X0254831Y0036836D02*
X0253847Y0035852D01*
X0253847Y0034867D01*
X0254831Y0033883D01*
X0257783Y0033883D01*
X0257783Y0039788D01*
X0254831Y0039788D01*
X0253847Y0038804D01*
D12*
X0263333Y0058833D03*
X0173333Y0058833D03*
X0138333Y0247833D03*
X0223333Y0247833D03*
X0243333Y0248833D03*
D13*
X0253333Y0247833D03*
X0263333Y0248833D03*
X0273333Y0247833D03*
X0283333Y0248833D03*
X0293333Y0247833D03*
X0303333Y0248833D03*
X0313333Y0247833D03*
X0213333Y0248833D03*
X0203333Y0247833D03*
X0193333Y0248833D03*
X0183333Y0247833D03*
X0173333Y0248833D03*
X0163333Y0247833D03*
X0153333Y0248833D03*
X0128333Y0248833D03*
X0118333Y0247833D03*
X0108333Y0248833D03*
X0098333Y0247833D03*
X0088333Y0248833D03*
X0078333Y0247833D03*
X0068333Y0248833D03*
X0103333Y0058333D03*
X0113333Y0057333D03*
X0123333Y0058333D03*
X0133333Y0057333D03*
X0143333Y0058333D03*
X0153333Y0057333D03*
X0183333Y0057833D03*
X0193333Y0058833D03*
X0203333Y0057833D03*
X0213333Y0058833D03*
X0223333Y0057833D03*
X0233333Y0058833D03*
X0243333Y0057833D03*
X0273333Y0057833D03*
X0283333Y0058833D03*
X0293333Y0057833D03*
X0303333Y0058833D03*
X0313333Y0057833D03*
X0323333Y0058833D03*
X0333333Y0057833D03*
D14*
X0208333Y0165759D02*
X0208333Y0170908D01*
X0198333Y0170908D02*
X0198333Y0165759D01*
X0188333Y0165759D02*
X0188333Y0170908D01*
X0178333Y0170908D02*
X0178333Y0165759D01*
X0168333Y0165759D02*
X0168333Y0170908D01*
X0158333Y0170908D02*
X0158333Y0165759D01*
X0148333Y0165759D02*
X0148333Y0170908D01*
X0138333Y0170908D02*
X0138333Y0165759D01*
X0128333Y0165759D02*
X0128333Y0170908D01*
X0118333Y0170908D02*
X0118333Y0165759D01*
X0108333Y0165759D02*
X0108333Y0170908D01*
X0098333Y0170908D02*
X0098333Y0165759D01*
X0088333Y0165759D02*
X0088333Y0170908D01*
X0078333Y0170908D02*
X0078333Y0165759D01*
X0068333Y0165759D02*
X0068333Y0170908D01*
X0068333Y0225759D02*
X0068333Y0230908D01*
X0078333Y0230908D02*
X0078333Y0225759D01*
X0088333Y0225759D02*
X0088333Y0230908D01*
X0098333Y0230908D02*
X0098333Y0225759D01*
X0108333Y0225759D02*
X0108333Y0230908D01*
X0118333Y0230908D02*
X0118333Y0225759D01*
X0128333Y0225759D02*
X0128333Y0230908D01*
X0138333Y0230908D02*
X0138333Y0225759D01*
X0148333Y0225759D02*
X0148333Y0230908D01*
X0158333Y0230908D02*
X0158333Y0225759D01*
X0168333Y0225759D02*
X0168333Y0230908D01*
X0178333Y0230908D02*
X0178333Y0225759D01*
X0188333Y0225759D02*
X0188333Y0230908D01*
X0198333Y0230908D02*
X0198333Y0225759D01*
X0208333Y0225759D02*
X0208333Y0230908D01*
D15*
X0203333Y0208333D03*
X0213333Y0208333D03*
X0213333Y0198333D03*
X0203333Y0198333D03*
X0203333Y0188333D03*
X0213333Y0188333D03*
D16*
X0208333Y0080933D02*
X0208333Y0075733D01*
X0198333Y0075733D02*
X0198333Y0080933D01*
X0228333Y0080933D02*
X0228333Y0075733D01*
D17*
X0148333Y0138333D03*
D18*
X0148333Y0118333D03*
D19*
X0106302Y0118333D02*
X0100365Y0118333D01*
X0100365Y0128333D02*
X0106302Y0128333D01*
X0106302Y0138333D02*
X0100365Y0138333D01*
X0076302Y0133333D02*
X0070365Y0133333D01*
X0070365Y0123333D02*
X0076302Y0123333D01*
D20*
X0073333Y0123333D02*
X0082870Y0123333D01*
X0073333Y0123333D01*
X0073333Y0123333D01*
X0073333Y0116765D01*
X0069934Y0116765D01*
X0069081Y0116877D01*
X0068249Y0117100D01*
X0067453Y0117430D01*
X0066708Y0117860D01*
X0066025Y0118384D01*
X0065416Y0118993D01*
X0064892Y0119676D01*
X0064461Y0120422D01*
X0064132Y0121217D01*
X0063909Y0122049D01*
X0063796Y0122903D01*
X0063796Y0123333D01*
X0073333Y0123333D01*
X0073333Y0123333D01*
X0073333Y0123333D01*
X0073333Y0116765D01*
X0069934Y0116765D01*
X0069081Y0116877D01*
X0068249Y0117100D01*
X0067453Y0117430D01*
X0066708Y0117860D01*
X0066025Y0118384D01*
X0065833Y0118576D01*
X0065833Y0098333D01*
X0150719Y0098333D01*
X0150833Y0098447D01*
X0150833Y0109733D01*
X0148333Y0109733D01*
X0148333Y0118333D01*
X0139733Y0118333D01*
X0139733Y0114771D01*
X0144771Y0109733D01*
X0148333Y0109733D01*
X0148333Y0118333D01*
X0148333Y0118333D01*
X0148333Y0118333D01*
X0148333Y0118333D01*
X0139733Y0118333D01*
X0139733Y0114771D01*
X0144771Y0109733D01*
X0148333Y0109733D01*
X0151896Y0109733D01*
X0156933Y0114771D01*
X0156933Y0118333D01*
X0148333Y0118333D01*
X0148333Y0118333D01*
X0103333Y0118333D01*
X0103333Y0118333D01*
X0103333Y0111765D01*
X0099934Y0111765D01*
X0099081Y0111877D01*
X0098249Y0112100D01*
X0097453Y0112430D01*
X0096708Y0112860D01*
X0096025Y0113384D01*
X0095416Y0113993D01*
X0094892Y0114676D01*
X0094461Y0115422D01*
X0094132Y0116217D01*
X0093909Y0117049D01*
X0093796Y0117903D01*
X0093796Y0118333D01*
X0103333Y0118333D01*
X0103333Y0118333D01*
X0103333Y0118333D01*
X0103333Y0111765D01*
X0099934Y0111765D01*
X0099081Y0111877D01*
X0098249Y0112100D01*
X0097453Y0112430D01*
X0096708Y0112860D01*
X0096025Y0113384D01*
X0095416Y0113993D01*
X0094892Y0114676D01*
X0094461Y0115422D01*
X0094132Y0116217D01*
X0093909Y0117049D01*
X0093796Y0117903D01*
X0093796Y0118333D01*
X0103333Y0118333D01*
X0103333Y0118333D01*
X0091833Y0118333D01*
X0087833Y0123333D01*
X0073333Y0123333D01*
X0073333Y0116765D01*
X0076732Y0116765D01*
X0077586Y0116877D01*
X0078418Y0117100D01*
X0079213Y0117430D01*
X0079959Y0117860D01*
X0080642Y0118384D01*
X0081251Y0118993D01*
X0081775Y0119676D01*
X0082206Y0120422D01*
X0082535Y0121217D01*
X0082758Y0122049D01*
X0082870Y0122903D01*
X0082870Y0123333D01*
X0073333Y0123333D01*
X0063796Y0123333D01*
X0063796Y0123764D01*
X0063909Y0124618D01*
X0064132Y0125449D01*
X0064415Y0126133D01*
X0064401Y0126133D01*
X0063733Y0126410D01*
X0063733Y0067501D01*
X0065765Y0069533D01*
X0068333Y0069533D01*
X0068333Y0063333D01*
X0068333Y0063333D01*
X0068333Y0057133D01*
X0065765Y0057133D01*
X0063733Y0059165D01*
X0063733Y0058333D01*
X0063773Y0057733D01*
X0064083Y0056573D01*
X0064684Y0055533D01*
X0065533Y0054684D01*
X0066573Y0054083D01*
X0066573Y0054083D01*
X0067733Y0053773D01*
X0068333Y0053733D01*
X0096761Y0053733D01*
X0096636Y0053858D01*
X0095433Y0056762D01*
X0095433Y0059905D01*
X0096636Y0062808D01*
X0098858Y0065031D01*
X0101762Y0066233D01*
X0104905Y0066233D01*
X0107808Y0065031D01*
X0108833Y0064006D01*
X0108858Y0064031D01*
X0111762Y0065233D01*
X0114905Y0065233D01*
X0117808Y0064031D01*
X0117833Y0064006D01*
X0118858Y0065031D01*
X0121762Y0066233D01*
X0123172Y0066233D01*
X0126001Y0069062D01*
X0127605Y0070666D01*
X0129700Y0071533D01*
X0130972Y0071533D01*
X0148072Y0088633D01*
X0132780Y0088633D01*
X0131465Y0087318D01*
X0135133Y0083650D01*
X0135133Y0078017D01*
X0131150Y0074033D01*
X0125517Y0074033D01*
X0123333Y0076217D01*
X0121150Y0074033D01*
X0115517Y0074033D01*
X0111533Y0078017D01*
X0111533Y0083650D01*
X0115517Y0087633D01*
X0118487Y0087633D01*
X0126849Y0095996D01*
X0128171Y0097318D01*
X0129898Y0098033D01*
X0150137Y0098033D01*
X0156483Y0104380D01*
X0156483Y0104447D01*
X0157336Y0106505D01*
X0158911Y0108081D01*
X0160969Y0108933D01*
X0163197Y0108933D01*
X0165255Y0108081D01*
X0166388Y0106949D01*
X0174647Y0115208D01*
X0156519Y0133337D01*
X0154912Y0131729D01*
X0154619Y0131608D01*
X0153545Y0130534D01*
X0150163Y0129133D01*
X0146503Y0129133D01*
X0143122Y0130534D01*
X0143023Y0130633D01*
X0113108Y0130633D01*
X0113470Y0129759D01*
X0113470Y0126907D01*
X0112379Y0124273D01*
X0111015Y0122909D01*
X0111251Y0122674D01*
X0111775Y0121990D01*
X0112206Y0121245D01*
X0112535Y0120449D01*
X0112758Y0119618D01*
X0112870Y0118764D01*
X0112870Y0118333D01*
X0103333Y0118333D01*
X0103333Y0111765D01*
X0106732Y0111765D01*
X0107586Y0111877D01*
X0108418Y0112100D01*
X0109213Y0112430D01*
X0109959Y0112860D01*
X0110642Y0113384D01*
X0111251Y0113993D01*
X0111775Y0114676D01*
X0112206Y0115422D01*
X0112535Y0116217D01*
X0112758Y0117049D01*
X0112870Y0117903D01*
X0112870Y0118333D01*
X0103333Y0118333D01*
X0093796Y0118333D01*
X0093796Y0118764D01*
X0093909Y0119618D01*
X0094132Y0120449D01*
X0094461Y0121245D01*
X0094892Y0121990D01*
X0095416Y0122674D01*
X0095651Y0122909D01*
X0094288Y0124273D01*
X0093196Y0126907D01*
X0093196Y0128294D01*
X0092694Y0127792D01*
X0092452Y0127691D01*
X0092263Y0127479D01*
X0092066Y0127384D01*
X0091912Y0127229D01*
X0090784Y0126762D01*
X0089686Y0126230D01*
X0089468Y0126217D01*
X0089266Y0126133D01*
X0088045Y0126133D01*
X0086826Y0126062D01*
X0086620Y0126133D01*
X0082252Y0126133D01*
X0082535Y0125449D01*
X0082758Y0124618D01*
X0082870Y0123764D01*
X0082870Y0123333D01*
X0082870Y0122903D01*
X0082758Y0122049D01*
X0082535Y0121217D01*
X0082206Y0120422D01*
X0081775Y0119676D01*
X0081251Y0118993D01*
X0080642Y0118384D01*
X0079959Y0117860D01*
X0079213Y0117430D01*
X0078418Y0117100D01*
X0077586Y0116877D01*
X0076732Y0116765D01*
X0073333Y0116765D01*
X0073333Y0123333D01*
X0073333Y0123333D01*
X0073333Y0123333D01*
X0073333Y0120315D02*
X0073333Y0120315D01*
X0073333Y0120315D01*
X0064523Y0120315D02*
X0063733Y0120315D01*
X0063733Y0114317D02*
X0095167Y0114317D01*
X0065833Y0114317D01*
X0065833Y0108318D02*
X0150833Y0108318D01*
X0148333Y0109733D02*
X0148333Y0118333D01*
X0139733Y0118333D01*
X0139733Y0121896D01*
X0144771Y0126933D01*
X0148333Y0126933D01*
X0148333Y0118333D01*
X0148333Y0109733D01*
X0148333Y0114317D02*
X0148333Y0114317D01*
X0148333Y0114317D01*
X0148333Y0118333D02*
X0148333Y0118333D01*
X0148333Y0118333D01*
X0148333Y0126933D01*
X0151896Y0126933D01*
X0156933Y0121896D01*
X0156933Y0118333D01*
X0148333Y0118333D01*
X0148333Y0120315D02*
X0148333Y0120315D01*
X0156933Y0120315D02*
X0169540Y0120315D01*
X0173756Y0114317D02*
X0156479Y0114317D01*
X0159485Y0108318D02*
X0063733Y0108318D01*
X0063733Y0102320D02*
X0154423Y0102320D01*
X0150833Y0102320D02*
X0065833Y0102320D01*
X0063733Y0096321D02*
X0127175Y0096321D01*
X0121176Y0090323D02*
X0063733Y0090323D01*
X0063733Y0084324D02*
X0082208Y0084324D01*
X0081533Y0083650D02*
X0081533Y0078017D01*
X0085517Y0074033D01*
X0091150Y0074033D01*
X0095133Y0078017D01*
X0095133Y0083650D01*
X0091150Y0087633D01*
X0085517Y0087633D01*
X0081533Y0083650D01*
X0081533Y0078326D02*
X0063733Y0078326D01*
X0063733Y0072327D02*
X0131766Y0072327D01*
X0135133Y0078326D02*
X0137765Y0078326D01*
X0134459Y0084324D02*
X0143763Y0084324D01*
X0152556Y0076995D02*
X0155517Y0074033D01*
X0161150Y0074033D01*
X0165133Y0078017D01*
X0165133Y0083650D01*
X0162172Y0086611D01*
X0182708Y0107147D01*
X0201355Y0088501D01*
X0202633Y0087971D01*
X0202633Y0085401D01*
X0202372Y0085662D01*
X0201583Y0086236D01*
X0200713Y0086679D01*
X0199785Y0086981D01*
X0198821Y0087133D01*
X0198333Y0087133D01*
X0197845Y0087133D01*
X0196881Y0086981D01*
X0195953Y0086679D01*
X0195084Y0086236D01*
X0194294Y0085662D01*
X0193604Y0084972D01*
X0193031Y0084183D01*
X0192588Y0083313D01*
X0192286Y0082385D01*
X0192133Y0081421D01*
X0192133Y0078333D01*
X0192133Y0075245D01*
X0192286Y0074281D01*
X0192588Y0073353D01*
X0193031Y0072484D01*
X0193604Y0071694D01*
X0194294Y0071004D01*
X0195084Y0070431D01*
X0195953Y0069988D01*
X0196881Y0069686D01*
X0197845Y0069533D01*
X0198333Y0069533D01*
X0198333Y0078333D01*
X0198333Y0078333D01*
X0192133Y0078333D01*
X0198333Y0078333D01*
X0198333Y0078333D01*
X0198333Y0069533D01*
X0198821Y0069533D01*
X0199785Y0069686D01*
X0200713Y0069988D01*
X0201583Y0070431D01*
X0202372Y0071004D01*
X0202909Y0071541D01*
X0204481Y0069969D01*
X0206981Y0068933D01*
X0209686Y0068933D01*
X0212185Y0069969D01*
X0214098Y0071881D01*
X0215133Y0074381D01*
X0215133Y0082286D01*
X0214098Y0084785D01*
X0214033Y0084850D01*
X0214033Y0085987D01*
X0221533Y0078487D01*
X0221533Y0074381D01*
X0222569Y0071881D01*
X0224481Y0069969D01*
X0226981Y0068933D01*
X0229686Y0068933D01*
X0232185Y0069969D01*
X0234098Y0071881D01*
X0235133Y0074381D01*
X0235133Y0082286D01*
X0235093Y0082383D01*
X0320137Y0082383D01*
X0324349Y0078171D01*
X0325671Y0076849D01*
X0327398Y0076133D01*
X0328583Y0076133D01*
X0328883Y0075833D01*
X0327383Y0074333D01*
X0327383Y0067333D01*
X0329797Y0064919D01*
X0328858Y0064531D01*
X0328833Y0064506D01*
X0327808Y0065531D01*
X0324905Y0066733D01*
X0321762Y0066733D01*
X0318858Y0065531D01*
X0317833Y0064506D01*
X0317808Y0064531D01*
X0314905Y0065733D01*
X0311762Y0065733D01*
X0308858Y0064531D01*
X0308833Y0064506D01*
X0307808Y0065531D01*
X0304905Y0066733D01*
X0301762Y0066733D01*
X0298858Y0065531D01*
X0297833Y0064506D01*
X0297808Y0064531D01*
X0294905Y0065733D01*
X0291762Y0065733D01*
X0288858Y0064531D01*
X0288833Y0064506D01*
X0287808Y0065531D01*
X0284905Y0066733D01*
X0281762Y0066733D01*
X0278858Y0065531D01*
X0277833Y0064506D01*
X0277808Y0064531D01*
X0274905Y0065733D01*
X0271762Y0065733D01*
X0270356Y0065151D01*
X0269412Y0066094D01*
X0267869Y0066733D01*
X0258798Y0066733D01*
X0257254Y0066094D01*
X0256073Y0064912D01*
X0255433Y0063369D01*
X0255433Y0054298D01*
X0255667Y0053733D01*
X0250186Y0053733D01*
X0251233Y0056262D01*
X0251233Y0059405D01*
X0250031Y0062308D01*
X0247808Y0064531D01*
X0244905Y0065733D01*
X0241762Y0065733D01*
X0238858Y0064531D01*
X0238833Y0064506D01*
X0237808Y0065531D01*
X0234905Y0066733D01*
X0231762Y0066733D01*
X0228858Y0065531D01*
X0227833Y0064506D01*
X0227808Y0064531D01*
X0224905Y0065733D01*
X0221762Y0065733D01*
X0218858Y0064531D01*
X0218833Y0064506D01*
X0217808Y0065531D01*
X0214905Y0066733D01*
X0211762Y0066733D01*
X0208858Y0065531D01*
X0207833Y0064506D01*
X0207808Y0064531D01*
X0204905Y0065733D01*
X0201762Y0065733D01*
X0198858Y0064531D01*
X0198833Y0064506D01*
X0197808Y0065531D01*
X0194905Y0066733D01*
X0191762Y0066733D01*
X0188858Y0065531D01*
X0187833Y0064506D01*
X0187808Y0064531D01*
X0184905Y0065733D01*
X0181762Y0065733D01*
X0180356Y0065151D01*
X0179412Y0066094D01*
X0177869Y0066733D01*
X0168798Y0066733D01*
X0167254Y0066094D01*
X0166073Y0064912D01*
X0165433Y0063369D01*
X0165433Y0054298D01*
X0165667Y0053733D01*
X0160393Y0053733D01*
X0161233Y0055762D01*
X0161233Y0058905D01*
X0160031Y0061808D01*
X0157808Y0064031D01*
X0154905Y0065233D01*
X0151762Y0065233D01*
X0148858Y0064031D01*
X0148409Y0063581D01*
X0148157Y0063834D01*
X0147398Y0064416D01*
X0146569Y0064895D01*
X0145685Y0065261D01*
X0144761Y0065508D01*
X0143812Y0065633D01*
X0143333Y0065633D01*
X0142855Y0065633D01*
X0141906Y0065508D01*
X0140982Y0065261D01*
X0140709Y0065148D01*
X0152556Y0076995D01*
X0147888Y0072327D02*
X0193144Y0072327D01*
X0198333Y0072327D02*
X0198333Y0072327D01*
X0198333Y0078326D02*
X0198333Y0078326D01*
X0198333Y0078333D02*
X0198333Y0087133D01*
X0198333Y0078333D01*
X0198333Y0078333D01*
X0198333Y0084324D02*
X0198333Y0084324D01*
X0193133Y0084324D02*
X0164459Y0084324D01*
X0165133Y0078326D02*
X0192133Y0078326D01*
X0190785Y0066329D02*
X0178845Y0066329D01*
X0167821Y0066329D02*
X0141890Y0066329D01*
X0143333Y0065633D02*
X0143333Y0058333D01*
X0143333Y0058333D01*
X0143333Y0065633D01*
X0143333Y0060330D02*
X0143333Y0060330D01*
X0160643Y0060330D02*
X0165433Y0060330D01*
X0165433Y0054332D02*
X0160641Y0054332D01*
X0195881Y0066329D02*
X0210785Y0066329D01*
X0215881Y0066329D02*
X0230785Y0066329D01*
X0235881Y0066329D02*
X0257821Y0066329D01*
X0255433Y0060330D02*
X0250850Y0060330D01*
X0250434Y0054332D02*
X0255433Y0054332D01*
X0268845Y0066329D02*
X0280785Y0066329D01*
X0285881Y0066329D02*
X0300785Y0066329D01*
X0305881Y0066329D02*
X0320785Y0066329D01*
X0325881Y0066329D02*
X0328388Y0066329D01*
X0327383Y0072327D02*
X0234283Y0072327D01*
X0235133Y0078326D02*
X0324194Y0078326D01*
X0334030Y0109283D02*
X0288496Y0154818D01*
X0286768Y0155533D01*
X0284898Y0155533D01*
X0199898Y0155533D01*
X0198171Y0154818D01*
X0196849Y0153496D01*
X0193687Y0150333D01*
X0189141Y0150333D01*
X0188033Y0149875D01*
X0188033Y0158984D01*
X0189681Y0158984D01*
X0192171Y0160015D01*
X0193758Y0161602D01*
X0194311Y0161049D01*
X0195097Y0160477D01*
X0195963Y0160036D01*
X0196887Y0159736D01*
X0197847Y0159584D01*
X0198333Y0159584D01*
X0198333Y0168333D01*
X0198333Y0168333D01*
X0198333Y0159584D01*
X0198819Y0159584D01*
X0199779Y0159736D01*
X0200704Y0160036D01*
X0201570Y0160477D01*
X0202356Y0161049D01*
X0202909Y0161602D01*
X0204496Y0160015D01*
X0206986Y0158984D01*
X0209681Y0158984D01*
X0212171Y0160015D01*
X0214077Y0161921D01*
X0215108Y0164411D01*
X0215108Y0172256D01*
X0214537Y0173633D01*
X0321387Y0173633D01*
X0324349Y0170671D01*
X0325671Y0169349D01*
X0327398Y0168633D01*
X0328583Y0168633D01*
X0332333Y0164883D01*
X0337933Y0164883D01*
X0337933Y0156916D01*
X0337412Y0157437D01*
X0334766Y0158533D01*
X0331901Y0158533D01*
X0329255Y0157437D01*
X0328333Y0156516D01*
X0327412Y0157437D01*
X0324766Y0158533D01*
X0321901Y0158533D01*
X0319255Y0157437D01*
X0317909Y0156091D01*
X0317694Y0156306D01*
X0317008Y0156833D01*
X0316259Y0157265D01*
X0315459Y0157596D01*
X0314624Y0157820D01*
X0313766Y0157933D01*
X0313333Y0157933D01*
X0312901Y0157933D01*
X0312043Y0157820D01*
X0311207Y0157596D01*
X0310408Y0157265D01*
X0309659Y0156833D01*
X0308972Y0156306D01*
X0308361Y0155694D01*
X0307834Y0155008D01*
X0307401Y0154259D01*
X0307070Y0153459D01*
X0306846Y0152624D01*
X0306733Y0151766D01*
X0306733Y0148333D01*
X0306733Y0144901D01*
X0306846Y0144043D01*
X0307070Y0143207D01*
X0307401Y0142408D01*
X0307834Y0141659D01*
X0308361Y0140972D01*
X0308972Y0140361D01*
X0309659Y0139834D01*
X0310408Y0139401D01*
X0311207Y0139070D01*
X0312043Y0138846D01*
X0312901Y0138733D01*
X0313333Y0138733D01*
X0313333Y0148333D01*
X0313333Y0148333D01*
X0306733Y0148333D01*
X0313333Y0148333D01*
X0313333Y0148333D01*
X0313333Y0138733D01*
X0313766Y0138733D01*
X0314624Y0138846D01*
X0315459Y0139070D01*
X0316259Y0139401D01*
X0317008Y0139834D01*
X0317694Y0140361D01*
X0317909Y0140575D01*
X0319255Y0139229D01*
X0321901Y0138133D01*
X0324766Y0138133D01*
X0327412Y0139229D01*
X0328333Y0140151D01*
X0329255Y0139229D01*
X0331901Y0138133D01*
X0334766Y0138133D01*
X0337412Y0139229D01*
X0337933Y0139751D01*
X0337933Y0109283D01*
X0334030Y0109283D01*
X0337933Y0114317D02*
X0328996Y0114317D01*
X0322998Y0120315D02*
X0337933Y0120315D01*
X0337933Y0126314D02*
X0316999Y0126314D01*
X0311001Y0132312D02*
X0337933Y0132312D01*
X0337933Y0138311D02*
X0335194Y0138311D01*
X0331472Y0138311D02*
X0325194Y0138311D01*
X0321472Y0138311D02*
X0305002Y0138311D01*
X0306811Y0144310D02*
X0299004Y0144310D01*
X0293005Y0150308D02*
X0306733Y0150308D01*
X0313333Y0150308D02*
X0313333Y0150308D01*
X0313333Y0151333D02*
X0313333Y0145333D01*
X0313333Y0144310D02*
X0313333Y0144310D01*
X0313333Y0148333D02*
X0313333Y0157933D01*
X0313333Y0148333D01*
X0313333Y0148333D01*
X0313333Y0156307D02*
X0313333Y0156307D01*
X0308973Y0156307D02*
X0188033Y0156307D01*
X0188033Y0150308D02*
X0189080Y0150308D01*
X0202618Y0145971D02*
X0203133Y0144726D01*
X0203133Y0141941D01*
X0202068Y0139368D01*
X0200609Y0137909D01*
X0200955Y0137562D01*
X0201466Y0136897D01*
X0201886Y0136170D01*
X0202207Y0135395D01*
X0202424Y0134585D01*
X0202533Y0133753D01*
X0202533Y0133333D01*
X0193333Y0133333D01*
X0193333Y0133333D01*
X0202533Y0133333D01*
X0202533Y0132914D01*
X0202424Y0132082D01*
X0202207Y0131272D01*
X0201886Y0130497D01*
X0201466Y0129770D01*
X0200955Y0129104D01*
X0200609Y0128758D01*
X0202068Y0127298D01*
X0203133Y0124726D01*
X0203133Y0121941D01*
X0202618Y0120696D01*
X0231530Y0091783D01*
X0248237Y0091783D01*
X0223687Y0116333D01*
X0219141Y0116333D01*
X0216568Y0117399D01*
X0214599Y0119368D01*
X0213533Y0121941D01*
X0213533Y0124726D01*
X0214599Y0127298D01*
X0215634Y0128333D01*
X0214599Y0129368D01*
X0213533Y0131941D01*
X0213533Y0134726D01*
X0214599Y0137298D01*
X0215634Y0138333D01*
X0214599Y0139368D01*
X0213533Y0141941D01*
X0213533Y0144726D01*
X0214116Y0146133D01*
X0202780Y0146133D01*
X0202618Y0145971D01*
X0203133Y0144310D02*
X0213533Y0144310D01*
X0215612Y0138311D02*
X0201010Y0138311D01*
X0202454Y0132312D02*
X0213533Y0132312D01*
X0214191Y0126314D02*
X0202475Y0126314D01*
X0202998Y0120315D02*
X0214207Y0120315D01*
X0208996Y0114317D02*
X0225703Y0114317D01*
X0231701Y0108318D02*
X0214995Y0108318D01*
X0220994Y0102320D02*
X0237700Y0102320D01*
X0243698Y0096321D02*
X0226992Y0096321D01*
X0215695Y0084324D02*
X0214289Y0084324D01*
X0215133Y0078326D02*
X0221533Y0078326D01*
X0222384Y0072327D02*
X0214283Y0072327D01*
X0199533Y0090323D02*
X0165884Y0090323D01*
X0171882Y0096321D02*
X0193534Y0096321D01*
X0187536Y0102320D02*
X0177881Y0102320D01*
X0167757Y0108318D02*
X0164682Y0108318D01*
X0140187Y0114317D02*
X0111499Y0114317D01*
X0140187Y0114317D01*
X0139733Y0120315D02*
X0112571Y0120315D01*
X0112870Y0118333D02*
X0103333Y0118333D01*
X0103333Y0111765D01*
X0106732Y0111765D01*
X0107586Y0111877D01*
X0108418Y0112100D01*
X0109213Y0112430D01*
X0109959Y0112860D01*
X0110642Y0113384D01*
X0111251Y0113993D01*
X0111775Y0114676D01*
X0112206Y0115422D01*
X0112535Y0116217D01*
X0112758Y0117049D01*
X0112870Y0117903D01*
X0112870Y0118333D01*
X0113225Y0126314D02*
X0144152Y0126314D01*
X0148333Y0126314D02*
X0148333Y0126314D01*
X0152515Y0126314D02*
X0163542Y0126314D01*
X0157543Y0132312D02*
X0155495Y0132312D01*
X0148333Y0138333D02*
X0148333Y0138333D01*
X0139733Y0138333D01*
X0139733Y0137833D01*
X0112861Y0137833D01*
X0112870Y0137903D01*
X0112870Y0138333D01*
X0103333Y0138333D01*
X0093796Y0138333D01*
X0093796Y0137903D01*
X0093805Y0137833D01*
X0091833Y0137833D01*
X0087833Y0133333D01*
X0073333Y0133333D01*
X0073333Y0139902D01*
X0069934Y0139902D01*
X0069081Y0139789D01*
X0068249Y0139567D01*
X0067453Y0139237D01*
X0066708Y0138807D01*
X0066025Y0138282D01*
X0065833Y0138091D01*
X0065833Y0158333D01*
X0150833Y0158333D01*
X0150833Y0146567D01*
X0150015Y0146786D01*
X0148897Y0146933D01*
X0148333Y0146933D01*
X0147770Y0146933D01*
X0146652Y0146786D01*
X0145563Y0146494D01*
X0144521Y0146063D01*
X0143545Y0145499D01*
X0142651Y0144813D01*
X0141854Y0144016D01*
X0141167Y0143121D01*
X0140604Y0142145D01*
X0140172Y0141104D01*
X0139880Y0140015D01*
X0139733Y0138897D01*
X0139733Y0138333D01*
X0148333Y0138333D01*
X0148333Y0138333D01*
X0148333Y0146933D01*
X0148333Y0138333D01*
X0148333Y0144310D02*
X0148333Y0144310D01*
X0142147Y0144310D02*
X0109038Y0144310D01*
X0109213Y0144237D02*
X0108418Y0144567D01*
X0107586Y0144789D01*
X0106732Y0144902D01*
X0103333Y0144902D01*
X0099934Y0144902D01*
X0099081Y0144789D01*
X0098249Y0144567D01*
X0097453Y0144237D01*
X0096708Y0143807D01*
X0096025Y0143282D01*
X0095416Y0142674D01*
X0094892Y0141990D01*
X0094461Y0141245D01*
X0094132Y0140449D01*
X0093909Y0139618D01*
X0093796Y0138764D01*
X0093796Y0138333D01*
X0103333Y0138333D01*
X0103333Y0138333D01*
X0103333Y0144902D01*
X0103333Y0138333D01*
X0103333Y0138333D01*
X0103333Y0138333D01*
X0112870Y0138333D01*
X0112870Y0138764D01*
X0112758Y0139618D01*
X0112535Y0140449D01*
X0112206Y0141245D01*
X0111775Y0141990D01*
X0111251Y0142674D01*
X0110642Y0143282D01*
X0109959Y0143807D01*
X0109213Y0144237D01*
X0103333Y0144310D02*
X0103333Y0144310D01*
X0097628Y0144310D02*
X0065833Y0144310D01*
X0065833Y0150308D02*
X0150833Y0150308D01*
X0150833Y0156307D02*
X0065833Y0156307D01*
X0073333Y0139902D02*
X0073333Y0133333D01*
X0073333Y0133333D01*
X0073333Y0133333D01*
X0082870Y0133333D01*
X0082870Y0133764D01*
X0082758Y0134618D01*
X0082535Y0135449D01*
X0082206Y0136245D01*
X0081775Y0136990D01*
X0081251Y0137674D01*
X0080642Y0138282D01*
X0079959Y0138807D01*
X0079213Y0139237D01*
X0078418Y0139567D01*
X0077586Y0139789D01*
X0076732Y0139902D01*
X0073333Y0139902D01*
X0073333Y0138311D02*
X0073333Y0138311D01*
X0066062Y0138311D02*
X0065833Y0138311D01*
X0063965Y0126314D02*
X0063733Y0126314D01*
X0080605Y0138311D02*
X0093796Y0138311D01*
X0093442Y0126314D02*
X0089859Y0126314D01*
X0090248Y0120315D02*
X0082144Y0120315D01*
X0094096Y0120315D01*
X0103333Y0118333D02*
X0103333Y0118333D01*
X0103333Y0118333D01*
X0103333Y0114317D02*
X0103333Y0114317D01*
X0103333Y0114317D01*
X0112870Y0138311D02*
X0139733Y0138311D01*
X0198333Y0162305D02*
X0198333Y0162305D01*
X0198333Y0168304D02*
X0198333Y0168304D01*
X0215108Y0168304D02*
X0328913Y0168304D01*
X0324349Y0170671D02*
X0324349Y0170671D01*
X0337933Y0162305D02*
X0214236Y0162305D01*
X0196559Y0189278D02*
X0195255Y0190581D01*
X0193197Y0191433D01*
X0190969Y0191433D01*
X0188911Y0190581D01*
X0188864Y0190533D01*
X0186530Y0190533D01*
X0179718Y0197346D01*
X0180183Y0198469D01*
X0180183Y0200697D01*
X0179331Y0202755D01*
X0177755Y0204331D01*
X0175697Y0205183D01*
X0173469Y0205183D01*
X0171411Y0204331D01*
X0171364Y0204283D01*
X0156783Y0204283D01*
X0156783Y0219068D01*
X0156986Y0218984D01*
X0159681Y0218984D01*
X0162171Y0220015D01*
X0163333Y0221178D01*
X0164496Y0220015D01*
X0166986Y0218984D01*
X0167383Y0218984D01*
X0167383Y0217398D01*
X0167733Y0216553D01*
X0167733Y0214719D01*
X0168586Y0212661D01*
X0170161Y0211086D01*
X0172219Y0210233D01*
X0174447Y0210233D01*
X0176505Y0211086D01*
X0176553Y0211133D01*
X0197160Y0211133D01*
X0196559Y0209681D01*
X0196559Y0206986D01*
X0197590Y0204496D01*
X0198752Y0203333D01*
X0197590Y0202171D01*
X0196559Y0199681D01*
X0196559Y0196986D01*
X0197590Y0194496D01*
X0198752Y0193333D01*
X0197590Y0192171D01*
X0196559Y0189681D01*
X0196559Y0189278D01*
X0197717Y0192298D02*
X0184766Y0192298D01*
X0180112Y0198296D02*
X0196559Y0198296D01*
X0197791Y0204295D02*
X0177792Y0204295D01*
X0171375Y0204295D02*
X0156783Y0204295D01*
X0156783Y0210293D02*
X0172075Y0210293D01*
X0174592Y0210293D02*
X0196812Y0210293D01*
X0214537Y0223033D02*
X0215108Y0224411D01*
X0215108Y0228461D01*
X0219030Y0232383D01*
X0265518Y0232383D01*
X0267246Y0233099D01*
X0274080Y0239933D01*
X0274905Y0239933D01*
X0277808Y0241136D01*
X0278833Y0242161D01*
X0278858Y0242136D01*
X0281762Y0240933D01*
X0284905Y0240933D01*
X0287808Y0242136D01*
X0287833Y0242161D01*
X0288858Y0241136D01*
X0291762Y0239933D01*
X0294905Y0239933D01*
X0297808Y0241136D01*
X0298833Y0242161D01*
X0298858Y0242136D01*
X0301762Y0240933D01*
X0304905Y0240933D01*
X0307808Y0242136D01*
X0307833Y0242161D01*
X0308858Y0241136D01*
X0311762Y0239933D01*
X0314905Y0239933D01*
X0317808Y0241136D01*
X0320031Y0243358D01*
X0321233Y0246262D01*
X0321233Y0249405D01*
X0320031Y0252308D01*
X0319406Y0252933D01*
X0333333Y0252933D01*
X0333934Y0252894D01*
X0335094Y0252583D01*
X0336134Y0251983D01*
X0336333Y0251783D01*
X0332333Y0251783D01*
X0327383Y0246833D01*
X0327383Y0239833D01*
X0329308Y0237909D01*
X0327983Y0236585D01*
X0327983Y0233333D01*
X0327983Y0230082D01*
X0329308Y0228758D01*
X0327383Y0226833D01*
X0327383Y0224030D01*
X0326387Y0223033D01*
X0214537Y0223033D01*
X0215108Y0228289D02*
X0328839Y0228289D01*
X0327983Y0233333D02*
X0335833Y0233333D01*
X0335833Y0233333D01*
X0327983Y0233333D01*
X0327983Y0234287D02*
X0268434Y0234287D01*
X0275755Y0240286D02*
X0290911Y0240286D01*
X0295755Y0240286D02*
X0310911Y0240286D01*
X0315755Y0240286D02*
X0327383Y0240286D01*
X0327383Y0246284D02*
X0321233Y0246284D01*
X0320041Y0252283D02*
X0335614Y0252283D01*
X0318124Y0156307D02*
X0317694Y0156307D01*
X0323333Y0151333D02*
X0323333Y0145333D01*
X0333333Y0145333D02*
X0333333Y0151333D01*
X0167733Y0216292D02*
X0156783Y0216292D01*
X0104105Y0236260D02*
X0103333Y0235489D01*
X0102171Y0236652D01*
X0099681Y0237683D01*
X0096986Y0237683D01*
X0094496Y0236652D01*
X0093333Y0235489D01*
X0092171Y0236652D01*
X0089681Y0237683D01*
X0086986Y0237683D01*
X0084496Y0236652D01*
X0083333Y0235489D01*
X0082171Y0236652D01*
X0079681Y0237683D01*
X0076986Y0237683D01*
X0074496Y0236652D01*
X0073333Y0235489D01*
X0072171Y0236652D01*
X0069681Y0237683D01*
X0066986Y0237683D01*
X0064496Y0236652D01*
X0063733Y0235889D01*
X0063733Y0242261D01*
X0063858Y0242136D01*
X0066762Y0240933D01*
X0069905Y0240933D01*
X0072808Y0242136D01*
X0073258Y0242585D01*
X0073510Y0242333D01*
X0074269Y0241751D01*
X0075098Y0241272D01*
X0075982Y0240906D01*
X0076906Y0240658D01*
X0077855Y0240533D01*
X0078333Y0240533D01*
X0078333Y0247833D01*
X0078333Y0247833D01*
X0078333Y0240533D01*
X0078812Y0240533D01*
X0079761Y0240658D01*
X0080685Y0240906D01*
X0081569Y0241272D01*
X0082398Y0241751D01*
X0083157Y0242333D01*
X0083409Y0242585D01*
X0083858Y0242136D01*
X0086762Y0240933D01*
X0089905Y0240933D01*
X0092808Y0242136D01*
X0092833Y0242161D01*
X0093858Y0241136D01*
X0096762Y0239933D01*
X0099905Y0239933D01*
X0102808Y0241136D01*
X0103633Y0241961D01*
X0103633Y0237398D01*
X0104105Y0236260D01*
X0103633Y0240286D02*
X0100755Y0240286D01*
X0095911Y0240286D02*
X0063733Y0240286D01*
X0078333Y0246284D02*
X0078333Y0246284D01*
X0073333Y0221178D02*
X0073633Y0220878D01*
X0073633Y0177398D01*
X0074105Y0176260D01*
X0073333Y0175489D01*
X0072171Y0176652D01*
X0069681Y0177683D01*
X0066986Y0177683D01*
X0064496Y0176652D01*
X0063733Y0175889D01*
X0063733Y0220778D01*
X0064496Y0220015D01*
X0066986Y0218984D01*
X0069681Y0218984D01*
X0072171Y0220015D01*
X0073333Y0221178D01*
X0073633Y0216292D02*
X0063733Y0216292D01*
X0063733Y0210293D02*
X0073633Y0210293D01*
X0073633Y0204295D02*
X0063733Y0204295D01*
X0063733Y0198296D02*
X0073633Y0198296D01*
X0073633Y0192298D02*
X0063733Y0192298D01*
X0063733Y0186299D02*
X0073633Y0186299D01*
X0073633Y0180301D02*
X0063733Y0180301D01*
X0094459Y0084324D02*
X0112208Y0084324D01*
X0111533Y0078326D02*
X0095133Y0078326D01*
X0084954Y0066329D02*
X0123268Y0066329D01*
X0095610Y0060330D02*
X0084947Y0060330D01*
X0085133Y0060517D02*
X0085133Y0066150D01*
X0081150Y0070133D01*
X0075517Y0070133D01*
X0072909Y0067526D01*
X0070901Y0069533D01*
X0068333Y0069533D01*
X0068333Y0063333D01*
X0068333Y0057133D01*
X0070901Y0057133D01*
X0072909Y0059141D01*
X0075517Y0056533D01*
X0081150Y0056533D01*
X0085133Y0060517D01*
X0096440Y0054332D02*
X0066143Y0054332D01*
X0068333Y0060330D02*
X0068333Y0060330D01*
X0068333Y0063333D02*
X0068333Y0063333D01*
X0068333Y0066329D02*
X0068333Y0066329D01*
D21*
X0068333Y0063333D03*
X0078333Y0063333D03*
X0088333Y0080833D03*
X0118333Y0080833D03*
X0128333Y0080833D03*
X0158333Y0080833D03*
D22*
X0190533Y0123333D02*
X0196133Y0123333D01*
X0196133Y0133333D02*
X0190533Y0133333D01*
X0190533Y0143333D02*
X0196133Y0143333D01*
X0220533Y0143333D02*
X0226133Y0143333D01*
X0226133Y0133333D02*
X0220533Y0133333D01*
X0220533Y0123333D02*
X0226133Y0123333D01*
D23*
X0335833Y0100833D03*
X0335833Y0090833D03*
X0335833Y0080833D03*
X0335833Y0070833D03*
X0335833Y0173333D03*
X0335833Y0183333D03*
X0335833Y0193333D03*
X0335833Y0203333D03*
X0335833Y0213333D03*
X0335833Y0223333D03*
X0335833Y0233333D03*
X0335833Y0243333D03*
D24*
X0150833Y0158333D03*
X0150833Y0153333D03*
X0145833Y0153333D03*
X0140833Y0153333D03*
X0140833Y0158333D03*
X0145833Y0158333D03*
X0145833Y0148333D03*
X0140833Y0148333D03*
X0140833Y0143333D03*
X0135833Y0143333D03*
X0130833Y0143333D03*
X0125833Y0143333D03*
X0120833Y0143333D03*
X0120833Y0138333D03*
X0125833Y0138333D03*
X0130833Y0138333D03*
X0135833Y0138333D03*
X0135833Y0148333D03*
X0130833Y0148333D03*
X0125833Y0148333D03*
X0120833Y0148333D03*
X0115833Y0148333D03*
X0110833Y0148333D03*
X0105833Y0148333D03*
X0100833Y0148333D03*
X0095833Y0148333D03*
X0090833Y0148333D03*
X0085833Y0148333D03*
X0085833Y0143333D03*
X0090833Y0143333D03*
X0095833Y0143333D03*
X0093333Y0138333D03*
X0088333Y0138333D03*
X0083333Y0138333D03*
X0083333Y0133333D03*
X0088333Y0133333D03*
X0083333Y0123333D03*
X0083333Y0118333D03*
X0088333Y0118333D03*
X0093333Y0118333D03*
X0090833Y0113333D03*
X0085833Y0113333D03*
X0085833Y0108333D03*
X0090833Y0108333D03*
X0095833Y0108333D03*
X0100833Y0108333D03*
X0100833Y0103333D03*
X0095833Y0103333D03*
X0090833Y0103333D03*
X0085833Y0103333D03*
X0085833Y0098333D03*
X0090833Y0098333D03*
X0095833Y0098333D03*
X0100833Y0098333D03*
X0105833Y0098333D03*
X0110833Y0098333D03*
X0115833Y0098333D03*
X0115833Y0103333D03*
X0110833Y0103333D03*
X0105833Y0103333D03*
X0105833Y0108333D03*
X0110833Y0108333D03*
X0115833Y0108333D03*
X0115833Y0113333D03*
X0110833Y0113333D03*
X0115833Y0118333D03*
X0120833Y0118333D03*
X0125833Y0118333D03*
X0130833Y0118333D03*
X0135833Y0118333D03*
X0135833Y0113333D03*
X0130833Y0113333D03*
X0125833Y0113333D03*
X0120833Y0113333D03*
X0120833Y0108333D03*
X0125833Y0108333D03*
X0130833Y0108333D03*
X0135833Y0108333D03*
X0135833Y0103333D03*
X0130833Y0103333D03*
X0125833Y0103333D03*
X0120833Y0103333D03*
X0120833Y0098333D03*
X0125833Y0098333D03*
X0130833Y0098333D03*
X0135833Y0098333D03*
X0140833Y0098333D03*
X0145833Y0098333D03*
X0150833Y0098333D03*
X0150833Y0103333D03*
X0145833Y0103333D03*
X0140833Y0103333D03*
X0140833Y0108333D03*
X0145833Y0108333D03*
X0150833Y0108333D03*
X0140833Y0113333D03*
X0115833Y0138333D03*
X0115833Y0143333D03*
X0110833Y0143333D03*
X0110833Y0153333D03*
X0105833Y0153333D03*
X0105833Y0158333D03*
X0110833Y0158333D03*
X0115833Y0158333D03*
X0115833Y0153333D03*
X0120833Y0153333D03*
X0120833Y0158333D03*
X0125833Y0158333D03*
X0125833Y0153333D03*
X0130833Y0153333D03*
X0130833Y0158333D03*
X0135833Y0158333D03*
X0135833Y0153333D03*
X0150833Y0148333D03*
X0100833Y0153333D03*
X0095833Y0153333D03*
X0090833Y0153333D03*
X0085833Y0153333D03*
X0085833Y0158333D03*
X0090833Y0158333D03*
X0095833Y0158333D03*
X0100833Y0158333D03*
X0080833Y0158333D03*
X0080833Y0153333D03*
X0075833Y0153333D03*
X0070833Y0153333D03*
X0070833Y0158333D03*
X0075833Y0158333D03*
X0075833Y0148333D03*
X0070833Y0148333D03*
X0070833Y0143333D03*
X0075833Y0143333D03*
X0080833Y0143333D03*
X0080833Y0148333D03*
X0065833Y0148333D03*
X0065833Y0143333D03*
X0065833Y0138333D03*
X0065833Y0153333D03*
X0065833Y0158333D03*
X0065833Y0118333D03*
X0065833Y0113333D03*
X0065833Y0108333D03*
X0065833Y0103333D03*
X0065833Y0098333D03*
X0070833Y0098333D03*
X0075833Y0098333D03*
X0080833Y0098333D03*
X0080833Y0103333D03*
X0075833Y0103333D03*
X0070833Y0103333D03*
X0070833Y0108333D03*
X0075833Y0108333D03*
X0080833Y0108333D03*
X0080833Y0113333D03*
X0075833Y0113333D03*
X0070833Y0113333D03*
X0095833Y0113333D03*
D25*
X0148333Y0138333D02*
X0150833Y0140833D01*
X0157083Y0140833D01*
X0182708Y0115208D01*
X0133333Y0065833D01*
X0130833Y0065833D01*
X0123333Y0058333D01*
X0182708Y0115208D02*
X0204583Y0093333D01*
X0208333Y0093333D01*
X0208333Y0078333D01*
X0178333Y0155833D02*
X0150833Y0155833D01*
X0178333Y0155833D02*
X0178333Y0168333D01*
X0167083Y0211458D02*
X0198333Y0211458D01*
X0167083Y0211458D02*
X0158333Y0220208D01*
X0092083Y0243333D02*
X0085208Y0236458D01*
X0066458Y0236458D01*
X0062708Y0232708D01*
X0062708Y0220208D01*
X0074583Y0220208D01*
D26*
X0074583Y0220208D03*
X0092083Y0243333D03*
X0158333Y0220208D03*
X0198333Y0211458D03*
X0215208Y0223333D03*
D27*
X0208333Y0228333D02*
X0217083Y0237083D01*
X0264583Y0237083D01*
X0273333Y0245833D01*
X0273333Y0247833D01*
X0263333Y0248833D02*
X0263333Y0245833D01*
X0257083Y0239583D01*
X0198333Y0239583D01*
X0198333Y0228333D01*
X0215833Y0215833D02*
X0173333Y0215833D01*
X0172083Y0218333D02*
X0328333Y0218333D01*
X0320833Y0210833D01*
X0328333Y0218333D02*
X0333333Y0223333D01*
X0335833Y0223333D01*
X0335833Y0213333D02*
X0330833Y0208333D01*
X0223333Y0208333D01*
X0215833Y0215833D01*
X0192083Y0185833D02*
X0184583Y0185833D01*
X0173333Y0197083D01*
X0134583Y0197083D01*
X0134583Y0233333D01*
X0128333Y0239583D01*
X0128333Y0248833D01*
X0138333Y0247833D02*
X0138333Y0247083D01*
X0152083Y0233333D01*
X0152083Y0199583D01*
X0174583Y0199583D01*
X0165833Y0194583D02*
X0174583Y0185833D01*
X0168333Y0183333D02*
X0199583Y0183333D01*
X0183333Y0178333D02*
X0183333Y0123333D01*
X0228333Y0078333D01*
X0229583Y0087083D02*
X0322083Y0087083D01*
X0328333Y0080833D01*
X0335833Y0080833D01*
X0335833Y0090833D02*
X0255833Y0090833D01*
X0223333Y0123333D01*
X0223333Y0143333D02*
X0260833Y0143333D01*
X0310833Y0093333D01*
X0335833Y0100833D02*
X0285833Y0150833D01*
X0200833Y0150833D01*
X0193333Y0143333D01*
X0193333Y0123333D02*
X0229583Y0087083D01*
X0162083Y0103333D02*
X0152083Y0093333D01*
X0130833Y0093333D01*
X0118333Y0080833D01*
X0078333Y0178333D02*
X0183333Y0178333D01*
X0323333Y0178333D01*
X0328333Y0173333D01*
X0335833Y0173333D01*
X0333333Y0180833D02*
X0163333Y0180833D01*
X0168333Y0183333D02*
X0159583Y0192083D01*
X0114583Y0192083D01*
X0114583Y0234583D01*
X0110833Y0238333D01*
X0108333Y0238333D01*
X0108333Y0248833D01*
X0118333Y0247833D02*
X0118333Y0247083D01*
X0132083Y0233333D01*
X0132083Y0194583D01*
X0165833Y0194583D01*
X0172083Y0218333D02*
X0172083Y0238333D01*
X0163333Y0247083D01*
X0163333Y0247833D01*
X0078333Y0228333D02*
X0078333Y0178333D01*
X0305833Y0203333D02*
X0335833Y0203333D01*
X0328333Y0200833D02*
X0318333Y0200833D01*
X0328333Y0200833D02*
X0335833Y0193333D01*
X0335833Y0183333D02*
X0333333Y0180833D01*
D28*
X0318333Y0200833D03*
X0305833Y0203333D03*
X0320833Y0210833D03*
X0199583Y0183333D03*
X0192083Y0185833D03*
X0174583Y0185833D03*
X0163333Y0180833D03*
X0174583Y0199583D03*
X0173333Y0215833D03*
X0162083Y0103333D03*
X0310833Y0093333D03*
M02*
